<svg width="64" height="62" viewBox="0 0 64 62" fill="none" xmlns="http://www.w3.org/2000/svg">
<path fill-rule="evenodd" clip-rule="evenodd" d="M11.2608 0H52.3286C58.5481 0 63.5895 5.04138 63.5895 11.2608V50.7392C63.5895 56.9586 58.5481 62 52.3286 62H11.2608C5.04138 62 0 56.9586 0 50.7392V11.2608C0 5.04138 5.04138 0 11.2608 0ZM33.4274 16.305L25.4914 29.4021L33.9809 43.307C34.037 43.4043 34.052 43.5202 34.0221 43.6287C34.0031 43.6927 33.9571 43.6906 33.8821 43.6871C33.8388 43.6851 33.7858 43.6827 33.7229 43.6923H27.6642C27.2379 43.6923 26.9387 43.6773 26.7667 43.393C26.1982 42.2823 25.6297 41.1828 25.0613 40.087C24.4928 38.9912 23.8869 37.8767 23.2474 36.7398C22.6079 35.6028 21.9759 34.451 21.3476 33.2841H21.3064C20.738 34.421 20.1471 35.558 19.5374 36.6949C18.9241 37.8318 18.322 38.9613 17.7236 40.087C17.1252 41.209 16.5156 42.3272 15.891 43.4342C15.7789 43.6885 15.5769 43.7147 15.2927 43.7147H9.44721C9.41926 43.7147 9.39432 43.7175 9.37241 43.7199C9.30635 43.7273 9.2677 43.7316 9.25647 43.6474C9.24151 43.5427 9.26395 43.4379 9.32005 43.3482L17.5516 29.8247L9.53322 16.2601C9.44721 16.1479 9.43225 16.0544 9.49208 15.9833C9.55566 15.9086 9.64916 15.8712 9.7464 15.8749H15.7602C15.891 15.8674 16.0219 15.8899 16.1454 15.9385C16.2463 15.9946 16.3361 16.0768 16.3997 16.1741C16.912 17.311 17.4805 18.4479 18.1051 19.5849C18.7296 20.7218 19.3617 21.8475 20.0049 22.9545C20.6445 24.0653 21.2354 25.1872 21.7739 26.3242H21.815C22.3835 25.1573 22.9595 24.0204 23.5429 22.9134C24.1263 21.8026 24.7209 20.6881 25.3343 19.5662C25.9439 18.4442 26.5348 17.326 27.1033 16.219C27.1369 16.1142 27.193 16.017 27.2753 15.9422C27.38 15.8899 27.4997 15.8674 27.6156 15.8786H33.203C33.3339 15.845 33.4648 15.9273 33.4985 16.0582C33.5209 16.1479 33.4873 16.2451 33.4162 16.305H33.4274ZM39.9772 43.0546C41.7649 43.8699 43.7096 44.2776 45.6731 44.2477C47.0456 44.2402 48.4182 44.113 49.7683 43.8624C51.2455 43.5894 52.6891 43.1631 54.0766 42.5834C54.2412 42.5086 54.3421 42.3366 54.3309 42.1571C54.3036 41.7407 54.2701 41.2777 54.2332 40.7679L54.2225 40.62C54.1813 40.0515 54.1589 39.5242 54.1589 39.0417V13.8311V13.7675C54.1439 13.6441 54.028 13.5581 53.9046 13.5768H48.5303C48.362 13.5768 48.276 13.6777 48.276 13.876V22.2795L48.2722 22.2792C47.9597 22.2532 47.6917 22.2308 47.4645 22.2159C47.2363 22.201 47.0531 22.1935 46.911 22.1935C44.293 22.1935 42.0603 22.7059 40.2128 23.7306C38.4476 24.6731 36.9853 26.0905 35.9905 27.8258C35.0218 29.5274 34.5244 31.4572 34.5394 33.4132C34.5394 35.8292 35.0218 37.8412 35.9905 39.4494C36.9217 41.0276 38.3129 42.2842 39.9772 43.0546ZM48.276 27.3134V38.9594C47.9694 39.0492 47.6552 39.1091 47.3373 39.1315C46.9932 39.1577 46.623 39.1726 46.2266 39.1726C45.4823 39.1764 44.7418 39.0604 44.0312 38.8323C43.3581 38.6191 42.7447 38.2564 42.2398 37.7664C41.7125 37.2354 41.3049 36.5921 41.0468 35.889C40.7289 35.0139 40.5756 34.0901 40.598 33.1589C40.598 31.7639 40.8897 30.6419 41.4732 29.7892C42.0379 28.9515 42.8083 28.2746 43.7134 27.8258C44.6409 27.3695 45.6618 27.1339 46.6978 27.1451C46.9895 27.1414 47.2812 27.1563 47.5729 27.1863C47.8085 27.2087 48.0442 27.2498 48.276 27.3134Z" fill="#E9E9E9"/>
</svg>
