<svg width="64" height="62" viewBox="0 0 64 62" fill="none" xmlns="http://www.w3.org/2000/svg">
<path fill-rule="evenodd" clip-rule="evenodd" d="M52.3286 0H11.2608C5.0339 0 0 5.03392 0 11.2608V50.7392C0 56.9661 5.0339 62 11.2608 62H52.3286C58.5555 62 63.5894 56.9661 63.5894 50.7392V11.2608C63.5894 5.03392 58.5555 0 52.3286 0ZM21.8188 39.4534H31.6735L31.6772 39.4497L33.8501 45.7552C33.9024 45.9422 34.0857 46.0731 34.2727 46.0469H39.8115C40.077 46.0469 40.1555 45.916 40.077 45.6243L30.4056 18.3342C30.3795 18.1996 30.2747 18.1211 30.0616 18.1211H23.1989C23.0642 18.1473 22.9595 18.2819 22.9857 18.4128C22.9857 18.9962 22.9296 19.5796 22.8249 20.1369C22.7421 20.3881 22.6734 20.6229 22.6094 20.8414C22.5925 20.8994 22.5758 20.9563 22.5593 21.012L14.0286 45.5719C13.9501 45.8898 14.0286 46.0506 14.3203 46.0506H19.3019C19.5412 46.0768 19.7544 45.9197 19.8068 45.6804L21.8188 39.4534ZM30.0803 34.0755H23.3522H23.3484L26.6882 23.0278L30.0803 34.0755ZM45.8486 22.6533C44.9735 22.6795 44.1245 22.3354 43.4888 21.7258C42.8791 21.0638 42.5613 20.1887 42.5874 19.2874C42.5613 18.3861 42.9053 17.5371 43.5411 16.9275C44.1769 16.3179 45.0258 16 45.901 16C46.9332 16 47.7298 16.3179 48.3132 16.9275C48.8966 17.5633 49.2145 18.4122 49.1884 19.2874C49.2145 20.1887 48.8966 21.0638 48.2609 21.7258C47.6513 22.3616 46.7499 22.7056 45.8486 22.6533ZM42.8828 25.2492V45.6503C42.8828 45.9121 43.0137 46.0729 43.2792 46.0729H48.474C48.7133 46.0729 48.818 45.942 48.818 45.6503V25.2492C48.818 25.0098 48.7133 24.8789 48.474 24.8789H43.2269C42.9875 24.8789 42.8828 24.9836 42.8828 25.2492Z" fill="#E9E9E9"/>
</svg>
