<svg width="62" height="62" viewBox="0 0 62 62" fill="none" xmlns="http://www.w3.org/2000/svg">
<path fill-rule="evenodd" clip-rule="evenodd" d="M10.9362 0H51.0638C57.1037 0 62 4.89633 62 10.9362V51.0638C62 57.1037 57.1037 62 51.0638 62H10.9362C4.89633 62 0 57.1037 0 51.0638V10.9362C0 4.89633 4.89633 0 10.9362 0ZM32.5998 39.6842H21.0162V17.1973H14.3594V44.8048H32.5998V39.6842ZM45.4197 29.9221L47.5228 30.072L47.5265 30.0757L47.6399 24.1394C47.1351 23.9894 46.5426 23.9126 45.8586 23.9126C43.9347 23.9126 42.4388 24.9148 41.3634 26.9265L41.155 24.2893H35.1638V44.8048H41.5536V31.8167C42.1206 30.5548 43.408 29.9221 45.4197 29.9221Z" fill="#E9E9E9"/>
</svg>
