<svg width="64" height="62" viewBox="0 0 64 62" fill="none" xmlns="http://www.w3.org/2000/svg">
<path fill-rule="evenodd" clip-rule="evenodd" d="M11.2615 0H52.328C58.5468 0 63.5895 5.04267 63.5895 11.2615V50.7385C63.5895 56.9573 58.5468 62 52.328 62H11.2615C5.04267 62 0 56.9573 0 50.7385V11.2615C0 5.04267 5.04267 0 11.2615 0ZM25.5446 37.0919H15.6923L13.6857 43.3332C13.6294 43.5662 13.4152 43.7278 13.1747 43.7165H8.18465C7.89907 43.7165 7.80137 43.5587 7.8878 43.2468L16.4175 18.7775C16.5039 18.522 16.5866 18.2702 16.673 17.9433C16.7857 17.3759 16.8421 16.7972 16.8421 16.2148C16.8233 16.072 16.921 15.9368 17.0676 15.918H17.1427H23.9251C24.1243 15.918 24.237 15.9894 24.2671 16.1321L33.9503 43.2919C34.0368 43.5775 33.9503 43.7203 33.6948 43.7203H28.1486C27.9533 43.7428 27.7691 43.6151 27.7203 43.4234L25.5446 37.0994V37.0919ZM20.5959 20.784H20.5546L17.2291 31.8313H23.9702L20.5997 20.784H20.5959ZM41.2485 34.6643H49.6504H49.6579C49.9853 34.6643 50.304 34.6884 50.6146 34.7119C50.9528 34.7374 51.2813 34.7623 51.6006 34.7545C52.2131 34.7394 52.7241 34.7094 53.1374 34.668C53.5508 34.6267 53.8439 34.6042 54.013 34.6042C54.2084 34.6042 54.3737 34.4576 54.3962 34.2622C54.4225 34.0368 54.4601 33.6648 54.5014 33.1537C54.5428 32.6427 54.5653 32.0753 54.5653 31.4478C54.5616 30.3468 54.3887 29.2534 54.0543 28.205C53.7086 27.1191 53.175 26.1008 52.4761 25.1989C50.8077 23.136 48.1511 22.2793 45.5659 22.2793C42.5636 22.2793 39.8807 23.2638 37.9305 25.6273C37.0438 26.6982 36.3711 27.9307 35.9465 29.2534C35.5031 30.6098 35.2814 32.0264 35.2852 33.4543C35.2852 34.7582 35.4731 36.0583 35.8413 37.3134C36.2133 38.5834 36.8371 39.7671 37.675 40.7891C38.5693 41.8751 39.7116 42.7393 41.0005 43.3067C42.3645 43.9342 44.0591 44.2461 46.077 44.2461C47.3358 44.2649 48.5945 44.1597 49.8308 43.9267C50.7401 43.7764 51.6269 43.5096 52.4724 43.1376C52.5513 43.0888 52.6151 43.0249 52.664 42.946C52.7128 42.8483 52.7354 42.7355 52.7279 42.6266V38.5759C52.7279 38.3204 52.6565 38.249 52.5137 38.3617C51.7509 38.6623 50.958 38.869 50.1464 38.978C49.2408 39.1583 48.3202 39.2598 47.3959 39.2786C46.2273 39.3011 45.0737 39.0757 44.0028 38.6135C43.2099 38.2791 42.5373 37.7229 42.0601 37.0127C41.628 36.2951 41.3499 35.4947 41.2485 34.6643ZM46.836 30.7789H41.2485C41.3349 30.1214 41.5303 29.4826 41.8234 28.8889C42.496 27.5812 43.8788 26.7921 45.3442 26.8823C46.9149 26.8222 48.3277 27.818 48.8012 29.3135C48.9027 29.6291 48.9628 29.9598 48.9703 30.2942V30.5497C48.7787 30.6662 48.5682 30.7338 48.3503 30.7564C48.0234 30.7714 47.5199 30.7789 46.836 30.7789Z" fill="#E9E9E9"/>
</svg>
