<svg width="89" height="50" viewBox="0 0 89 50" fill="none" xmlns="http://www.w3.org/2000/svg">
<path d="M66.2295 15.0386C79.638 22.8665 87.0845 34.5603 89 50H0.096846C-0.0707602 49.8559 0.024968 49.6398 0.0489118 49.4717C0.599618 44.6453 1.82079 39.987 3.83207 35.5448C5.79545 31.1746 8.40534 27.2367 11.6377 23.7309C14.6307 20.4893 18.0786 17.7759 21.9096 15.5668C22.4842 15.2307 22.612 14.7825 22.2927 14.2222C20.066 10.3563 17.8391 6.51437 15.6123 2.64845C15.3729 2.21623 15.0856 1.78401 15.2053 1.25575C15.349 0.631438 15.7321 0.199223 16.3546 0.0551512C16.9771 -0.112932 17.5758 0.103185 17.9589 0.703484C18.3181 1.25576 18.6533 1.85606 18.9885 2.43235C21.0237 5.9621 23.0349 9.49183 25.0702 13.0216C25.4772 13.7419 25.4772 13.718 26.2913 13.3818C29.8829 11.821 33.5941 10.7645 37.449 10.1882C40.7293 9.68394 44.0096 9.51585 47.3138 9.73196C52.6772 10.0681 57.8731 11.2447 62.8295 13.4058C63.5478 13.7179 63.5477 13.718 63.9308 13.0456C66.2294 9.03563 68.552 5.02561 70.8506 1.01561C71.1619 0.487352 71.521 0.0551644 72.1914 0.0311524C73.3647 -0.0168715 74.1789 1.1357 73.6282 2.16821C72.8859 3.56091 72.0717 4.92959 71.2816 6.29827C69.7252 9.01162 68.145 11.725 66.5887 14.4383C66.469 14.6304 66.3732 14.8465 66.2774 15.0386H66.2295ZM20.3533 33.7919C20.3533 35.857 21.9574 37.4417 23.9927 37.4898C25.8124 37.5378 27.7279 36.1691 27.7758 33.8159C27.7998 31.4868 25.8125 30.0701 24.0646 30.0461C21.8378 30.0461 20.1618 32.1351 20.3533 33.7919ZM64.8886 30.0941C62.9492 29.902 61.1534 31.871 61.1534 33.8159C61.1534 35.7129 62.9252 37.5138 64.8407 37.5378C66.8759 37.5378 68.5759 35.6889 68.5999 33.8159C68.6238 31.895 66.7562 29.878 64.8886 30.0941Z" fill="#E9E9E9"/>
</svg>
