<svg width="58" height="81" viewBox="0 0 58 81" fill="none" xmlns="http://www.w3.org/2000/svg">
<path d="M13.687 0H22.3882V3.63867H17.3257V7.27734H22.3882V10.916H13.687V0Z" fill="#E9E9E9"/>
<path d="M24.1284 0H32.8296V3.16406H27.7671V3.79687H32.8296V11.0742H24.1284V7.75195H29.1909V7.11914H24.1284V0Z" fill="#E9E9E9"/>
<path d="M34.5698 0H43.271V3.16406H38.2085V3.79687H43.271V11.0742H34.5698V7.75195H39.6323V7.11914H34.5698V0Z" fill="#E9E9E9"/>
<path fill-rule="evenodd" clip-rule="evenodd" d="M5.22244 74.5758L0 16H57.3857L52.1577 74.5666L28.6577 81.0816L5.22244 74.5758ZM11.9722 42.5143L12.6161 49.6983L28.668 49.6983V42.5143L28.6927 42.5143V49.6983L37.5144 49.6983L36.6805 59.0155L28.668 61.1781V61.1788L28.6611 61.1806L20.6602 59.0202L20.1487 53.2905H16.2609H12.937L13.9435 64.5706L28.6596 68.6558L28.6926 68.6467V68.6455L43.3957 64.5705L43.5038 63.3568L45.192 44.4434L45.3673 42.5143L46.6642 27.9735H28.693V35.1577H38.7911L38.1374 42.5143H28.668L11.9722 42.5143ZM28.668 35.1577V27.9735H10.6787L11.3318 35.1577H28.668ZM28.6926 68.6455V61.1722L28.668 61.1788V68.6523L28.6926 68.6455Z" fill="#E9E9E9"/>
</svg>
