<svg width="80" height="80" viewBox="0 0 80 80" fill="none" xmlns="http://www.w3.org/2000/svg">
<path d="M55.0974 15.3725C52.2924 12.5775 49.4524 9.81999 46.5499 7.12749C45.7324 6.24 44.5649 5.68499 43.2674 5.68499C43.2474 5.68499 43.2299 5.68499 43.2099 5.68499C42.2074 5.78249 41.2899 5.99749 40.4199 6.31749L40.4974 6.29249L22.3474 15.3675L55.0974 15.3725ZM17.4874 17.4875V54.26C17.4624 54.4675 17.4474 54.7075 17.4474 54.95C17.4474 56.505 18.0549 57.92 19.0449 58.9675L19.0424 58.965L34.3974 74.3175H61.0199V61.0175L17.4874 17.4875ZM15.3699 15.3675C15.3699 15.3675 31.1349 7.49 39.0149 3.5475C40.2549 2.9225 41.7149 2.5575 43.2624 2.5575C43.3924 2.5575 43.5249 2.56 43.6549 2.565H43.6374C45.6524 2.9625 47.4199 3.825 48.8899 5.03999L48.8699 5.02499L77.4424 33.6V64.14H64.1424V77.44H33.1074L5.02988 49.3625C3.54238 47.8325 2.60988 45.755 2.56738 43.4575V43.45C2.69488 42.1725 3.04488 41.005 3.57988 39.945L3.55488 40.0025L15.3699 15.3675Z" fill="#E9E9E9"/>
</svg>
