<svg width="146" height="47" viewBox="0 0 146 47" fill="none" xmlns="http://www.w3.org/2000/svg">
<path d="M0.0333301 14.0508C0.349657 14.4337 0.765934 14.2339 1.13221 14.2339C5.01138 14.2506 8.89053 14.2339 12.7697 14.2506C13.1193 14.2506 13.5521 14.0508 13.8518 14.467C13.5355 14.8666 13.1193 14.6668 12.7697 14.6834C8.99043 14.6834 5.22782 14.7167 1.44854 14.6834C0.649397 14.6834 0.416253 14.8832 0.44955 15.6824C0.499497 18.1297 0.499497 20.5771 0.44955 23.0245C0.432901 23.8569 0.699258 24.0234 1.4651 24.0068C4.9447 23.9735 8.44102 23.9901 11.9373 24.0068C12.3035 24.0068 12.7197 23.8403 13.0694 24.2065C12.7697 24.6061 12.3534 24.4396 12.0038 24.4396C8.50758 24.4396 5.02801 24.4729 1.53176 24.4396C0.749269 24.4396 0.416236 24.5728 0.432885 25.4719C0.49948 28.2023 0.482832 30.9327 0.432885 33.6631C0.432885 34.4123 0.549455 34.712 1.39854 34.6953C5.46085 34.6454 9.50651 34.662 13.5688 34.6953C14.0017 34.6953 14.2848 34.5954 14.5511 34.2458C16.0995 32.2146 17.6644 30.2001 19.2627 28.2023C19.7455 27.6029 19.7621 27.1367 19.2627 26.5207C17.6477 24.4729 16.0995 22.3752 14.4346 20.1775C15.1005 20.0776 15.2671 20.5105 15.5001 20.8268C16.832 22.6249 18.1805 24.3897 19.4791 26.2211C19.9619 26.9037 20.2283 26.9703 20.7611 26.2377C22.093 24.4063 23.4915 22.6083 24.89 20.8268C25.0898 20.5605 25.2063 20.1609 25.6559 20.1609C25.8723 20.4772 25.5559 20.6104 25.4228 20.7769C23.8578 22.8414 22.3094 24.9058 20.7111 26.9536C20.4281 27.3032 20.3781 27.4198 20.7111 27.836C22.5758 30.1169 24.3573 32.4644 26.172 34.7786C26.2219 34.8451 26.2386 34.9617 26.2719 35.0949C25.6892 35.1448 25.5393 34.662 25.3062 34.3623C23.7745 32.4144 22.2428 30.4665 20.7444 28.4853C20.2783 27.8859 19.9953 27.836 19.4958 28.4853C18.014 30.4831 16.4658 32.4144 14.9674 34.3956C14.5678 34.9284 14.1349 35.1448 13.4523 35.1282C8.97373 35.1115 4.47853 35.1282 0 35.1615V14.0841L0.0333301 14.0508Z" fill="#E9E9E9"/>
<path d="M28.5869 31.2657C28.1041 31.4988 28.3204 31.9483 28.3038 32.2979C28.2871 34.3457 28.3038 36.3935 28.3038 38.6078C27.7877 37.9252 27.6878 21.2098 28.2539 20.1276V23.6905C28.8699 23.7904 28.8366 23.4074 28.9531 23.1744C30.2018 20.7603 32.2829 19.728 34.9134 19.8113C37.5106 19.8945 39.2754 21.3596 40.1412 23.6905C41.4897 27.2367 41.3232 30.7163 38.6761 33.6631C36.262 36.3435 31.5337 35.9273 29.5026 33.0138C29.386 32.8473 29.2195 32.6808 29.2694 32.4477C29.3027 32.4144 29.3194 32.3978 29.3527 32.3645C29.5025 32.4977 29.669 32.6309 29.8022 32.7807C32.7324 36.3435 38.0267 35.5777 39.7582 31.3156C40.6073 29.2179 40.6905 27.0535 40.1078 24.8559C39.342 21.9923 37.4108 20.3274 34.7303 20.2442C31.7835 20.1443 29.6857 22.0422 28.8532 24.5229C28.154 26.604 28.2206 28.7017 28.7867 30.7995C28.8699 31.0992 29.2195 31.3822 28.9032 31.7485H28.9199C28.82 31.582 28.72 31.4488 28.6201 31.299V31.2823L28.5869 31.2657Z" fill="#E9E9E9"/>
<path d="M63.3321 29.951C63.0991 31.9822 62.2 33.4972 60.5352 34.5128C56.6227 36.9102 51.7112 34.9623 50.8122 30.5171C50.1796 27.4204 50.1129 24.3237 52.5603 21.7432C55.5238 18.6299 60.7183 19.3457 62.6329 23.1916C63.1823 24.2904 63.4487 25.4392 63.5319 26.6712C63.5819 27.4204 63.4487 27.7035 62.5829 27.7035C59.0201 27.6535 55.4573 27.6702 51.8944 27.6868C50.6291 27.6868 50.5791 27.7867 50.9121 29.052C51.1618 30.0176 51.2618 30.9999 51.6946 31.9156C52.8101 34.1965 54.8246 35.2454 57.7048 34.9956C60.2188 34.7792 61.9835 33.3307 62.6661 30.9833C62.766 30.6669 62.6329 30.1841 63.2988 29.9843L63.3321 29.951ZM56.8058 27.2206C58.5873 27.2206 60.352 27.2206 62.1334 27.2206C62.5995 27.2206 63.1156 27.2872 63.0657 26.5547C62.8826 23.4414 61.1511 20.378 57.3385 20.2281C53.2596 20.0616 51.1951 23.4247 50.8954 26.7378C50.8455 27.2373 51.1286 27.204 51.4782 27.204C53.2596 27.204 55.0244 27.204 56.8058 27.204V27.2206Z" fill="#E9E9E9"/>
<path d="M65.379 29.9683C65.8452 30.2347 65.7619 30.4678 65.7952 30.6676C66.1448 33.3647 67.7431 34.8131 70.4569 34.9463C71.8887 35.0129 73.3205 34.9963 74.5858 34.2138C75.718 33.5145 76.4172 32.5655 76.3339 31.167C76.2507 29.8351 75.4515 29.036 74.3194 28.5365C72.9209 27.9205 71.3892 27.6874 69.9241 27.2712C69.3414 27.1047 68.7587 26.9382 68.1926 26.7551C66.8607 26.3222 66.0117 25.4732 65.9118 24.0081C65.8119 22.5596 66.3613 21.4608 67.56 20.6616C69.3914 19.4629 72.9043 19.5129 74.6857 20.7615C75.8678 21.5773 76.5004 23.1423 76.1841 24.4243C75.7345 24.3743 75.901 24.0081 75.8677 23.7583C75.568 21.8937 74.5025 20.7782 72.6545 20.4119C71.4558 20.1788 70.2571 20.1622 69.0584 20.4619C67.4268 20.8614 66.3613 22.1101 66.3613 23.5918C66.3613 24.9737 67.0106 25.8894 68.5423 26.3722C69.9242 26.8217 71.3559 27.138 72.7544 27.521C73.3704 27.6874 73.9865 27.8706 74.5692 28.137C77.3495 29.4189 77.6492 32.5655 75.1852 34.3803C73.0708 35.9452 68.6256 35.7122 66.6943 33.9141C65.5788 32.8652 65.329 31.55 65.379 29.9683Z" fill="#E9E9E9"/>
<path d="M79.2313 30.0514C79.5143 30.2678 79.4478 30.5342 79.4811 30.7673C79.7641 33.0648 80.9128 34.3967 83.1937 34.7963C84.9252 35.1126 86.6733 35.1126 88.2716 34.1637C89.4204 33.4811 90.0864 32.4988 89.9865 31.1003C89.9032 29.7517 89.0707 29.0025 87.9386 28.4864C86.5567 27.8538 85.0084 27.7372 83.5766 27.2377C82.9773 27.0213 82.3613 26.8382 81.7453 26.6717C80.3967 26.2888 79.6808 25.3731 79.531 24.0412C79.3645 22.5761 79.9972 21.4107 81.2125 20.6115C83.0772 19.3962 86.4902 19.4628 88.3383 20.7281C89.5703 21.5772 90.1696 23.009 89.8533 24.3575C89.4703 24.3076 89.5869 23.9912 89.5703 23.7914C89.487 23.0256 89.204 22.3596 88.7378 21.7603C86.8232 19.263 81.4955 19.8124 80.147 22.626C79.5976 23.7582 80.2968 25.8392 81.8119 26.2388C83.6099 26.705 85.3581 27.3376 87.1728 27.7372C89.3039 28.2034 90.4359 29.4687 90.4526 31.2335C90.4692 33.1481 89.2539 34.5965 87.1728 35.1293C85.5912 35.5289 83.9928 35.4956 82.4278 35.0627C80.3301 34.4966 78.9816 32.6653 78.9982 30.4676C78.9982 30.2845 78.9983 30.1013 79.2646 30.0347L79.2313 30.0514Z" fill="#E9E9E9"/>
<path d="M50.097 19.8629C50.0803 20.1626 49.9305 20.2125 49.7973 20.2125C46.3177 20.0627 44.1367 23.0262 44.1533 26.5724C44.17 29.053 44.1533 31.5337 44.1533 34.0144C44.1533 34.364 44.3532 34.7969 43.7871 35.1631V19.9128C44.3365 20.5288 44.1034 21.0616 44.1533 21.5278C44.2033 22.0439 44.1534 22.56 44.3199 23.1594C44.9858 22.1271 45.6351 21.1448 46.7173 20.5788C47.7828 20.0294 48.8816 19.6631 50.1136 19.8795L50.097 19.8629Z" fill="#E9E9E9"/>
<path d="M29.1003 32.1497C28.8672 32.0831 28.8672 31.8999 28.8839 31.7168L28.8672 31.7334C29.2168 31.7334 29.3167 31.8666 29.0836 32.1663H29.1003V32.1497Z" fill="#E9E9E9"/>
<path d="M29.25 32.4307C29.1007 32.3809 29.0509 32.2813 29.1007 32.1485L29.0841 32.1651C29.3331 31.9991 29.3331 32.1817 29.3331 32.3477C29.2999 32.3809 29.2832 32.3975 29.25 32.4307Z" fill="#E9E9E9"/>
<path d="M145.328 0.0166524C145.328 15.1338 145.328 30.2509 145.345 45.3513C145.345 46.2837 145.178 46.6 144.146 46.6C128.413 46.5667 112.663 46.5667 96.9302 46.5834C96.2975 46.5834 95.7148 46.7332 95.7148 45.6677C95.7481 30.4507 95.7481 15.2337 95.7481 0H145.312L145.328 0.0166524ZM134.39 42.6542C134.773 42.6376 135.372 42.6209 135.972 42.5544C138.835 42.2547 141.299 40.3068 141.882 37.8927C142.631 34.796 141.599 32.1322 139.002 30.3841C138.086 29.7681 137.087 29.3019 136.088 28.8357C134.889 28.2863 133.624 27.9034 132.559 27.0876C131.76 26.4716 131.593 25.6225 131.859 24.7068C132.126 23.8078 132.842 23.4582 133.724 23.3749C134.973 23.2584 135.972 23.7246 136.638 24.7734C136.954 25.2562 137.22 25.2729 137.653 24.9566C138.419 24.4238 139.168 23.891 140.001 23.4748C140.75 23.0919 140.6 22.7256 140.2 22.1762C138.486 19.7954 136.072 19.0296 133.275 19.2294C128.18 19.579 125.416 24.5403 127.88 28.8524C128.913 30.6837 130.677 31.6161 132.525 32.4319C133.724 32.9646 134.973 33.4142 136.088 34.0968C136.937 34.6295 137.47 35.3621 137.32 36.3943C137.17 37.4265 136.454 37.9926 135.505 38.259C133.774 38.7584 132.226 38.3588 130.81 37.2434C130.228 36.7939 130.045 35.7283 129.279 35.7949C128.563 35.8615 127.914 36.4942 127.231 36.8771C126.948 37.0269 126.698 37.2267 126.399 37.3433C125.699 37.6429 125.666 37.9926 126.099 38.6252C128.047 41.4555 130.827 42.571 134.39 42.6043V42.6542ZM123.102 28.869C123.102 25.6558 123.102 23.0086 123.102 20.3448C123.102 19.7788 122.986 19.5124 122.353 19.5457C121.287 19.5957 120.222 19.5957 119.156 19.5457C118.557 19.5291 118.374 19.7122 118.374 20.3115C118.407 22.5092 118.374 24.7068 118.374 26.9045C118.374 29.818 118.374 32.7149 118.374 35.6284C118.374 37.4099 117.758 38.209 116.376 38.4254C114.961 38.6419 113.945 38.0092 113.296 36.8105C112.93 36.1446 112.58 36.0946 111.981 36.4942C111.281 36.977 110.549 37.4432 109.8 37.8094C109.017 38.1924 109.001 38.5753 109.45 39.2579C111.248 41.9383 113.829 42.8041 116.925 42.5876C120.405 42.3546 122.636 40.3567 123.002 36.9104C123.302 34.0468 123.035 31.1666 123.119 28.8524L123.102 28.869Z" fill="#E9E9E9"/>
</svg>
