<svg width="132" height="46" viewBox="0 0 132 46" fill="none" xmlns="http://www.w3.org/2000/svg">
<mask id="mask0_4371_15608" style="mask-type:luminance" maskUnits="userSpaceOnUse" x="0" y="0" width="28" height="41">
<path d="M27.1279 0H0V40.6931H27.1279V0Z" fill="white"/>
</mask>
<g mask="url('#mask0_4371_15608')">
<path d="M13.5664 20.3457C13.5664 18.5461 14.2819 16.8223 15.5531 15.5511C16.8242 14.28 18.5507 13.5645 20.3477 13.5645C22.1447 13.5645 23.8711 14.28 25.1423 15.5511C26.4135 16.8223 27.129 18.5488 27.129 20.3457C27.129 22.1427 26.4135 23.8692 25.1423 25.1403C23.8711 26.4115 22.1447 27.127 20.3477 27.127C18.5507 27.127 16.8242 26.4115 15.5531 25.1403C14.2819 23.8692 13.5664 22.1427 13.5664 20.3457Z" fill="#E9E9E9"/>
<path d="M0 33.9082C0 32.1086 0.715532 30.3848 1.98668 29.1136C3.25784 27.8425 4.98433 27.127 6.78129 27.127H13.5626V33.9082C13.5626 35.7079 12.847 37.4317 11.5759 38.7028C10.3047 39.974 8.57825 40.6895 6.78129 40.6895C4.98433 40.6895 3.25784 39.974 1.98668 38.7028C0.715532 37.4317 0 35.7052 0 33.9082Z" fill="#E9E9E9"/>
<path d="M13.5664 0V13.5653H20.3477C22.1474 13.5653 23.8711 12.8498 25.1423 11.5786C26.4135 10.3074 27.129 8.58096 27.129 6.784C27.129 4.98704 26.4135 3.26055 25.1423 1.98939C23.8711 0.718242 22.1447 0.00271035 20.3477 0.00271035H13.5664V0Z" fill="#E9E9E9"/>
<path d="M0 6.78129C0 8.58096 0.715532 10.3047 1.98668 11.5759C3.25784 12.847 4.98433 13.5626 6.78129 13.5626H13.5626V0H6.78129C4.98162 0 3.25784 0.715532 1.98668 1.98668C0.715532 3.25784 0 4.98433 0 6.78129Z" fill="#E9E9E9"/>
<path d="M0 20.3466C0 22.1463 0.715532 23.8701 1.98668 25.1412C3.25784 26.4124 4.98433 27.1279 6.78129 27.1279H13.5626V13.5626H6.78129C4.98162 13.5626 3.25784 14.2782 1.98668 15.5493C0.715532 16.8205 0 18.5469 0 20.3439V20.3466Z" fill="#E9E9E9"/>
</g>
<mask id="mask1_4371_15608" style="mask-type:luminance" maskUnits="userSpaceOnUse" x="34" y="11" width="98" height="36">
<path d="M131.052 11.6113H34.4961V46.0002H131.052V11.6113Z" fill="white"/>
</mask>
<g mask="url('#mask1_4371_15608')">
<path d="M35.1855 11.6121V38.2765L38.625 38.29V25.5921H46.8915V22.2312H38.6114V14.9567H49.3905V11.6094H35.1855V11.6121ZM55.5538 17.0355C56.1501 17.0355 56.722 16.7997 57.1448 16.3769C57.5676 15.9541 57.8034 15.3822 57.8034 14.7859C57.8034 14.1896 57.5676 13.6177 57.1448 13.1949C56.722 12.7721 56.1501 12.5363 55.5538 12.5363C54.9575 12.5363 54.3856 12.7721 53.9628 13.1949C53.54 13.6177 53.3042 14.1896 53.3042 14.7859C53.3042 15.3822 53.54 15.9541 53.9628 16.3769C54.3856 16.7997 54.9575 17.0355 55.5538 17.0355ZM53.8219 20.3828V38.2927H57.2613V20.3828H53.8219Z" fill="#E9E9E9"/>
<path fill-rule="evenodd" clip-rule="evenodd" d="M69.9706 19.866C65.4199 19.866 62.2461 23.7147 62.2461 28.2925C62.2461 32.8702 65.4199 36.7189 69.9706 36.7189C72.0603 36.7189 73.7786 35.9248 75.0362 34.6021V36.9818C75.0444 37.6919 74.9115 38.3993 74.6459 39.058C74.3803 39.7166 73.9873 40.3183 73.4859 40.8251C72.9872 41.3319 72.3909 41.7358 71.735 42.0095C71.0791 42.286 70.3744 42.4269 69.6643 42.4296C68.5666 42.4296 67.4825 42.0068 66.6233 41.397L64.9049 44.3729C66.2357 45.2321 67.7725 45.7173 69.3526 45.7769C70.9355 45.8365 72.502 45.4652 73.8925 44.709C75.2829 43.9501 76.4402 42.8308 77.2479 41.4675C78.0528 40.1042 78.4784 38.5511 78.4757 36.9683V20.3945H75.0362V21.9936C73.7786 20.671 72.0603 19.8768 69.9706 19.8768V19.8633V19.866ZM65.672 28.2925C65.672 25.4493 67.8402 23.2133 70.3554 23.2133C72.8706 23.2133 75.0254 25.4629 75.0254 28.2925C75.0254 31.1221 72.8571 33.3581 70.3554 33.3581C67.8538 33.3581 65.672 31.1356 65.672 28.2925Z" fill="#E9E9E9"/>
<path d="M90.8303 23.2115C89.8464 23.2278 88.9086 23.6316 88.2202 24.3363C87.5318 25.0383 87.1496 25.9842 87.1523 26.9681V38.2892H83.7129V20.3792H87.1523V22.019C87.6673 21.336 88.334 20.7858 89.1038 20.4117C89.8708 20.0377 90.7164 19.848 91.5702 19.8642C93.977 19.8642 95.8281 21.0541 96.8879 22.8809C97.4787 21.9648 98.2864 21.2113 99.2405 20.6855C100.195 20.1597 101.262 19.8778 102.352 19.8642C106.255 19.8642 108.7 23.011 108.7 26.9139V38.2892H105.287V26.9545C105.29 25.9707 104.908 25.0247 104.219 24.3228C103.531 23.6208 102.593 23.2169 101.609 23.198C100.625 23.2142 99.6877 23.6181 98.9993 24.3228C98.3108 25.0247 97.9287 25.9707 97.9314 26.9545V38.2756H94.4919V26.9545C94.4947 25.9734 94.1125 25.0302 93.4295 24.3282C92.7438 23.6262 91.8114 23.2197 90.8303 23.2007V23.2142V23.2115Z" fill="#E9E9E9"/>
<path fill-rule="evenodd" clip-rule="evenodd" d="M126.993 22.4186C126.212 21.6055 125.272 20.9577 124.234 20.5186C123.196 20.0796 122.076 19.8573 120.949 19.8654C115.842 19.8654 112.219 24.1776 112.219 29.3354C112.219 34.4932 115.842 38.8054 120.949 38.8054C122.076 38.8108 123.193 38.5885 124.234 38.1494C125.272 37.7104 126.212 37.0653 126.993 36.2522V38.2904H130.419V20.3804H126.979V22.4186H126.993ZM115.645 29.3354C115.645 25.9231 118.263 23.2127 121.32 23.2127C124.377 23.2127 126.996 25.9231 126.996 29.3354C126.996 32.7477 124.377 35.4472 121.32 35.4472C118.263 35.4472 115.645 32.7477 115.645 29.3354Z" fill="#E9E9E9"/>
</g>
</svg>
