<svg width="136" height="51" viewBox="0 0 136 51" fill="none" xmlns="http://www.w3.org/2000/svg">
<path fill-rule="evenodd" clip-rule="evenodd" d="M78.7258 15.7829L78.7257 15.7829C77.1765 16.1943 75.6052 16.6115 73.7866 17.0809L73.6773 17.1101C72.7886 17.3488 72.696 17.3737 71.8692 16.4197C70.8774 15.2957 70.1501 14.5684 68.7617 13.9072C64.5963 11.8576 60.5632 12.4527 56.7945 14.899C52.2986 17.8081 49.9845 22.1057 50.0506 27.4612C50.1167 32.7506 53.7532 37.1143 58.9764 37.8416C63.4723 38.4366 67.241 36.8498 70.2163 33.4778C70.6576 32.9384 71.0626 32.3627 71.5121 31.7235C71.6686 31.5009 71.8306 31.2706 72.0014 31.0315H59.2409C57.8524 31.0315 57.5218 30.172 57.9846 29.048C58.8442 26.9984 60.431 23.5603 61.3566 21.8413C61.555 21.4446 62.0178 20.7834 63.0095 20.7834H84.2868C85.2424 17.7559 86.7929 14.8951 88.8611 12.1882C93.6876 5.84101 99.5059 2.53517 107.374 1.14671C114.118 -0.0433932 120.465 0.617774 126.217 4.51867C131.44 8.08898 134.68 12.9155 135.54 19.2627C136.664 28.1885 134.085 35.4614 127.936 41.6764C123.572 46.1062 118.217 48.8831 112.068 50.1393C110.895 50.3565 109.722 50.4596 108.568 50.561C107.966 50.6139 107.368 50.6664 106.779 50.7344C100.762 50.6021 95.2744 48.8831 90.6462 44.9161C87.3912 42.1024 85.149 38.6442 84.0347 34.6184C83.2615 36.1798 82.337 37.6752 81.2578 39.0978C76.4974 45.3789 70.2824 49.2798 62.4145 50.3376C55.935 51.1972 49.9184 49.9409 44.629 45.9739C39.7364 42.2714 36.9595 37.3787 36.2322 31.296C35.3727 24.0892 37.4884 17.6098 41.8521 11.9237C46.5464 5.77487 52.7614 1.87397 60.3648 0.485514C66.5798 -0.638473 72.5303 0.0888134 77.8858 3.72524C81.39 6.03933 83.9025 9.21294 85.5554 13.0477C85.9521 13.6428 85.6876 13.9734 84.8942 14.1717C82.5768 14.7603 80.6687 15.2669 78.7258 15.7829ZM10.2482 15.3617C9.98371 15.3617 9.9176 15.2295 10.0498 15.0311L11.4383 13.246C11.5705 13.0476 11.9011 12.9154 12.1656 12.9154H35.7693C36.0338 12.9154 36.0999 13.1137 35.9676 13.3121L34.8437 15.0311C34.7114 15.2295 34.3808 15.4278 34.1825 15.4278L10.2482 15.3617ZM0.264468 21.4446C5.58794e-07 21.4446 -0.0661171 21.3124 0.0661167 21.114L1.45457 19.3289C1.58681 19.1305 1.91739 18.9983 2.18186 18.9983H32.3312C32.5956 18.9983 32.7279 19.1966 32.6617 19.395L32.1328 20.9818C32.0667 21.2462 31.8022 21.3785 31.5378 21.3785L0.264468 21.4446ZM16.0665 27.1306C15.9343 27.329 16.0004 27.5273 16.2649 27.5273L30.6784 27.5934C30.8767 27.5934 31.1412 27.3951 31.1412 27.1306L31.2734 25.5438C31.2734 25.2793 31.1412 25.081 30.8767 25.081H17.6533C17.3889 25.081 17.1244 25.2793 16.9922 25.4777L16.0665 27.1306ZM122.469 23.316C122.482 23.5381 122.495 23.7722 122.515 24.0231C122.184 29.7092 119.341 33.9407 114.118 36.6515C110.614 38.4366 106.977 38.635 103.341 37.0482C98.5803 34.9324 96.0678 29.7092 97.2579 24.5521C98.7125 18.3371 102.68 14.4362 108.828 13.0477C115.109 11.5932 121.126 15.2957 122.316 21.8413C122.41 22.3094 122.437 22.7775 122.469 23.316Z" fill="#E9E9E9"/>
</svg>
