<svg width="233" height="44" viewBox="0 0 233 44" fill="none" xmlns="http://www.w3.org/2000/svg">
<g clip-path="url('#clip0_4587_5603')">
<path fill-rule="evenodd" clip-rule="evenodd" d="M68.4569 15.2155V17.4482H73.7153C73.5375 18.6982 73.1791 19.5919 72.5569 20.2183C71.7541 21.0229 70.5958 21.8275 68.5458 21.8275C65.3374 21.8275 62.7513 19.2356 62.7513 16.0201C62.7513 12.8045 65.2457 10.2126 68.5458 10.2126C70.3292 10.2126 71.5764 10.9281 72.4681 11.8218L73.9819 10.3045C72.6458 9.05454 70.9513 8.07178 68.4569 8.07178C64.0013 8.07178 60.3457 11.6436 60.3457 16.112C60.3457 20.5804 64.0902 24.1522 68.4569 24.1522C70.8625 24.1522 72.6458 23.3476 74.0708 21.9195C75.4958 20.4913 75.9431 18.4367 75.9431 16.7384C75.9431 16.2011 75.9431 15.7557 75.8542 15.3994H68.4569V15.2212V15.2155Z" fill="#E9E9E9"/>
<path fill-rule="evenodd" clip-rule="evenodd" d="M82.4507 21.7357C80.8451 21.7357 79.509 20.3966 79.509 18.6093C79.509 16.7328 80.8451 15.4828 82.4507 15.4828C84.0564 15.4828 85.3924 16.7328 85.3924 18.6093C85.3924 20.4857 84.0564 21.7357 82.4507 21.7357ZM82.4507 13.4282C79.5979 13.4282 77.2812 15.5719 77.2812 18.6093C77.2812 21.6466 79.5979 23.7903 82.4507 23.7903C85.3036 23.7903 87.6202 21.5575 87.6202 18.6093C87.7091 15.5719 85.3036 13.4282 82.4507 13.4282Z" fill="#E9E9E9"/>
<path fill-rule="evenodd" clip-rule="evenodd" d="M105.357 21.7357C103.751 21.7357 102.593 20.3966 102.593 18.6093C102.593 16.8219 103.751 15.4828 105.357 15.4828C106.871 15.4828 108.121 16.8219 108.121 18.6093C108.121 20.3966 106.874 21.7357 105.357 21.7357ZM107.943 14.5891C107.318 13.9627 106.338 13.4282 105.179 13.4282C102.593 13.4282 100.365 15.661 100.365 18.6093C100.365 21.5575 102.593 23.7903 105.179 23.7903C106.426 23.7903 107.407 23.2529 107.943 22.6294H108.032V23.3449C108.032 25.3104 106.963 26.3822 105.268 26.3822C103.843 26.3822 103.04 25.3995 102.682 24.5058L100.721 25.3104C101.257 26.6495 102.771 28.3478 105.265 28.3478C107.94 28.3478 110.168 26.7386 110.168 22.8995V13.6983H108.029V14.592H107.94L107.943 14.5891Z" fill="#E9E9E9"/>
<path fill-rule="evenodd" clip-rule="evenodd" d="M94.0367 21.7357C92.4311 21.7357 91.095 20.3966 91.095 18.6093C91.095 16.7328 92.4311 15.4828 94.0367 15.4828C95.6423 15.4828 96.9784 16.7328 96.9784 18.6093C96.9784 20.4857 95.6423 21.7357 94.0367 21.7357ZM94.0367 13.4282C91.1839 13.4282 88.8672 15.5719 88.8672 18.6093C88.8672 21.6466 91.1839 23.7903 94.0367 23.7903C96.8895 23.7903 99.2062 21.5575 99.2062 18.6093C99.2951 15.5719 96.8895 13.4282 94.0367 13.4282Z" fill="#E9E9E9"/>
<path fill-rule="evenodd" clip-rule="evenodd" d="M111.863 23.7901H114.091V8.06885H111.863V23.7901Z" fill="#E9E9E9"/>
<path fill-rule="evenodd" clip-rule="evenodd" d="M120.866 15.3937C121.758 15.3937 122.56 15.8391 122.827 16.5546L118.191 18.5201C118.191 16.2873 119.705 15.3937 120.866 15.3937ZM121.044 21.7356C119.885 21.7356 119.082 21.1983 118.549 20.1264L125.502 17.2672L125.235 16.6408C124.791 15.4799 123.452 13.3362 120.78 13.3362C118.108 13.3362 115.877 15.4799 115.877 18.5172C115.877 21.5546 118.105 23.6983 121.046 23.6983C123.452 23.6983 124.791 22.2701 125.324 21.3764L123.541 20.2155C123.005 21.1983 122.205 21.7327 121.046 21.7327L121.044 21.7356Z" fill="#E9E9E9"/>
<path d="M25.7713 42.3275L18.1504 34.6809L34.5219 18.1062L42.2833 25.8849L25.7713 42.3303V42.3275Z" fill="#E9E9E9"/>
<path d="M25.8249 9.3908L18.0635 1.61206L1.60884 18.1034C-0.535801 20.25 -0.535801 23.7299 1.60597 25.8764H1.60884L18.0635 42.3736L25.6758 34.7069L13.2409 22.0029L25.822 9.3908H25.8249Z" fill="#A5A5A5"/>
<path d="M42.2796 18.1034L25.825 1.61207C23.6803 -0.537356 20.2053 -0.537356 18.0636 1.61207C15.9189 3.76149 15.9189 7.24425 18.0636 9.3908L34.5268 25.8822C36.6714 28.0316 40.1464 28.0316 42.2882 25.8822C44.4329 23.7328 44.4329 20.25 42.2882 18.1034H42.2825H42.2796Z" fill="#E9E9E9"/>
<path d="M21.8863 44C24.8902 44 27.3253 41.5594 27.3253 38.5488C27.3253 35.5382 24.8902 33.0977 21.8863 33.0977C18.8824 33.0977 16.4473 35.5382 16.4473 38.5488C16.4473 41.5594 18.8824 44 21.8863 44Z" fill="#A5A5A5"/>
<path d="M137.678 13.3534H134.117V23.362H132.354V13.3534H128.775V11.77H137.678V13.3534Z" fill="#E9E9E9"/>
<path d="M145.881 14.5719V23.3621H144.249V21.9282C143.584 22.9454 142.517 23.5632 141.153 23.5632C138.638 23.5632 136.826 21.5948 136.826 18.9598C136.826 16.3247 138.655 14.4885 141.153 14.4885C142.517 14.4885 143.581 15.0546 144.249 16.0575V14.5719H145.881ZM144.183 18.9598C144.183 17.1926 143.051 15.9397 141.371 15.9397C139.69 15.9397 138.575 17.2414 138.575 18.9598C138.575 20.6782 139.756 21.9943 141.371 21.9943C142.985 21.9943 144.183 20.7443 144.183 18.9598Z" fill="#E9E9E9"/>
<path d="M156.634 14.5718V22.1609C156.634 24.796 154.919 26.5489 152.023 26.5489C149.709 26.5489 148.327 25.5144 147.763 23.8966L149.259 23.3132C149.675 24.4799 150.673 25.0632 152.037 25.0632C153.867 25.0632 154.999 23.9971 154.999 22.3104V21.6092C154.334 22.592 153.267 23.2098 151.903 23.2098C149.391 23.2098 147.576 21.2759 147.576 18.8075C147.576 16.3391 149.405 14.3879 151.903 14.3879C153.267 14.3879 154.331 14.9885 154.999 15.9713V14.569H156.631L156.634 14.5718ZM154.902 18.8908C154.902 17.1897 153.755 15.9397 152.123 15.9397C150.492 15.9397 149.328 17.2241 149.328 18.8908C149.328 20.5575 150.509 21.842 152.106 21.842C153.703 21.842 154.902 20.6092 154.902 18.8908Z" fill="#E9E9E9"/>
<path d="M172.776 23.362L172.142 14.2729L169.063 22.9138H167.598L164.519 14.3074L163.885 23.3649H162.236L163.036 11.7729H164.699V11.7902L165.081 11.7729L168.326 20.8477L171.572 11.7729L171.97 11.7902V11.7729H173.602L174.416 23.3649H172.767L172.776 23.362Z" fill="#E9E9E9"/>
<path d="M184.906 14.5719V23.3621H183.275V21.9282C182.609 22.9454 181.543 23.5632 180.178 23.5632C177.664 23.5632 175.852 21.5948 175.852 18.9598C175.852 16.3247 177.681 14.4885 180.178 14.4885C181.543 14.4885 182.607 15.0546 183.275 16.0575V14.5719H184.906ZM183.209 18.9598C183.209 17.1926 182.076 15.9397 180.396 15.9397C178.716 15.9397 177.601 17.2414 177.601 18.9598C177.601 20.6782 178.782 21.9943 180.396 21.9943C182.01 21.9943 183.209 20.7443 183.209 18.9598Z" fill="#E9E9E9"/>
<path d="M195.173 17.9398V23.3593H193.41V18.2559C193.41 16.8047 192.544 15.9369 191.148 15.9541C189.835 15.9541 188.868 16.9225 188.851 18.0059V23.3593H187.088V14.5691H188.751V15.6869C189.35 14.9196 190.348 14.3679 191.647 14.3679C193.843 14.3679 195.176 15.7846 195.176 17.9369L195.173 17.9398Z" fill="#E9E9E9"/>
<path d="M205.826 14.5719V23.3621H204.195V21.9282C203.529 22.9454 202.463 23.5632 201.098 23.5632C198.584 23.5632 196.771 21.5948 196.771 18.9598C196.771 16.3247 198.601 14.4885 201.098 14.4885C202.463 14.4885 203.527 15.0546 204.195 16.0575V14.5719H205.826ZM204.129 18.9598C204.129 17.1926 202.996 15.9397 201.316 15.9397C199.636 15.9397 198.52 17.2414 198.52 18.9598C198.52 20.6782 199.702 21.9943 201.316 21.9943C202.93 21.9943 204.129 20.7443 204.129 18.9598Z" fill="#E9E9E9"/>
<path d="M216.577 14.5718V22.1609C216.577 24.796 214.862 26.5489 211.966 26.5489C209.653 26.5489 208.271 25.5144 207.706 23.8966L209.203 23.3132C209.618 24.4799 210.616 25.0632 211.981 25.0632C213.81 25.0632 214.943 23.9971 214.943 22.3104V21.6092C214.277 22.592 213.211 23.2098 211.846 23.2098C209.332 23.2098 207.52 21.2759 207.52 18.8075C207.52 16.3391 209.349 14.3879 211.846 14.3879C213.211 14.3879 214.275 14.9885 214.943 15.9713V14.569H216.574L216.577 14.5718ZM214.845 18.8908C214.845 17.1897 213.698 15.9397 212.067 15.9397C210.435 15.9397 209.271 17.2241 209.271 18.8908C209.271 20.5575 210.453 21.842 212.05 21.842C213.647 21.842 214.845 20.6092 214.845 18.8908Z" fill="#E9E9E9"/>
<path d="M222.817 21.9942C224.13 21.9942 224.864 21.5114 225.262 20.5919L226.71 21.5085C226.045 22.6752 224.864 23.5603 222.765 23.5603C220.004 23.5603 218.172 21.5919 218.172 18.9741C218.172 16.3562 220.153 14.3706 222.633 14.3706C225.346 14.3706 227.026 16.5057 227.026 18.7729C227.026 19.0718 227.008 19.3907 226.991 19.5574H219.918C220.185 21.0574 221.331 21.9913 222.814 21.9913L222.817 21.9942ZM225.297 18.2068C225.065 16.7212 224.05 15.8045 222.702 15.8045C221.354 15.8045 220.205 16.6896 219.938 18.2068H225.297Z" fill="#E9E9E9"/>
<path d="M233.001 14.3706V16.0229C231.435 16.0401 230.406 16.9741 230.406 18.2068V23.362H228.643V14.5718H230.306V15.6896C230.888 14.9396 231.854 14.3706 233.001 14.3706Z" fill="#E9E9E9"/>
</g>
<defs>
<clipPath id="clip0_4587_5603">
<rect width="233" height="44" fill="white"/>
</clipPath>
</defs>
</svg>
