<svg width="226" height="22" viewBox="0 0 226 22" fill="none" xmlns="http://www.w3.org/2000/svg">
<path fill-rule="evenodd" clip-rule="evenodd" d="M8.77638 7.71228V10.1228H14.466C14.2736 11.4723 13.8859 12.4371 13.2127 13.1134C12.344 13.982 11.0907 14.8506 8.87257 14.8506C5.40111 14.8506 2.60282 12.0524 2.60282 8.58092C2.60282 5.10947 5.30184 2.3112 8.87257 2.3112C10.8022 2.3112 12.1517 3.08367 13.1165 4.04848L14.7545 2.41047C13.3088 1.06098 11.4754 0 8.77638 0C3.95543 0 0 3.85614 0 8.68019C0 13.5042 4.0516 17.3604 8.77638 17.3604C11.3792 17.3604 13.3088 16.4918 14.8506 14.9499C16.3925 13.4081 16.8764 11.1899 16.8764 9.35649C16.8764 8.77637 16.8765 8.29551 16.7803 7.91083H8.77638V7.71849V7.71228Z" fill="#E9E9E9"/>
<path fill-rule="evenodd" clip-rule="evenodd" d="M23.9176 14.7539C22.1804 14.7539 20.7347 13.3082 20.7347 11.3786C20.7347 9.35278 22.1804 8.00329 23.9176 8.00329C25.6549 8.00329 27.1006 9.35278 27.1006 11.3786C27.1006 13.4044 25.6549 14.7539 23.9176 14.7539ZM23.9176 5.78516C20.8309 5.78516 18.3242 8.09946 18.3242 11.3786C18.3242 14.6577 20.8309 16.972 23.9176 16.972C27.0044 16.972 29.511 14.5615 29.511 11.3786C29.6072 8.09946 27.0044 5.78516 23.9176 5.78516Z" fill="#E9E9E9"/>
<path fill-rule="evenodd" clip-rule="evenodd" d="M48.7038 14.7539C46.9665 14.7539 45.7132 13.3082 45.7132 11.3786C45.7132 9.44896 46.9665 8.00329 48.7038 8.00329C50.3418 8.00329 51.6944 9.44896 51.6944 11.3786C51.6944 13.3082 50.3449 14.7539 48.7038 14.7539ZM51.5021 7.03848C50.8258 6.36218 49.7648 5.78516 48.5114 5.78516C45.7132 5.78516 43.3027 8.19563 43.3027 11.3786C43.3027 14.5615 45.7132 16.972 48.5114 16.972C49.8609 16.972 50.9219 16.3919 51.5021 15.7187H51.5982V16.4911C51.5982 18.6131 50.4411 19.7703 48.6076 19.7703C47.0658 19.7703 46.1972 18.7093 45.8094 17.7445L43.6874 18.6131C44.2675 20.0588 45.9055 21.8922 48.6045 21.8922C51.499 21.8922 53.9094 20.1549 53.9094 16.0103V6.07677H51.5951V7.04158H51.499L51.5021 7.03848Z" fill="#E9E9E9"/>
<path fill-rule="evenodd" clip-rule="evenodd" d="M36.4547 14.7539C34.7174 14.7539 33.2718 13.3082 33.2718 11.3786C33.2718 9.35278 34.7174 8.00329 36.4547 8.00329C38.192 8.00329 39.6377 9.35278 39.6377 11.3786C39.6377 13.4044 38.192 14.7539 36.4547 14.7539ZM36.4547 5.78516C33.3679 5.78516 30.8613 8.09946 30.8613 11.3786C30.8613 14.6577 33.3679 16.972 36.4547 16.972C39.5415 16.972 42.0482 14.5615 42.0482 11.3786C42.1443 8.09946 39.5415 5.78516 36.4547 5.78516Z" fill="#E9E9E9"/>
<path fill-rule="evenodd" clip-rule="evenodd" d="M55.7422 16.9726H58.1527V0H55.7422V16.9726Z" fill="#E9E9E9"/>
<path fill-rule="evenodd" clip-rule="evenodd" d="M65.482 7.90874C66.4468 7.90874 67.3154 8.3896 67.6039 9.16206L62.5875 11.284C62.5875 8.87355 64.2255 7.90874 65.482 7.90874ZM65.6743 14.7555C64.421 14.7555 63.5523 14.1754 62.9753 13.0182L70.4983 9.93143L70.2099 9.25513C69.729 8.00181 68.2802 5.6875 65.3889 5.6875C62.4976 5.6875 60.084 8.00181 60.084 11.2809C60.084 14.56 62.4945 16.8743 65.6774 16.8743C68.2802 16.8743 69.729 15.3325 70.306 14.3677L68.3764 13.1144C67.7963 14.1754 66.9307 14.7524 65.6774 14.7524L65.6743 14.7555Z" fill="#E9E9E9"/>
<path d="M82.9402 16.5847C82.1677 16.5847 81.4945 16.3924 80.722 16.1039C80.0457 15.8154 79.3725 15.3314 78.7924 14.7544C78.2123 14.1743 77.8276 13.4049 77.5391 12.4401L79.2763 11.7638C79.4687 12.6324 79.9526 13.4018 80.6258 13.9819C81.3021 14.562 82.0715 14.8506 82.9402 14.8506C83.5203 14.8506 84.0011 14.7544 84.482 14.5621C84.9628 14.3697 85.3506 14.0812 85.6391 13.6934C85.9276 13.3087 86.12 12.8248 86.12 12.2477C86.12 11.4753 85.8315 10.8983 85.2513 10.5105C84.6712 10.0296 83.9019 9.64183 82.7447 9.25715L81.7799 8.87247C81.1997 8.68012 80.6227 8.3916 80.0426 8.09999C79.4625 7.81148 78.9816 7.32752 78.597 6.84666C78.2123 6.26654 78.0168 5.59334 78.0168 4.82087C78.0168 4.0484 78.2092 3.37521 78.597 2.79508C78.9847 2.21495 79.5617 1.73411 80.2349 1.34942C80.9112 0.964739 81.6806 0.769287 82.6454 0.769287C83.6102 0.769287 84.3827 0.961637 85.0559 1.34942C85.7291 1.73721 86.213 2.12188 86.5977 2.60274C86.9824 3.08359 87.274 3.47138 87.3702 3.85607L85.7322 4.53236C85.636 4.24385 85.4437 3.95224 85.2513 3.66373C85.059 3.37521 84.6712 3.08359 84.2865 2.89125C83.9019 2.69891 83.4179 2.50657 82.7447 2.50657C82.2639 2.50657 81.7799 2.60274 81.299 2.79508C80.9143 2.98742 80.5265 3.27594 80.238 3.66373C79.9495 4.04841 79.8534 4.43619 79.8534 4.82087C79.8534 5.49717 80.1419 5.97802 80.6258 6.36271C81.1067 6.74739 81.783 7.03901 82.6516 7.32752L83.6164 7.7122C84.0973 7.90455 84.4851 8.09689 84.9659 8.29233C85.4468 8.48777 85.9308 8.77319 86.3154 9.16098C86.7001 9.54566 87.0879 9.93345 87.2802 10.5105C87.5688 10.9913 87.6649 11.6676 87.6649 12.3439C87.6649 13.1164 87.4726 13.7896 87.1841 14.3697C86.8955 14.9498 86.5078 15.3345 86.0269 15.7192C85.5461 16.1039 84.9659 16.2993 84.3889 16.4917C84.1004 16.4917 83.5202 16.5878 82.9432 16.5878L82.9402 16.5847ZM95.0918 16.5847C94.0308 16.5847 93.066 16.2962 92.2935 15.8123C91.521 15.3314 90.8479 14.6551 90.3639 13.7865C89.8799 12.9178 89.6876 11.953 89.6876 10.7959C89.6876 9.7349 89.8799 8.77009 90.3639 7.90145C90.8448 7.03281 91.4249 6.35961 92.1974 5.77949C92.9698 5.19936 93.9346 5.00701 94.9956 5.00701C96.0566 5.00701 97.0214 5.19935 97.7939 5.68331C98.5664 6.16416 99.1434 6.84046 99.5312 7.61293C99.9159 8.48157 100.207 9.44639 100.207 10.5074V11.0875H91.6234C91.7196 11.9561 91.912 12.6293 92.2036 13.2095C92.5883 13.7896 93.0722 14.1743 93.5531 14.4628C94.1332 14.7513 94.6141 14.8475 95.1911 14.8475C95.9635 14.8475 96.6367 14.6551 97.1207 14.2673C97.6015 13.8827 98.0855 13.3987 98.374 12.8217L99.9159 13.5941C99.5312 14.4628 98.8549 15.136 98.0824 15.6199C97.2138 16.2962 96.2489 16.5847 95.0918 16.5847ZM94.8994 6.65123C94.0308 6.65123 93.2614 6.93974 92.6813 7.51986C92.1012 8.09999 91.7165 8.77319 91.5242 9.64183H98.0824C98.0824 9.25714 97.9862 8.77318 97.6977 8.3885C97.5054 7.90765 97.1176 7.51987 96.6367 7.23135C96.3482 6.84667 95.6719 6.65123 94.8994 6.65123ZM105.798 16.5847C105.025 16.5847 104.256 16.3924 103.676 16.1039C103.096 15.8154 102.615 15.3314 102.23 14.8506C101.845 14.2704 101.749 13.6934 101.749 13.0171C101.749 12.2446 101.942 11.5715 102.329 10.9913C102.714 10.4112 103.294 10.0265 103.967 9.738C104.644 9.44948 105.413 9.35332 106.282 9.35332C106.958 9.35332 107.631 9.44949 108.211 9.54566C108.791 9.64183 109.176 9.83417 109.369 10.0265V9.35021C109.369 8.48157 109.08 7.90455 108.5 7.42059C107.92 6.93973 107.247 6.74429 106.378 6.74429C105.798 6.74429 105.221 6.84046 104.74 7.12897C104.259 7.41749 103.871 7.7091 103.487 8.18996L102.137 7.12897C102.522 6.45267 103.102 5.97182 103.874 5.58714C104.647 5.20245 105.416 5.00701 106.381 5.00701C107.827 5.00701 108.984 5.3917 109.852 6.16417C110.721 6.93664 111.106 7.99762 111.106 9.34712V16.1939H109.369V14.652H109.272C108.984 15.1329 108.5 15.6168 107.923 16.0015C107.343 16.3862 106.573 16.5816 105.801 16.5816L105.798 16.5847ZM105.894 14.9467C106.474 14.9467 107.051 14.7544 107.631 14.4659C108.112 14.1774 108.596 13.6934 108.885 13.2126C109.173 12.7317 109.365 12.1516 109.365 11.4753C109.077 11.2829 108.593 11.0906 108.112 10.8952C107.631 10.799 107.147 10.7028 106.474 10.7028C105.413 10.7028 104.641 10.8952 104.16 11.3791C103.679 11.7638 103.483 12.3439 103.483 12.9209C103.483 13.498 103.676 13.9819 104.16 14.3666C104.641 14.7513 105.221 14.9467 105.897 14.9467H105.894ZM113.609 16.2001V5.3979H115.347V7.13518H115.443C115.539 6.7505 115.827 6.36271 116.119 6.0742C116.504 5.78569 116.795 5.49407 117.276 5.3979C117.757 5.20556 118.145 5.10939 118.53 5.10939C118.818 5.10939 119.11 5.10939 119.302 5.20556C119.494 5.20556 119.687 5.30173 119.783 5.3979V7.32752C119.302 7.13518 118.818 6.94284 118.241 6.94284C117.76 6.94284 117.276 7.13518 116.795 7.42369C116.315 7.71221 116.023 8.1 115.734 8.58085C115.446 9.0617 115.35 9.64183 115.35 10.2189V16.2931H113.612V16.197L113.609 16.2001ZM125.761 16.5847C124.7 16.5847 123.735 16.2962 122.963 15.8123C122.094 15.3314 121.517 14.6551 121.033 13.7865C120.552 12.9178 120.357 11.953 120.357 10.7959C120.357 9.7349 120.549 8.67392 121.033 7.80528C121.514 6.93664 122.19 6.26344 122.963 5.77949C123.831 5.29863 124.7 5.00701 125.761 5.00701C127.014 5.00701 127.979 5.29553 128.752 5.87566C129.524 6.45578 130.101 7.12898 130.39 7.99762L128.752 8.67391C128.463 7.99762 128.075 7.51676 127.498 7.13208C127.017 6.7474 126.341 6.65123 125.569 6.65123C124.892 6.65123 124.315 6.84357 123.831 7.13208C123.251 7.51676 122.867 8.00072 122.482 8.57774C122.097 9.15787 122.001 9.92724 122.001 10.6997C122.001 11.5683 122.193 12.2415 122.482 12.8217C122.867 13.4018 123.254 13.8827 123.831 14.2673C124.411 14.652 124.989 14.7482 125.569 14.7482C126.341 14.7482 127.014 14.5558 127.498 14.1681C128.078 13.7834 128.463 13.2994 128.752 12.6262L130.39 13.3025C130.005 14.1712 129.425 14.8444 128.652 15.4245C127.976 16.2931 127.014 16.5816 125.758 16.5816L125.761 16.5847ZM132.512 16.2001V0.961637H134.345V5.3979L134.249 6.84357H134.345C134.634 6.26344 135.117 5.87876 135.694 5.49407C136.371 5.10939 137.044 4.91395 137.816 4.91395C139.166 4.91395 140.227 5.29863 140.903 6.16727C141.58 6.93974 141.868 8.00072 141.868 9.15787V16.1008H140.035V9.44638C140.035 8.3854 139.746 7.7091 139.262 7.22825C138.781 6.74739 138.105 6.55195 137.429 6.55195C136.849 6.55195 136.272 6.74429 135.887 7.0328C135.502 7.32132 135.018 7.80527 134.826 8.3823C134.537 8.96243 134.441 9.44328 134.441 10.0203V15.9984H132.512V16.1908V16.2001ZM156.43 16.5847C155.273 16.5847 154.308 16.3924 153.343 16.0046C152.379 15.6199 151.606 15.0398 150.837 14.3666C150.16 13.6903 149.583 12.8248 149.199 11.86C148.814 10.8951 148.619 9.83417 148.619 8.67702C148.619 7.51987 148.811 6.45888 149.199 5.49407C149.583 4.52926 150.164 3.66063 150.837 2.98743C151.513 2.31113 152.379 1.73411 153.343 1.34942C154.308 0.964739 155.369 0.769287 156.43 0.769287C157.587 0.769287 158.648 0.961636 159.613 1.44559C160.578 1.83028 161.35 2.50657 162.024 3.27904L160.77 4.53236C159.613 3.18287 158.264 2.50657 156.526 2.50657C155.465 2.50657 154.404 2.79508 153.536 3.27904C152.571 3.75989 151.898 4.53237 151.318 5.40101C150.737 6.36582 150.449 7.42679 150.449 8.68012C150.449 9.93344 150.737 10.9944 151.318 11.9592C151.898 12.924 152.571 13.5972 153.536 14.0812C154.501 14.5621 155.465 14.8537 156.526 14.8537C157.491 14.8537 158.36 14.6613 159.129 14.2735C159.902 13.8889 160.575 13.3087 161.155 12.6355L162.504 13.8889C161.828 14.6613 160.963 15.3345 159.998 15.8185C158.841 16.2993 157.683 16.5909 156.43 16.5909V16.5847ZM169.258 16.5847C168.197 16.5847 167.232 16.2962 166.364 15.8123C165.495 15.3314 164.918 14.6551 164.434 13.7865C163.953 12.9178 163.758 11.953 163.758 10.892C163.758 9.83107 163.95 8.86626 164.434 7.99762C164.915 7.12898 165.591 6.45578 166.364 5.87566C167.232 5.3948 168.197 5.10318 169.258 5.10318C170.319 5.10318 171.284 5.3917 172.153 5.87566C173.021 6.35651 173.598 7.03281 174.082 7.99762C174.563 8.86626 174.758 9.83107 174.758 10.892C174.758 11.953 174.566 12.9178 174.082 13.7865C173.598 14.6551 172.925 15.3283 172.153 15.8123C171.284 16.2931 170.319 16.5847 169.258 16.5847ZM169.258 14.9467C169.934 14.9467 170.511 14.7544 171.092 14.4659C171.672 14.1774 172.153 13.6934 172.537 13.0202C172.922 12.4401 173.117 11.6707 173.117 10.8021C173.117 9.93344 172.925 9.16407 172.537 8.58395C172.153 8.00382 171.765 7.52296 171.092 7.13828C170.511 6.84977 169.934 6.65743 169.258 6.65743C168.582 6.65743 168.005 6.84977 167.425 7.13828C166.845 7.42679 166.364 7.91075 165.979 8.58395C165.594 9.16407 165.399 9.93344 165.399 10.8021C165.399 11.6707 165.591 12.4401 165.979 13.0202C166.364 13.6003 166.848 14.0812 167.425 14.4659C168.005 14.7544 168.582 14.9467 169.258 14.9467ZM176.685 16.2001V5.3979H178.422V7.03591H178.518C178.807 6.55505 179.291 6.0711 179.868 5.68641C180.544 5.30173 181.217 5.10629 181.99 5.10629C183.339 5.10629 184.304 5.49097 184.981 6.26344C185.657 7.03591 186.042 8.00072 186.042 9.35021V16.2931H184.208V9.63872C184.208 8.57774 183.92 7.90144 183.436 7.42059C182.955 6.93973 182.278 6.74429 181.506 6.74429C180.926 6.74429 180.349 6.93663 179.964 7.22514C179.483 7.51366 179.192 7.99761 178.903 8.47847C178.615 8.95932 178.518 9.53945 178.518 10.1165V16.1908H176.685V16.2001ZM192.308 16.5847C191.055 16.5847 190.09 16.2962 189.318 15.7161C188.545 15.136 188.064 14.4628 187.776 13.6903L189.414 13.014C189.702 13.6903 190.09 14.1712 190.667 14.5558C191.247 14.9405 191.824 15.0367 192.5 15.0367C193.177 15.0367 193.754 14.9405 194.138 14.652C194.619 14.3635 194.815 13.9757 194.815 13.4949C194.815 13.014 194.622 12.6262 194.138 12.3377C193.754 12.0492 193.174 11.8569 192.401 11.6614L191.052 11.2767C190.571 11.1806 190.087 10.892 189.606 10.6966C189.125 10.4081 188.834 10.1165 188.545 9.7318C188.257 9.34711 188.16 8.86315 188.16 8.28613C188.16 7.60983 188.353 7.03281 188.74 6.64812C189.125 6.16727 189.609 5.77948 190.282 5.58714C190.862 5.29862 191.536 5.20246 192.308 5.20246C193.273 5.20246 194.045 5.3948 194.815 5.78258C195.587 6.16727 196.068 6.7474 196.453 7.51986L194.911 8.19616C194.622 7.61603 194.235 7.32753 193.85 7.03901C193.369 6.84667 192.885 6.75049 192.308 6.75049C191.731 6.75049 191.151 6.84667 190.766 7.13518C190.285 7.4237 190.09 7.71531 190.09 8.19616C190.09 8.67701 190.282 8.96863 190.67 9.25715C191.055 9.44949 191.443 9.64183 192.02 9.83727L193.561 10.222C195.683 10.8021 196.744 11.86 196.744 13.4049C196.744 14.0812 196.552 14.6582 196.164 15.1422C195.78 15.623 195.296 16.0108 194.622 16.2993C193.754 16.3955 193.081 16.5878 192.308 16.5878V16.5847ZM203.591 16.5847C202.53 16.5847 201.565 16.2962 200.697 15.8123C199.828 15.3314 199.251 14.6551 198.767 13.7865C198.286 12.9178 198.091 11.953 198.091 10.892C198.091 9.83107 198.283 8.86626 198.767 7.99762C199.248 7.12898 199.924 6.45578 200.697 5.87566C201.565 5.3948 202.53 5.10318 203.591 5.10318C204.652 5.10318 205.617 5.3917 206.486 5.87566C207.354 6.35651 207.931 7.03281 208.415 7.99762C208.896 8.86626 209.091 9.83107 209.091 10.892C209.091 11.953 208.899 12.9178 208.415 13.7865C207.931 14.6551 207.258 15.3283 206.486 15.8123C205.713 16.2931 204.748 16.5847 203.591 16.5847ZM203.591 14.9467C204.267 14.9467 204.844 14.7544 205.425 14.4659C206.005 14.1774 206.486 13.6934 206.87 13.0202C207.255 12.4401 207.45 11.6707 207.45 10.8021C207.45 9.93344 207.258 9.16407 206.87 8.58395C206.486 8.00382 206.002 7.52296 205.425 7.13828C204.844 6.84977 204.267 6.65743 203.591 6.65743C202.915 6.65743 202.338 6.84977 201.758 7.13828C201.178 7.42679 200.697 7.91075 200.312 8.58395C199.927 9.16407 199.831 9.93344 199.831 10.8021C199.831 11.6707 200.024 12.4401 200.312 13.0202C200.697 13.6003 201.181 14.0812 201.758 14.4659C202.338 14.7544 203.011 14.9467 203.591 14.9467ZM211.21 16.2001V0.961637H213.044V16.2001H211.21ZM220.371 16.5847C219.31 16.5847 218.346 16.2962 217.573 15.8123C216.801 15.3314 216.127 14.6551 215.643 13.7865C215.163 12.9178 214.967 11.953 214.967 10.7959C214.967 9.7349 215.16 8.77009 215.643 7.90145C216.124 7.03281 216.705 6.35961 217.477 5.77949C218.249 5.19936 219.214 5.00701 220.275 5.00701C221.336 5.00701 222.301 5.19935 223.073 5.68331C223.846 6.16416 224.423 6.84046 224.811 7.61293C225.195 8.48157 225.487 9.44639 225.487 10.5074V11.0875H216.903C216.999 11.9561 217.192 12.6293 217.483 13.2095C217.868 13.7896 218.352 14.1743 218.833 14.4628C219.413 14.7513 219.894 14.8475 220.471 14.8475C221.243 14.8475 221.916 14.6551 222.4 14.2673C222.881 13.8827 223.365 13.3987 223.654 12.8217L225.195 13.5941C224.811 14.4628 224.134 15.136 223.362 15.6199C222.493 16.2962 221.529 16.5847 220.371 16.5847ZM220.179 6.65123C219.31 6.65123 218.541 6.93974 217.961 7.51986C217.381 8.09999 216.996 8.77319 216.804 9.64183H223.362C223.362 9.25714 223.266 8.77318 222.977 8.3885C222.785 7.90765 222.397 7.51987 221.916 7.23135C221.628 6.84667 221.048 6.65123 220.179 6.65123Z" fill="#E9E9E9"/>
</svg>
