<svg width="87" height="103" viewBox="0 0 87 103" fill="none" xmlns="http://www.w3.org/2000/svg">
<path d="M31.7655 8.43773C32.4715 6.57519 33.4435 4.86441 34.8876 3.47555C40.6595 -2.16725 50.1999 -0.746213 54.1151 6.34063C57.0584 11.7167 60.1804 16.9732 63.2154 22.2895C68.2813 31.1193 73.4022 39.9537 78.4085 48.8111C82.6171 56.2245 78.0555 65.5878 69.6933 66.8571C64.5678 67.6251 59.7724 65.2613 57.1226 60.6532C52.6756 52.8857 48.2011 45.1182 43.7541 37.3783C43.667 37.199 43.5478 37.0518 43.4286 36.9047C42.9564 36.523 42.7501 35.9573 42.4567 35.456C40.4853 31.9701 38.4544 28.5163 36.4784 25.058C35.2131 22.8138 33.8882 20.5971 32.6228 18.3529C31.4767 16.3432 30.9449 14.1587 31.0045 11.8547C31.0916 10.6728 31.2383 9.49086 31.7701 8.42852" fill="#D3D3D3"/>
<path d="M32.1618 8.00929C31.8932 9.08136 31.657 10.1534 31.5968 11.2858C31.5088 13.7873 32.134 16.1125 33.3799 18.2891C36.6498 23.9233 39.9243 29.5853 43.1663 35.2473C43.4627 35.7532 43.7036 36.2591 44 36.7371C42.2169 39.8373 40.4291 42.905 38.6182 46.0052C36.1218 50.326 33.6208 54.6792 31.0919 59C30.9715 59 30.9437 58.9397 30.9113 58.8515C30.8835 58.6148 30.9715 58.406 31.0317 58.1646C32.2498 53.6953 31.2402 49.7273 28.1741 46.3301C26.2983 44.2741 23.9224 43.1092 21.1851 42.724C17.6142 42.2181 14.4648 43.1417 11.6349 45.3787C11.1301 45.7639 10.8013 46.3347 10.2084 46.6317C10.088 46.6317 10.0278 46.5714 10 46.4832C11.4265 44.0096 12.8252 41.5359 14.2517 39.0623C20.143 28.8103 26.0297 18.5536 31.9488 8.32951C32.009 8.20884 32.097 8.12067 32.1572 8" fill="#E7E7E7"/>
<path d="M10.0143 46.2007C10.5646 45.6883 11.0878 45.1431 11.6651 44.6589C18.7058 38.8633 29.2781 43.0608 30.8117 52.2359C31.186 54.4404 30.9876 56.5509 30.3471 58.6661C30.32 58.8494 30.2885 58.9998 30.2298 59.1784C29.9682 59.6626 29.7382 60.1749 29.4495 60.659C26.8696 65.0962 23.0764 67.3007 18.0924 66.967C12.3868 66.544 7.89446 62.0786 7.11417 56.1608C6.73981 53.2935 7.29007 50.6049 8.70633 48.1325C8.99499 47.5873 9.34229 47.1078 9.66253 46.5626C9.80686 46.4404 9.74823 46.2007 10.0098 46.2007" fill="#A5A5A5"/>
<path d="M4.08536 48.7634C3.94502 48.9037 3.94502 49.1466 3.70212 49.179C3.66974 48.9361 3.80468 48.7958 3.94502 48.623L4.08536 48.7634Z" fill="#E9E9E9"/>
<path d="M28.2847 63.6665C28.1444 63.4236 28.2847 63.2508 28.425 63.0781C28.4574 63.1105 28.5276 63.1807 28.5654 63.2185L28.2901 63.6665" fill="#E9E9E9"/>
<path d="M7.17343 84.2578C3.25476 84.2578 0 87.41 0 91.2963C0 95.1826 3.26016 98.297 7.17343 98.297C9.2893 98.297 10.8492 97.6061 12.0961 96.3215C13.3807 95.0369 13.7585 93.2718 13.7585 91.8469C13.7585 91.3989 13.7261 90.9778 13.656 90.6324H7.17343V92.5378H11.783C11.6427 93.6119 11.2972 94.4107 10.7413 94.9667C10.0828 95.6252 9.00862 96.3863 7.16804 96.3863C4.32349 96.3863 2.10507 94.0977 2.10507 91.2909C2.10507 88.4842 4.32349 86.1956 7.16804 86.1956C8.69556 86.1956 9.83986 86.7839 10.6333 87.5828L11.9827 86.2334C10.8384 85.1214 9.31089 84.2578 7.16264 84.2578H7.17343ZM18.924 89.283C16.4627 89.283 14.417 91.1884 14.417 93.8602C14.417 96.532 16.4303 98.4374 18.924 98.4374C21.4177 98.4374 23.4311 96.4942 23.4311 93.8602C23.4311 91.2262 21.3854 89.283 18.924 89.283ZM18.924 96.6345C17.5746 96.6345 16.3926 95.4903 16.3926 93.8602C16.3926 92.2301 17.5692 91.0858 18.924 91.0858C20.2788 91.0858 21.4555 92.1977 21.4555 93.8602C21.4555 95.4903 20.2788 96.6345 18.924 96.6345ZM28.6991 89.283C26.2054 89.283 24.1921 91.1884 24.1921 93.8602C24.1921 96.532 26.2054 98.4374 28.6991 98.4374C31.1928 98.4374 33.2061 96.4942 33.2061 93.8602C33.2061 91.2262 31.1928 89.283 28.6991 89.283ZM28.6991 96.6345C27.3497 96.6345 26.1676 95.4903 26.1676 93.8602C26.1676 92.2301 27.3443 91.0858 28.6991 91.0858C30.0539 91.0858 31.2306 92.1977 31.2306 93.8602C31.2306 95.4903 30.0863 96.6345 28.6991 96.6345ZM38.4418 89.283C36.191 89.283 34.1453 91.2585 34.1453 93.8224C34.1453 96.3863 36.191 98.3294 38.4418 98.3294C39.516 98.3294 40.3472 97.8436 40.8006 97.2877H40.8708V97.9462C40.8708 99.6788 39.9694 100.618 38.4796 100.618C37.2652 100.618 36.5365 99.749 36.2288 99.0257L34.4962 99.7544C34.982 100.969 36.299 102.426 38.485 102.426C40.806 102.426 42.7491 101.039 42.7491 97.7141V89.6015H40.8762V90.3301H40.806C40.358 89.7742 39.5214 89.2884 38.4472 89.2884M38.62 96.5698C37.2705 96.5698 36.1263 95.4255 36.1263 93.8332C36.1263 92.2409 37.2705 91.0588 38.62 91.0588C39.9694 91.0588 41.0111 92.2355 41.0111 93.8332C41.0111 95.4309 39.9694 96.5698 38.62 96.5698ZM44.2011 84.8192H46.1766V98.1999H44.2011V84.8192ZM51.4825 89.2938C49.1237 89.2938 47.1482 91.129 47.1482 93.871C47.1482 96.4348 49.0913 98.4482 51.6876 98.4482C53.8035 98.4482 55.0179 97.1635 55.4983 96.4348L53.9384 95.3931C53.4202 96.1542 52.6915 96.6399 51.6876 96.6399C50.6836 96.6399 49.9172 96.1919 49.4692 95.2528L55.6063 92.7213L55.3958 92.2031C55.0125 91.1992 53.8358 89.2938 51.4771 89.2938M49.1183 93.7307C49.0482 91.9602 50.5055 91.0588 51.5095 91.0588C52.3083 91.0588 52.9992 91.4421 53.2097 92.0304L49.1183 93.7307Z" fill="#E9E9E9"/>
<path d="M59.0664 97.9885L63.6436 85.8223H65.414L69.9912 97.9885H68.2585L67.0819 94.696H61.9865L60.8098 97.9885H59.0772H59.0664ZM62.4993 93.2386H66.5529L64.5774 87.76H64.5072L62.4939 93.2386H62.4993Z" fill="#E9E9E9"/>
<path d="M71.5838 96.9791C70.8227 96.1101 70.4395 95.0738 70.4395 93.8269C70.4395 92.5801 70.8227 91.5761 71.5838 90.6747C72.3826 89.8057 73.284 89.3901 74.3905 89.3901C75.0166 89.3901 75.5672 89.5304 76.053 89.7733C76.5712 90.0486 76.9544 90.3617 77.2297 90.8151H77.2998L77.2297 89.6708V85.8223H78.7896V97.9885H77.2998V96.8442H77.2297C76.9544 97.2598 76.5712 97.6053 76.053 97.8859C75.5348 98.1666 74.9789 98.2692 74.3905 98.2692C73.2786 98.2692 72.3448 97.8536 71.5838 96.9845M76.5064 96.013C77.0245 95.457 77.2674 94.7283 77.2674 93.8269C77.2674 92.9255 77.0245 92.2346 76.5064 91.6787C76.0206 91.1227 75.3945 90.8474 74.6334 90.8474C73.8723 90.8474 73.2462 91.1227 72.7604 91.6787C72.2423 92.2346 71.9994 92.9633 71.9994 93.8269C71.9994 94.6906 72.2423 95.4192 72.7604 95.9752C73.2786 96.5311 73.9047 96.8064 74.6334 96.8064C75.3945 96.8388 76.0206 96.5635 76.5064 96.0076" fill="#E9E9E9"/>
<path d="M86 97.5037C85.3739 97.9895 84.5804 98.2648 83.6088 98.2648C82.7776 98.2648 82.0489 98.0543 81.3904 97.6063C80.7643 97.1583 80.3163 96.6023 80.041 95.8736L81.4282 95.2853C81.6387 95.7711 81.914 96.1867 82.3296 96.462C82.7128 96.7373 83.1608 96.8776 83.6142 96.8776C84.1 96.8776 84.5156 96.775 84.8611 96.5645C85.2065 96.354 85.3469 96.0787 85.3469 95.8035C85.3469 95.2853 84.9313 94.8697 84.1324 94.6268L82.7128 94.2813C81.0828 93.8657 80.2839 93.1046 80.2839 91.9226C80.2839 91.1615 80.597 90.5732 81.2177 90.0874C81.8438 89.6394 82.6373 89.3965 83.5765 89.3965C84.3051 89.3965 84.9636 89.5692 85.5898 89.9147C86.1781 90.2601 86.5937 90.7459 86.8366 91.3342L85.4494 91.9226C85.2767 91.5771 85.0338 91.2965 84.6884 91.0913C84.3429 90.8862 83.9273 90.7783 83.4739 90.7783C83.0583 90.7783 82.7128 90.8808 82.362 91.0913C82.0489 91.3019 81.8762 91.5393 81.8762 91.8524C81.8762 92.3382 82.3242 92.6836 83.2256 92.8563L84.4725 93.1694C86.1349 93.585 86.9338 94.4163 86.9338 95.6631C86.9662 96.3918 86.6207 97.0125 86 97.4983" fill="#E9E9E9"/>
</svg>
