<svg width="220" height="43" viewBox="0 0 220 43" fill="none" xmlns="http://www.w3.org/2000/svg">
<path d="M26.7284 21.2746C26.7284 15.9799 26.7255 10.6823 26.7284 5.38768C26.7284 3.86136 27.2372 2.52189 28.3553 1.47273C30.0024 -0.0737089 32.3364 -0.507748 34.4318 0.679385C35.846 1.48135 36.6825 2.73171 36.9556 4.33563C37.0389 4.83003 37.0734 5.33881 37.0734 5.83896C37.0792 16.2357 37.0792 26.6353 37.0763 37.0321C37.0763 38.0295 36.9383 39.0068 36.5302 39.9266C35.8662 41.4299 34.7279 42.3785 33.1326 42.7522C32.1927 42.9706 31.247 42.9534 30.3185 42.6544C28.7951 42.16 27.7747 41.131 27.1854 39.6679C26.8578 38.8516 26.7227 37.9893 26.7227 37.1068C26.7227 31.8294 26.7227 26.5548 26.7227 21.2774L26.7284 21.2746Z" fill="#E9E9E9"/>
<path d="M23.694 29.4835C23.694 32.1222 23.7084 34.758 23.6882 37.3967C23.6796 38.6385 23.3979 39.8256 22.6448 40.846C21.702 42.1251 20.4344 42.8207 18.8362 42.8754C18.2958 42.8926 17.7526 42.907 17.2208 42.7489C15.2605 42.1654 14.0503 40.8662 13.5703 38.8972C13.4295 38.3194 13.3576 37.71 13.3576 37.115C13.3404 31.9382 13.3461 26.7585 13.349 21.5817C13.349 20.1589 13.8463 18.9056 14.8437 17.9025C17.2208 15.5081 20.4402 16.0628 22.1476 17.7961C23.1737 18.8395 23.6681 20.0899 23.6854 21.5127C23.7199 24.1687 23.6969 26.8275 23.6969 29.4835H23.694Z" fill="#E9E9E9"/>
<path d="M74.1897 16.3224C73.8908 16.7392 72.9163 17.7136 72.4995 18.0068C72.3587 17.909 72.2006 17.8084 72.0511 17.6935C71.2808 17.1186 70.4386 16.6903 69.4872 16.4977C67.271 16.0493 65.3451 16.6127 63.701 18.1591C62.6144 19.1795 61.9418 20.4357 61.732 21.8987C61.4187 24.0718 61.9389 26.0149 63.4854 27.6361C64.4569 28.6536 65.6326 29.3118 67.018 29.5102C69.3636 29.8494 71.4101 29.2429 72.9767 27.3831C73.5516 26.7019 73.8448 25.8769 73.9712 24.9973C73.9799 24.9427 73.954 24.8853 73.9425 24.8249C73.7614 24.6553 73.5372 24.7185 73.3331 24.7157C71.8212 24.7099 70.3064 24.7157 68.7944 24.7099C68.5846 24.7099 68.3748 24.6927 68.1621 24.684C67.9695 24.2184 68.0643 23.77 68.0586 23.3331C68.0528 22.8933 67.9953 22.4449 68.1247 21.9706C68.2742 21.9476 68.4236 21.9074 68.5702 21.9074C71.0336 21.9045 73.497 21.9045 75.9632 21.9074C76.0408 21.9074 76.1184 21.9102 76.196 21.916C76.3944 21.9275 76.5237 22.0281 76.5668 22.2236C76.6071 22.4133 76.6588 22.603 76.6646 22.7956C76.7364 24.5518 76.5036 26.2535 75.5982 27.7884C74.5116 29.628 72.9824 30.9503 70.8927 31.5338C68.4552 32.2179 66.0781 32.0224 63.8332 30.841C61.5135 29.6223 59.9125 27.7539 59.1824 25.2158C58.4695 22.7352 58.8231 20.3782 60.1712 18.1764C61.0651 16.719 62.2753 15.5923 63.7814 14.7961C65.0663 14.1177 66.4374 13.7469 67.9091 13.7239C69.3578 13.7009 70.7203 13.9941 71.9994 14.6696C72.7755 15.0777 73.4797 15.5923 74.1236 16.1844C74.1495 16.2074 74.1581 16.2505 74.1897 16.3224Z" fill="#E9E9E9"/>
<path d="M111.219 30.2216C111.084 30.3164 111.018 30.3509 110.966 30.4026C109.75 31.5955 107.721 31.9175 106.036 31.1241C104.056 30.1899 102.929 28.6291 102.607 26.4704C102.199 23.734 103.961 20.6239 107.014 19.9915C108.402 19.7041 109.716 19.911 110.857 20.8308C111.003 20.9487 111.164 21.0522 111.351 21.1815C111.57 20.782 111.365 20.3681 111.538 19.9915C111.883 19.7961 112.28 19.911 112.656 19.8967C113.041 19.8823 113.429 19.8708 113.835 19.9254C113.872 20.0806 113.921 20.2071 113.927 20.3365C113.938 20.6843 113.932 21.0349 113.932 21.3827C113.932 24.2916 113.95 27.2006 113.924 30.1095C113.915 31.1529 113.86 32.202 113.498 33.2052C113.061 34.4153 112.337 35.3869 111.19 36.0135C110.446 36.4188 109.635 36.6171 108.799 36.6775C106.945 36.8126 105.364 36.209 104.105 34.8292C103.699 34.3866 103.346 33.9008 103.148 33.3317C103.455 33.0385 104.424 32.6217 105.3 32.4004C105.378 32.5096 105.47 32.6274 105.548 32.7568C105.801 33.1793 106.123 33.5415 106.519 33.8261C107.35 34.4211 108.284 34.5159 109.241 34.2544C110.196 33.9928 110.791 33.3288 111.072 32.3889C111.274 31.7134 111.299 31.0178 111.222 30.2273L111.219 30.2216ZM105.329 26.0048C105.367 26.2347 105.392 26.5854 105.482 26.9189C105.712 27.7639 106.125 28.4969 106.887 28.9798C107.442 29.3305 108.043 29.526 108.707 29.4254C109.79 29.2615 110.549 28.6349 111.021 27.6806C111.524 26.663 111.558 25.5909 111.199 24.5187C110.946 23.7628 110.489 23.1591 109.805 22.7193C108.997 22.1991 107.442 22.202 106.557 23.0327C105.723 23.8174 105.395 24.7889 105.326 26.0077L105.329 26.0048Z" fill="#E9E9E9"/>
<path d="M5.17136 42.8793C2.49241 43.0374 -0.0313246 40.5482 0.000293994 37.7255C0.0319125 34.9575 2.35731 32.6004 5.111 32.5918C7.96529 32.5832 10.3079 34.8885 10.3137 37.7514C10.3194 40.8471 7.64623 43.0202 5.17424 42.8793H5.17136Z" fill="#E9E9E9"/>
<path d="M149.014 31.4898C148.804 31.5243 148.672 31.5588 148.542 31.5617C148.117 31.5703 147.689 31.5703 147.263 31.5617C146.824 31.5531 146.798 31.533 146.642 31.1018C146.286 30.1159 145.932 29.13 145.579 28.144C145.214 27.1265 145.312 27.276 144.369 27.2702C142.739 27.2616 141.109 27.2702 139.479 27.2702C139.402 27.2702 139.324 27.2702 139.247 27.2702C138.856 27.274 138.594 27.4599 138.462 27.8278C138.082 28.8856 137.703 29.9463 137.324 31.0041C137.283 31.1133 137.26 31.234 137.194 31.326C137.134 31.4151 137.03 31.5272 136.941 31.533C136.289 31.579 135.633 31.5905 135.01 31.533C134.866 31.3059 134.978 31.1449 135.036 30.9926C135.352 30.1389 135.679 29.288 136.004 28.4343C136.826 26.2785 137.646 24.1198 138.468 21.964C139.206 20.0238 139.948 18.0865 140.672 16.1433C140.787 15.8329 140.968 15.7237 141.282 15.7352C141.727 15.7496 142.176 15.7496 142.621 15.7352C142.963 15.7237 143.156 15.8617 143.271 16.1865C143.578 17.043 143.912 17.8939 144.234 18.7447C145.254 21.4265 146.275 24.1112 147.295 26.793C147.827 28.19 148.356 29.5841 148.882 30.9839C148.933 31.1248 148.959 31.2743 149.017 31.4927L149.014 31.4898ZM139.454 25.3214C140.069 25.3932 140.629 25.3501 141.184 25.3587C141.727 25.3645 142.268 25.3702 142.811 25.3587C143.363 25.3443 143.92 25.422 144.507 25.2984C144.464 25.1518 144.441 25.0425 144.4 24.9391C144.28 24.6114 144.15 24.2894 144.027 23.9618C143.36 22.2055 142.696 20.4521 142.026 18.6958C141.997 18.6182 141.931 18.555 141.831 18.4084C141.034 20.6476 140.267 22.7947 139.502 24.9448C139.471 25.031 139.477 25.1288 139.451 25.3214H139.454Z" fill="#E9E9E9"/>
<path d="M101.743 25.8226C101.812 26.8316 101.551 27.898 100.961 28.8667C99.8891 30.6373 98.3024 31.583 96.23 31.7008C94.9077 31.7756 93.6919 31.4709 92.5852 30.735C91.3234 29.8957 90.5674 28.7114 90.2397 27.2512C89.7827 25.219 90.2397 23.3938 91.6137 21.833C92.2489 21.1086 93.0767 20.6171 94.0023 20.3354C95.9799 19.7347 97.8511 19.9761 99.5413 21.1862C100.93 22.1808 101.694 23.5461 101.74 25.2823C101.743 25.4174 101.74 25.5553 101.74 25.8198L101.743 25.8226ZM92.7376 25.8342C92.7174 26.9696 93.1227 27.9095 93.9736 28.6683C95.3677 29.9158 97.3797 29.5536 98.3484 28.2487C99.3717 26.8689 99.4292 25.357 98.6071 23.8738C97.6959 22.2354 95.6034 21.9192 94.2725 22.8591C93.2463 23.5835 92.7577 24.5867 92.7404 25.8313L92.7376 25.8342Z" fill="#E9E9E9"/>
<path d="M83.224 31.7059C81.7867 31.7317 80.5191 31.2575 79.4182 30.3549C78.622 29.7024 78.073 28.8545 77.7654 27.8743C77.3257 26.4859 77.3084 25.0861 77.8344 23.7121C78.6076 21.6914 80.111 20.5359 82.2093 20.1364C83.7845 19.8374 85.2504 20.1479 86.6014 21.0102C87.8403 21.8035 88.5732 22.9504 88.9412 24.3531C89.3148 25.7788 89.1596 27.1557 88.533 28.4837C87.5844 30.4929 85.4315 31.795 83.2268 31.703L83.224 31.7059ZM86.4663 25.8881C86.4663 24.8418 86.2565 24.2008 85.673 23.4563C84.8164 22.3612 83.2584 22.1082 82.1978 22.5451C81.5165 22.8268 80.979 23.3068 80.6111 23.9478C79.9385 25.1235 79.8724 26.348 80.4731 27.5696C81.0164 28.6762 81.9132 29.369 83.1607 29.4322C84.3823 29.4954 85.3251 28.9292 85.9776 27.8915C86.3628 27.2793 86.4864 26.6009 86.4663 25.8881Z" fill="#E9E9E9"/>
<path d="M128.156 27.7792C128.636 27.9775 129.809 28.7536 130.206 29.1302C130.16 29.3343 130.016 29.4924 129.875 29.6447C128.907 30.6737 127.765 31.4153 126.348 31.6367C123.336 32.1052 120.74 30.53 119.766 27.7763C119.599 27.3021 119.51 26.8048 119.501 26.2931C119.484 25.4366 119.524 24.5972 119.798 23.7694C120.577 21.4296 122.724 19.9666 125.121 20.0355C126.311 20.07 127.346 20.5127 128.225 21.3118C128.984 22.0016 129.559 22.818 129.927 23.778C130.016 24.0108 130.125 24.2351 130.243 24.5052C129.614 24.876 128.947 25.0859 128.317 25.3647C127.679 25.6464 127.03 25.8993 126.383 26.1638C125.756 26.4225 125.127 26.6783 124.5 26.937C123.856 27.2014 123.215 27.4716 122.574 27.7361C122.741 28.3972 123.606 29.1244 124.431 29.3285C126.032 29.7223 127.231 29.1101 128.153 27.7849L128.156 27.7792ZM127.216 23.5826C127.067 23.1715 126.88 22.9473 126.509 22.7145C125.819 22.2833 125.075 22.2488 124.322 22.4644C123.195 22.7892 122.534 23.5883 122.247 24.6978C122.163 25.0255 122.037 25.3647 122.143 25.7211C122.686 25.6234 126.788 23.8901 127.216 23.5826Z" fill="#E9E9E9"/>
<path d="M171.094 31.514C170.43 31.5974 169.841 31.5772 169.254 31.537C169.033 31.0771 169.22 30.6143 169.085 30.1314C168.975 30.2148 168.878 30.2665 168.814 30.347C167.751 31.6261 166.371 32.0429 164.759 31.8503C164.011 31.7612 163.339 31.491 162.718 31.0685C161.536 30.2608 161.007 28.5792 161.482 27.1823C161.815 26.2021 162.488 25.5295 163.39 25.0897C164.477 24.5608 165.629 24.374 166.84 24.5119C167.535 24.5895 168.216 24.7017 168.872 24.9948C169.039 24.8425 168.998 24.6643 168.978 24.5004C168.84 23.4657 168.081 22.6292 167.052 22.4165C166.538 22.3101 166.009 22.313 165.492 22.4165C164.833 22.5487 164.319 22.908 163.942 23.4657C163.867 23.5749 163.796 23.687 163.712 23.8106C163.14 23.6151 162.614 23.3737 162.103 23.1035C161.881 22.9856 161.847 22.8534 161.976 22.6177C162.189 22.2239 162.436 21.8502 162.787 21.5628C163.316 21.1259 163.905 20.7953 164.569 20.6114C165.698 20.2981 166.831 20.2636 167.955 20.6114C169.562 21.1115 170.614 22.1635 170.985 23.8307C171.071 24.2245 171.111 24.6355 171.114 25.0408C171.128 26.9811 171.12 28.9184 171.12 30.8586C171.12 31.0512 171.105 31.2409 171.094 31.5083V31.514ZM165.742 29.9273C167.075 29.9676 168.343 29.019 168.806 27.8606C168.878 27.6824 168.924 27.4927 168.961 27.303C169.021 26.9983 168.97 26.9006 168.682 26.7454C168.547 26.6735 168.4 26.6189 168.257 26.5614C167.84 26.3918 167.397 26.3573 166.957 26.2912C166.265 26.1848 165.606 26.2969 164.968 26.5413C164.428 26.7482 164 27.0989 163.761 27.6451C163.422 28.4154 163.663 29.1685 164.391 29.591C164.819 29.8382 165.282 29.9618 165.742 29.9302V29.9273Z" fill="#E9E9E9"/>
<path d="M149.976 20.6023C150.073 20.5764 150.183 20.5275 150.295 20.5247C150.703 20.5132 151.108 20.5103 151.516 20.5247C151.919 20.5362 151.988 20.6023 152.025 20.999C152.057 21.341 152.108 21.6744 152.189 22.0826C152.318 21.9504 152.396 21.8728 152.474 21.7952C153.408 20.8639 154.509 20.3148 155.857 20.3896C156.943 20.4499 157.903 20.8121 158.622 21.6773C159.168 22.3356 159.467 23.1059 159.593 23.9452C159.694 24.6006 159.7 25.256 159.697 25.9171C159.691 27.5842 159.697 29.2543 159.694 30.9214C159.694 31.1485 159.668 31.3785 159.657 31.5854C159.191 31.7493 158.205 31.7608 157.659 31.6199C157.541 31.4187 157.581 31.183 157.581 30.9531C157.578 29.2658 157.587 27.5785 157.576 25.8912C157.573 25.4083 157.55 24.9168 157.463 24.4454C157.234 23.2036 156.394 22.4419 155.115 22.3528C153.422 22.2321 152.117 23.7958 152.028 25.2128C152.014 25.4255 152.016 25.6383 152.016 25.8538C152.016 27.5038 152.016 29.1508 152.016 30.8007C152.016 31.0278 151.991 31.2549 151.979 31.4618C151.47 31.617 150.47 31.6199 149.95 31.4647C149.935 31.3152 149.91 31.1456 149.904 30.9789C149.823 27.018 149.869 21.1168 149.984 20.6138L149.976 20.6023Z" fill="#E9E9E9"/>
<path d="M181.462 28.0237C181.698 27.8339 181.75 27.6212 181.83 27.4315C182.724 25.3677 183.609 23.301 184.5 21.2372C184.546 21.1308 184.581 21.0101 184.653 20.9267C184.722 20.8434 184.825 20.7715 184.929 20.7428C185.161 20.6766 186.429 20.7313 186.719 20.8002C186.76 21.0245 186.633 21.2113 186.553 21.401C185.857 23.0423 185.153 24.6807 184.452 26.322C183.451 28.656 182.454 30.99 181.454 33.3241C181.088 34.1806 180.712 35.0315 180.361 35.8938C180.226 36.2272 180.025 36.3796 179.66 36.3537C179.292 36.3278 178.924 36.3537 178.556 36.3451C178.427 36.3422 178.3 36.3048 178.157 36.2818C178.142 36.0088 178.257 35.8047 178.346 35.5948C178.976 34.1145 179.594 32.6285 180.238 31.1539C180.381 30.8233 180.384 30.5474 180.238 30.2168C179.565 28.6905 178.918 27.1556 178.26 25.6235C177.625 24.1461 176.981 22.6715 176.346 21.194C176.303 21.0906 176.282 20.9785 176.242 20.8261C176.372 20.7888 176.472 20.7341 176.576 20.7313C177.021 20.7198 177.467 20.7313 177.912 20.7226C178.185 20.7169 178.332 20.8462 178.435 21.0906C178.936 22.2691 179.447 23.4418 179.953 24.6146C180.353 25.5402 180.746 26.4686 181.146 27.3942C181.229 27.5867 181.33 27.7736 181.456 28.0265L181.462 28.0237Z" fill="#E9E9E9"/>
<path d="M208.18 27.5831C208.775 27.9367 209.332 28.2356 209.841 28.6122C209.812 28.9312 209.623 29.1439 209.479 29.3624C208.507 30.837 207.171 31.6792 205.371 31.7022C203.368 31.728 201.888 30.8053 200.827 29.1526C200.203 28.181 199.901 27.0945 199.898 25.9505C199.893 24.3695 200.358 22.9208 201.422 21.7222C202.092 20.9662 202.945 20.4747 203.926 20.2074C206.225 19.5836 208.565 20.6386 209.686 22.7426C209.749 22.8605 209.786 22.9898 209.835 23.1019C209.548 23.4354 208.585 24.1137 208.145 24.2833C208.062 24.1453 207.973 24.0016 207.886 23.855C207.447 23.1134 206.852 22.5615 206.015 22.2827C205.371 22.0671 204.75 22.1189 204.147 22.3891C203.164 22.8231 202.531 23.5762 202.233 24.5995C201.847 25.9217 201.991 27.1836 202.81 28.3075C203.457 29.1928 204.342 29.6613 205.469 29.5722C206.4 29.5004 207.108 29.0232 207.668 28.3046C207.832 28.0919 207.978 27.8648 208.183 27.5774L208.18 27.5831Z" fill="#E9E9E9"/>
<path d="M218.429 23.4639C218.254 23.3058 218.13 23.1879 217.998 23.0758C216.975 22.2078 215.819 21.9433 214.526 22.3141C214.296 22.3802 214.103 22.5067 213.945 22.6849C213.485 23.1994 213.543 23.9784 214.106 24.3751C214.371 24.5619 214.681 24.7028 214.989 24.8091C215.5 24.9873 216.029 25.1224 216.549 25.269C217.262 25.4702 217.952 25.7203 218.562 26.1572C219.165 26.5913 219.478 27.2006 219.568 27.9221C219.634 28.4424 219.628 28.9684 219.464 29.4772C219.134 30.5091 218.435 31.2047 217.432 31.5669C216.526 31.8917 215.589 32.0354 214.632 31.7853C214.006 31.6215 213.442 31.3197 212.905 30.9661C212.353 30.5982 211.867 30.1527 211.413 29.6726C211.361 29.6209 211.335 29.5461 211.301 29.4887C211.548 29.1351 212.206 28.6033 212.735 28.3188C212.939 28.3734 213.025 28.566 213.155 28.7011C213.462 29.023 213.758 29.3622 214.155 29.5835C214.974 30.0377 215.816 30.0635 216.667 29.687C217.291 29.4111 217.564 28.7729 217.438 28.0285C217.4 27.8014 217.248 27.6375 217.058 27.5398C216.785 27.399 216.503 27.2581 216.207 27.1719C215.483 26.9563 214.747 26.781 214.02 26.574C213.497 26.4274 212.991 26.2262 212.534 25.9215C211.787 25.4214 211.404 24.7286 211.376 23.8232C211.355 23.1477 211.468 22.5067 211.81 21.9232C212.252 21.1672 212.913 20.6728 213.747 20.44C214.856 20.1296 215.963 20.1353 217.055 20.5636C217.711 20.8194 218.317 21.1586 218.883 21.5725C219.211 21.8111 219.335 21.9577 219.553 22.3343C219.26 22.7453 218.878 23.0902 218.426 23.4668L218.429 23.4639Z" fill="#E9E9E9"/>
<path d="M118.26 31.6278C117.786 31.7312 116.334 31.737 115.785 31.6335C115.759 31.5214 115.713 31.3978 115.699 31.2685C115.682 31.1161 115.693 30.958 115.693 30.8028C115.693 25.4679 115.693 20.1359 115.693 14.801C115.693 13.8351 115.687 13.8581 116.61 13.8639C117.036 13.8639 117.464 13.8553 117.889 13.8696C118.254 13.8811 118.329 13.9616 118.352 14.3181C118.364 14.4733 118.358 14.6285 118.358 14.7837C118.358 20.1359 118.358 25.4909 118.358 30.8431C118.358 31.1075 118.412 31.3863 118.263 31.6249L118.26 31.6278Z" fill="#E9E9E9"/>
<path d="M194.241 31.2979C194.089 31.3209 193.942 31.3583 193.793 31.3611C193.192 31.3669 192.591 31.3698 191.99 31.3554C190.944 31.3324 190.254 30.7633 189.829 29.8521C189.57 29.3002 189.495 28.7023 189.495 28.0929C189.495 26.5436 189.495 24.9914 189.49 23.4421C189.49 23.2323 189.472 23.0253 189.464 22.8644C189.277 22.6718 189.093 22.712 188.923 22.7092C188.556 22.7005 188.188 22.7149 187.82 22.6977C187.529 22.6833 187.437 22.5971 187.429 22.3039C187.414 21.8382 187.414 21.3726 187.429 20.9098C187.437 20.6281 187.532 20.5447 187.834 20.5275C188.162 20.5102 188.492 20.5246 188.823 20.516C189.013 20.5131 189.202 20.4959 189.435 20.4815C189.455 20.2745 189.487 20.1078 189.49 19.9411C189.495 19.303 189.49 18.662 189.493 18.021C189.493 17.8313 189.513 17.6416 189.521 17.4691C189.941 17.3024 190.867 17.2765 191.493 17.3972C191.637 17.5352 191.611 17.7163 191.611 17.8888C191.614 18.5269 191.611 19.1679 191.614 19.8089C191.614 20.0015 191.625 20.1912 191.634 20.4298C191.801 20.4614 191.944 20.5074 192.091 20.5131C192.496 20.5246 192.905 20.5131 193.313 20.5217C193.502 20.5246 193.689 20.5534 193.919 20.5735C193.997 21.2662 193.968 21.9158 193.939 22.6086C193.773 22.643 193.629 22.6977 193.482 22.7005C193.077 22.712 192.669 22.7005 192.261 22.7092C192.074 22.712 191.884 22.735 191.677 22.7523C191.651 22.9075 191.617 23.0167 191.617 23.1288C191.614 24.8535 191.614 26.5781 191.617 28.3028C191.617 28.4177 191.623 28.5356 191.646 28.6506C191.746 29.2168 192.108 29.5876 192.677 29.6882C193.002 29.7428 193.33 29.7659 193.658 29.8032C193.942 29.8348 194.008 29.8665 194.057 30.1309C194.129 30.5046 194.301 30.8667 194.238 31.3037L194.241 31.2979Z" fill="#E9E9E9"/>
<path d="M175.182 31.5135C174.475 31.6026 173.845 31.5738 173.184 31.5422C173.147 31.387 173.104 31.2634 173.092 31.1341C173.078 30.9616 173.087 30.7862 173.087 30.6109C173.087 25.9371 173.087 21.2633 173.087 16.5895C173.087 16.3423 173.104 16.0951 173.11 15.868C173.584 15.7042 174.567 15.6927 175.133 15.8364C175.153 15.9485 175.188 16.075 175.199 16.2043C175.211 16.3394 175.202 16.4745 175.202 16.6125C175.202 21.3064 175.202 26.0003 175.202 30.6943C175.202 30.9443 175.188 31.1944 175.179 31.5192L175.182 31.5135Z" fill="#E9E9E9"/>
<path d="M196.032 20.591C196.239 20.5565 196.368 20.522 196.5 20.5191C196.909 20.5133 197.317 20.5076 197.722 20.5277C198.015 20.5421 198.09 20.6312 198.113 20.9244C198.125 21.0595 198.122 21.1946 198.122 21.3325C198.122 24.4944 198.122 27.6563 198.122 30.8181C198.122 31.0279 198.104 31.2378 198.096 31.4275C197.668 31.5999 196.702 31.623 196.087 31.4792C196.064 31.3671 196.029 31.2435 196.012 31.1142C196 31.0193 196.009 30.9216 196.009 30.8239C196.009 27.6419 196.009 24.4599 196.009 21.2779C196.009 21.0681 196.023 20.8583 196.035 20.5938L196.032 20.591Z" fill="#E9E9E9"/>
<path d="M198.257 16.6518C198.26 17.4279 197.676 18.0402 196.92 18.0545C196.207 18.0689 195.469 17.3532 195.469 16.6518C195.469 15.9246 196.17 15.2462 196.915 15.252C197.671 15.2606 198.251 15.8642 198.254 16.649L198.257 16.6518Z" fill="#E9E9E9"/>
</svg>
