<svg width="196" height="21" viewBox="0 0 196 21" fill="none" xmlns="http://www.w3.org/2000/svg">
<path fill-rule="evenodd" clip-rule="evenodd" d="M8.22568 7.20655V9.50221H13.5583C13.378 10.7874 13.0145 11.7063 12.3836 12.3504C11.5695 13.1776 10.3948 14.0049 8.31582 14.0049C5.06218 14.0049 2.4395 11.3399 2.4395 8.03382C2.4395 4.7277 4.97205 2.06272 8.31582 2.06272C10.1244 2.06272 11.3892 2.7984 12.2935 3.71725L13.8287 2.15726C12.4737 0.86909 10.7553 -0.141357 8.22568 -0.141357C3.70723 -0.141357 0 3.53112 0 8.12541C0 12.7197 3.79736 16.3922 8.22568 16.3922C10.6652 16.3922 12.4737 15.5649 13.9188 14.0965C15.3639 12.6281 15.8175 10.5156 15.8175 8.76949C15.8175 8.217 15.8175 7.75904 15.7274 7.39268H8.22568V7.20655Z" fill="#E9E9E9"/>
<path fill-rule="evenodd" clip-rule="evenodd" d="M22.4182 13.9104C20.79 13.9104 19.435 12.5336 19.435 10.6959C19.435 8.7666 20.79 7.48138 22.4182 7.48138C24.0465 7.48138 25.4015 8.7666 25.4015 10.6959C25.3986 12.6252 24.0436 13.9104 22.4182 13.9104ZM22.4182 5.3689C19.5251 5.3689 17.1758 7.57297 17.1758 10.6959C17.1758 13.7273 19.5251 16.0229 22.4182 16.0229C25.3113 16.0229 27.6607 13.7273 27.6607 10.6959C27.7508 7.57297 25.3084 5.3689 22.4182 5.3689Z" fill="#E9E9E9"/>
<path fill-rule="evenodd" clip-rule="evenodd" d="M45.6471 13.9104C44.0188 13.9104 42.8442 12.5336 42.8442 10.6959C42.8442 8.85819 44.0188 7.48138 45.6471 7.48138C47.1823 7.48138 48.4501 8.85819 48.4501 10.6959C48.4501 12.5336 47.1823 13.9104 45.6471 13.9104ZM48.2669 6.56253C47.633 5.91844 46.6386 5.3689 45.4639 5.3689C42.8413 5.3689 40.582 7.66456 40.582 10.6959C40.582 13.7273 42.8413 16.0229 45.4639 16.0229C46.7288 16.0229 47.7232 15.4704 48.2669 14.8293H48.357V15.565C48.357 17.5859 47.2725 18.6879 45.5541 18.6879C44.109 18.6879 43.2948 17.6775 42.9314 16.7586L40.9426 17.5859C41.4863 18.9627 43.0215 20.7088 45.5512 20.7088C48.264 20.7088 50.5232 19.0543 50.5232 15.107V5.64367H48.3541V6.56253H48.2669Z" fill="#E9E9E9"/>
<path fill-rule="evenodd" clip-rule="evenodd" d="M34.1682 13.9104C32.54 13.9104 31.185 12.5336 31.185 10.6959C31.185 8.7666 32.54 7.48138 34.1682 7.48138C35.7965 7.48138 37.1515 8.7666 37.1515 10.6959C37.1515 12.6252 35.7936 13.9104 34.1682 13.9104ZM34.1682 5.3689C31.2751 5.3689 28.9258 7.57297 28.9258 10.6959C28.9258 13.7273 31.2751 16.0229 34.1682 16.0229C37.0613 16.0229 39.4107 13.7273 39.4107 10.6959C39.5008 7.57297 37.0613 5.3689 34.1682 5.3689Z" fill="#E9E9E9"/>
<path fill-rule="evenodd" clip-rule="evenodd" d="M52.2441 16.0229H54.5034V-0.141357H52.2441V16.0229Z" fill="#E9E9E9"/>
<path fill-rule="evenodd" clip-rule="evenodd" d="M61.3737 7.38985C62.278 7.38985 63.0921 7.84781 63.3625 8.58348L58.6609 10.6044C58.6609 8.30871 60.199 7.38985 61.3737 7.38985ZM61.554 13.9105C60.3793 13.9105 59.5652 13.358 59.0244 12.256L66.0754 9.31621L65.805 8.67212C65.3543 7.47849 63.9964 5.27441 61.2865 5.27441C58.5737 5.27441 56.3145 7.47849 56.3145 10.6014C56.3145 13.6328 58.5737 15.9284 61.5569 15.9284C63.9964 15.9284 65.3543 14.46 65.8951 13.5412L64.0865 12.3475C63.5428 13.361 62.7287 13.9105 61.554 13.9105Z" fill="#E9E9E9"/>
<path d="M193.486 7.84308C194.051 7.17235 194.916 6.70923 195.953 6.70923V8.60963C194.507 8.60963 193.596 9.39215 193.596 10.526V15.3169H191.6V6.90087H193.486V7.84308Z" fill="#E9E9E9"/>
<path d="M183.761 11.7557C184.029 13.0173 184.987 13.7838 186.229 13.7838C187.36 13.7838 187.958 13.3527 188.335 12.6021L189.906 13.6241C189.278 14.6622 188.178 15.5245 186.166 15.5245C183.526 15.5245 181.797 13.6241 181.797 11.1169C181.797 8.67351 183.667 6.70923 186.04 6.70923C188.649 6.70923 190.237 8.7853 190.237 10.9412C190.237 11.2606 190.221 11.58 190.189 11.7557H183.761ZM183.761 10.3344H188.319C188.099 9.07275 187.25 8.30621 186.087 8.30621C184.924 8.30621 184.013 9.04082 183.761 10.3344Z" fill="#E9E9E9"/>
<path d="M177.202 6.70923C179.245 6.70923 180.502 8.06666 180.502 10.0629V15.3169H178.491V10.4462C178.491 9.23245 177.752 8.51381 176.62 8.51381C175.536 8.52978 174.719 9.3123 174.703 10.2545V15.3169H172.707V6.90087H174.593V7.82711C175.159 7.17235 176.07 6.70923 177.202 6.70923Z" fill="#E9E9E9"/>
<path d="M167.639 6.70923C169.683 6.70923 170.94 8.06666 170.94 10.0629V15.3169H168.928V10.4462C168.928 9.23245 168.189 8.51381 167.058 8.51381C165.973 8.52978 165.156 9.3123 165.14 10.2545V15.3169H163.145V6.90087H165.03V7.82711C165.596 7.17235 166.508 6.70923 167.639 6.70923Z" fill="#E9E9E9"/>
<path d="M159.444 6.90079H161.299V15.3169H159.444V14.183C158.831 15.0134 157.904 15.5085 156.709 15.5085C154.336 15.5085 152.607 13.6241 152.607 11.1168C152.607 8.59359 154.336 6.83691 156.709 6.83691C157.904 6.83691 158.831 7.28407 159.444 8.09853V6.90079ZM156.977 13.7199C158.407 13.7199 159.381 12.6499 159.381 11.1168C159.381 9.56775 158.407 8.51374 156.977 8.51374C155.609 8.51374 154.603 9.61565 154.603 11.1168C154.603 12.618 155.609 13.7199 156.977 13.7199Z" fill="#E9E9E9"/>
<path d="M149.178 15.317V3.64307H151.174V15.317H149.178Z" fill="#E9E9E9"/>
<path d="M144.158 4.21802C146.452 4.21802 147.898 5.55948 147.898 7.61958C147.898 9.69565 146.437 11.0371 144.158 11.0371H141.848V15.317H139.836V4.21802H144.158ZM144.064 9.2485C145.242 9.2485 145.855 8.57777 145.855 7.61958C145.855 6.67736 145.242 6.00663 144.064 6.00663H141.848V9.2485H144.064Z" fill="#E9E9E9"/>
<path d="M132.58 3.64307H134.576V15.317H132.721V14.247C132.077 15.0455 131.15 15.5086 129.987 15.5086C127.614 15.5086 125.885 13.6242 125.885 11.1169C125.885 8.5937 127.566 6.70926 129.94 6.70926C131.04 6.70926 131.936 7.12448 132.58 7.82715V3.64307ZM130.254 13.72C131.684 13.72 132.658 12.65 132.658 11.1169C132.658 9.56785 131.684 8.51385 130.254 8.51385C128.887 8.51385 127.881 9.61576 127.881 11.1169C127.881 12.6181 128.887 13.72 130.254 13.72Z" fill="#E9E9E9"/>
<path d="M122.978 7.84308C123.544 7.17235 124.408 6.70923 125.445 6.70923V8.60963C123.999 8.60963 123.088 9.39215 123.088 10.526V15.3169H121.092V6.90087H122.978V7.84308Z" fill="#E9E9E9"/>
<path d="M115.246 15.5086C112.653 15.5086 110.83 13.6241 110.83 11.1169C110.83 8.59366 112.653 6.70923 115.246 6.70923C117.824 6.70923 119.663 8.59366 119.663 11.1169C119.663 13.6241 117.824 15.5086 115.246 15.5086ZM115.262 13.704C116.677 13.704 117.651 12.618 117.651 11.1009C117.651 9.59976 116.692 8.52978 115.262 8.52978C113.816 8.52978 112.826 9.59976 112.826 11.1169C112.826 12.618 113.816 13.704 115.262 13.704Z" fill="#E9E9E9"/>
<path d="M108.329 6.90088H110.372L108.203 15.3169H105.846L104.227 9.18456L102.624 15.3169H100.267L98.0664 6.90088H100.11L101.54 13.3367L103.111 6.90088H105.343L106.915 13.3048L108.329 6.90088Z" fill="#E9E9E9"/>
<path d="M95.7782 6.90088H97.8528L94.6938 15.3169L93.6251 18.1755H91.6605L92.7921 15.3169H92.1635L89.2402 6.90088H91.2991L93.4365 13.688L95.7782 6.90088Z" fill="#E9E9E9"/>
<path d="M82.4958 11.7557C82.763 13.0173 83.7217 13.7838 84.9632 13.7838C86.0948 13.7838 86.692 13.3527 87.0692 12.6021L88.6409 13.6241C88.0122 14.6622 86.9121 15.5245 84.9004 15.5245C82.26 15.5245 80.5312 13.6241 80.5312 11.1169C80.5312 8.67351 82.4015 6.70923 84.7746 6.70923C87.3835 6.70923 88.9709 8.7853 88.9709 10.9412C88.9709 11.2606 88.9552 11.58 88.9237 11.7557H82.4958ZM82.4958 10.3344H87.0535C86.8335 9.07275 85.9848 8.30621 84.8218 8.30621C83.6588 8.30621 82.7472 9.04082 82.4958 10.3344Z" fill="#E9E9E9"/>
<path d="M81.0482 15.317H78.7222L74.0859 10.0949V15.317H72.0742V4.21802H74.0859V9.12074L78.4707 4.21802H80.7968L76.1133 9.56789L81.0482 15.317Z" fill="#E9E9E9"/>
</svg>
