<svg width="129" height="79" viewBox="0 0 129 79" fill="none" xmlns="http://www.w3.org/2000/svg">
<path fill-rule="evenodd" clip-rule="evenodd" d="M66.4013 26.9999L75.3138 18.0276L84.1777 9.10425L91.2202 16.1843C91.1571 16.2429 85.6299 21.7828 79.0294 28.413C76.7563 30.7013 74.8912 32.5642 73.3613 34.0848L66.3965 26.9999H66.4013Z" fill="#E7E7E7"/>
<path fill-rule="evenodd" clip-rule="evenodd" d="M34.2238 49.829C33.0679 49.0955 29.396 45.2524 29.1095 44.47C28.9735 44.1033 28.9589 43.5655 29.0706 43.2721C29.1872 42.9787 35.0398 36.9548 42.0823 29.8797C52.957 18.9614 55.0018 17.0203 55.638 17.0203C56.2743 17.0203 57.2845 17.9053 61.4518 22.0174C64.2348 24.7653 68.062 28.6084 69.9563 30.5545L73.395 34.0945L70.1991 37.2824C67.6395 39.8348 66.8527 40.4704 66.2601 40.4704C65.6676 40.4704 64.6331 39.5854 60.5824 35.5467L55.6477 30.6229L46.2593 40.0939C37.8568 48.5723 35.9578 50.3326 35.2292 50.3277C35.1127 50.3277 34.661 50.1028 34.2238 49.8241V49.829Z" fill="#E7E7E7"/>
<path fill-rule="evenodd" clip-rule="evenodd" d="M92.5209 17.4409C89.869 14.8885 85.5852 10.5809 83.0013 7.87208C78.9847 3.65731 78.3047 2.82609 78.3047 2.122C78.3047 1.10498 79.0478 0.31777 80.2086 0.102631C80.6894 0.0146193 85.0558 -0.0244969 89.9079 0.0195088L98.7329 0.0977412C98.7329 0.0977412 99.5149 0.141747 99.7334 0.376444C100.005 0.664926 100.01 1.59393 100.01 1.59393L100.001 11.1041C99.9957 18.1596 99.9083 20.7266 99.6703 21.0396C99.2672 21.5676 98.3298 22.081 97.7664 22.081C97.5333 22.081 95.1728 19.9932 92.5209 17.4409Z" fill="#A5A5A5"/>
<path fill-rule="evenodd" clip-rule="evenodd" d="M48.75 23.23C50.5179 21.4159 54.8794 17.0203 55.642 17.0203C56.2588 17.0203 57.2885 17.9053 61.4557 22.0174C64.2387 24.7653 68.066 28.6084 69.9602 30.5545L73.3989 34.0945L70.203 37.2824C67.6434 39.8348 66.8566 40.4704 66.2641 40.4704C65.6715 40.4704 64.637 39.5854 60.5863 35.5467C58.9398 33.9038 57.2982 32.2658 55.6517 30.6229C53.3495 28.1586 51.0522 25.6943 48.75 23.23Z" fill="#A5A5A5"/>
<path fill-rule="evenodd" clip-rule="evenodd" d="M114.207 65.3287C118.695 65.3287 118.724 72.619 114.207 72.619C113.279 72.619 112.415 72.0176 111.987 71.47C110.875 70.052 110.929 67.8175 111.987 66.4778C112.42 65.9301 113.279 65.3287 114.207 65.3287ZM117.442 63.2458C117.442 64.1112 117.573 64.3753 117.573 65.1967C117.184 64.9082 116.451 63.5049 113.95 63.5049C109.569 63.5049 107.733 69.7391 110.487 72.7217C112.298 74.6824 114.984 75.0784 116.951 73.4258C117.33 73.1079 117.223 73.0101 117.573 72.751V74.1836C118.909 74.1836 119.511 74.3694 119.511 73.7925V59.207H117.442V63.2458ZM91.7049 65.4607C93.1522 65.4607 94.891 65.6514 95.0658 67.8028H89.3735C89.4415 66.9814 89.7135 66.7271 90.1798 66.2675C90.5052 65.9448 91.122 65.4558 91.7049 65.4558V65.4607ZM87.1782 68.9763C87.1782 71.734 88.7567 73.8952 91.0006 74.3743C93.7448 74.9611 95.6535 74.0418 96.8775 71.7095C96.3238 71.4162 95.639 71.2059 95.0658 70.9272C94.7064 72.4723 91.972 73.6898 90.1118 71.7487C89.4221 71.0299 89.3638 70.5752 89.1161 69.4995H97.1349V68.326C97.1349 65.9595 95.0998 63.6369 92.7394 63.6369C91.1317 63.6369 89.6504 63.7543 88.4653 65.3238C87.7756 66.2431 87.1782 67.3579 87.1782 68.9714V68.9763ZM100.627 65.0696C101.176 64.698 101.239 64.3801 101.914 64.0232C104.658 62.5857 107.738 64.2579 107.738 67.1525V74.1836H105.8V67.9348C105.8 64.1601 100.627 64.5268 100.627 68.5851V74.1836H98.6891V63.8961C100.962 63.8961 100.627 63.7152 100.627 65.0696ZM120.934 66.111C120.934 66.9471 120.837 67.2699 121.245 67.8859L121.862 68.5705C123.838 70.2476 127.02 69.3283 127.02 71.3233C127.02 73.1617 122.988 73.1666 122.362 70.8001C121.677 70.8588 121.167 71.3086 120.55 71.4504C121.133 73.9636 125.082 75.4402 127.695 73.6947C129.589 72.4283 129.647 69.1425 126.446 68.2478C125.417 67.9593 122.877 67.7588 122.877 66.6342C122.877 65.3434 124.358 65.3336 125.203 65.3336C126.267 65.3336 126.772 65.935 127.141 66.6342C127.515 66.5462 128.477 66.1502 128.821 65.9839C128.661 64.0428 125.004 62.571 122.274 64.2139C121.721 64.5464 120.929 65.3385 120.929 66.1159L120.934 66.111ZM71.1406 60.6446C71.1406 60.9428 71.2329 61.0357 71.5292 61.0357H75.4099V74.1885H77.2215V61.0357H81.2333V59.2119H71.1455V60.6446H71.1406ZM82.7827 65.3336L83.2781 64.6589C84.4972 63.2702 86.1291 63.6809 87.1782 63.769C87.1248 64.3899 86.6877 65.0353 86.5322 65.7199C85.3374 65.4412 84.1426 65.5047 83.3509 66.6831C82.4767 67.9788 82.7827 72.2229 82.7827 74.1836H80.8448V63.8961C83.1469 63.8961 82.7827 63.6858 82.7827 65.3287V65.3336Z" fill="#E9E9E9"/>
<path fill-rule="evenodd" clip-rule="evenodd" d="M0.000950677 64.9376C0.000950677 66.5463 0.0738046 67.7051 0.816914 69.1915C1.30261 70.1645 1.4726 70.2965 2.02629 70.9664L3.00253 71.9394C8.29658 76.5649 16.6845 73.2449 16.6845 66.8885C16.6845 65.3434 16.9031 64.5464 16.2959 64.5464H8.66571V67.0206H14.2269C14.1686 67.7198 13.9598 68.3456 13.7121 68.8492C13.0078 70.2916 11.2545 71.5776 9.43796 71.5776C7.93231 71.5776 7.36891 71.6656 5.98469 71.0153C0.1758 68.2918 2.19143 58.2341 9.80709 59.3587C11.3467 59.5885 11.8859 60.1997 12.9301 60.9038L14.6446 59.2413C13.3526 58.3416 13.0661 57.5935 10.6085 56.9921C5.29986 55.6964 -0.00390625 60.1361 -0.00390625 64.9376H0.000950677Z" fill="#E9E9E9"/>
<path fill-rule="evenodd" clip-rule="evenodd" d="M44.2336 68.5802C44.2336 66.9275 45.3458 65.3238 46.9486 65.3238C47.9589 65.3238 48.6777 65.3824 49.3577 66.2821C50.7759 68.1499 50.0668 71.8317 47.206 71.8317C45.4867 71.8317 44.2336 70.3209 44.2336 68.5753V68.5802ZM49.9259 72.8781C49.9259 74.1347 49.8919 74.9072 49.3577 75.6896C48.5903 76.8239 45.8947 77.7383 44.3647 74.829C43.7236 74.8828 43.1748 75.3717 42.1645 75.6113C42.5531 77.2933 44.6902 78.9949 46.6912 78.9949C48.6923 78.9949 50.1056 78.7015 51.315 77.0097C52.1115 75.89 52.3835 74.2374 52.3835 72.3549V63.3729H49.9259V64.1552C48.9837 63.5195 48.6 62.9817 46.8223 62.9817C43.6848 62.9817 40.7463 66.6439 42.0188 70.4235C42.9757 73.2741 46.4435 75.0197 48.9837 73.6213C49.4937 73.3426 49.5082 73.1568 49.9259 72.8781Z" fill="#E9E9E9"/>
<path fill-rule="evenodd" clip-rule="evenodd" d="M20.1764 68.5804C20.1764 67.006 21.3323 65.324 22.8914 65.324H23.5373C24.9507 65.324 26.2524 66.8006 26.2524 68.1892C26.2524 72.3013 22.5368 72.5262 21.0457 70.8296C20.8126 70.5606 20.5601 70.1841 20.4435 69.8712C20.3658 69.6659 20.1715 68.8151 20.1715 68.5804H20.1764ZM17.7188 68.1892C17.7188 70.2966 18.0345 71.1718 19.4964 72.6534C21.5363 74.7265 25.2178 74.5212 27.1995 72.5262C29.2345 70.4775 29.4385 66.8935 27.2626 64.7079C23.4839 60.9185 17.7236 63.9011 17.7236 68.1941L17.7188 68.1892Z" fill="#E9E9E9"/>
<path fill-rule="evenodd" clip-rule="evenodd" d="M60.1434 68.1892C60.1434 65.9791 62.2999 64.5269 64.1067 65.4999C64.5147 65.72 64.6895 65.8813 64.8012 66.3654C63.7813 66.605 60.9448 68.1207 60.1434 68.1892ZM57.5547 68.4483C57.5547 71.0349 59.07 73.0591 61.3819 73.8414C64.6021 74.9318 67.5551 72.5262 67.6425 71.4456C67.1471 71.3136 66.2486 70.5655 65.7046 70.2721C64.4272 72.7071 60.9642 72.003 60.532 70.1401C60.9594 70.1058 65.1509 68.3212 65.9086 68.0034C66.5497 67.7344 67.0888 67.4362 67.7737 67.2748C66.982 63.857 63.7521 61.9941 60.5271 63.4952C58.8078 64.2971 57.5547 66.4338 57.5547 68.4434V68.4483Z" fill="#E9E9E9"/>
<path fill-rule="evenodd" clip-rule="evenodd" d="M35.3111 71.8368C31.0952 71.8368 31.4012 65.3289 34.9225 65.3289C35.9862 65.3289 36.7681 65.3826 37.5355 66.3459C39.2257 68.4728 37.8464 71.8368 35.3111 71.8368ZM40.7411 68.9716C40.7411 67.0891 40.5128 65.8716 39.0946 64.5074C37.2053 62.6934 34.1163 62.4489 31.9404 64.0185C29.2593 65.9498 28.8756 69.8566 31.2021 72.448C31.7315 73.0347 32.902 73.7095 33.7471 73.9246C37.2635 74.8243 40.7362 72.2133 40.7362 68.9716H40.7411Z" fill="#E9E9E9"/>
<path fill-rule="evenodd" clip-rule="evenodd" d="M53.9375 73.7877C53.9375 74.3793 54.6029 74.1788 56.0065 74.1788C56.3028 74.1788 56.3951 74.0908 56.3951 73.7877V58.1608C56.3951 57.5398 55.5306 57.7696 53.9375 57.7696V73.7828V73.7877Z" fill="#E9E9E9"/>
</svg>
