<svg width="86" height="81" viewBox="0 0 86 81" fill="none" xmlns="http://www.w3.org/2000/svg">
<path d="M85.9711 0.0289451C85.9711 26.3055 85.9712 52.582 86 78.8296C86 80.4502 85.7114 81 83.9228 81C56.6601 80.9421 29.3686 80.9421 2.10595 80.9711C1.00967 80.9711 0 81.2315 0 79.3794C0.0576988 52.9293 0.057579 26.4791 0.057579 0H85.9422L85.9711 0.0289451ZM67.0171 74.1415C67.6806 74.1126 68.7192 74.0836 69.7578 73.9679C74.7199 73.447 78.9896 70.0611 79.9993 65.865C81.2975 60.4823 79.5089 55.8521 75.0084 52.8135C73.4217 51.7428 71.6907 50.9325 69.9598 50.1222C67.8826 49.1672 65.6901 48.5016 63.8437 47.0836C62.4589 46.0129 62.1703 44.537 62.6319 42.9454C63.0935 41.3827 64.334 40.7749 65.863 40.6302C68.0267 40.4277 69.7577 41.238 70.9117 43.0611C71.4598 43.9003 71.9215 43.9293 72.6716 43.3794C73.9987 42.4534 75.2968 41.5274 76.7393 40.8039C78.0375 40.1383 77.7778 39.5016 77.0855 38.5466C74.114 34.4084 69.9309 33.0772 65.0842 33.4244C56.2563 34.0322 51.4673 42.656 55.737 50.1511C57.5257 53.3344 60.5837 54.955 63.7859 56.373C65.8631 57.299 68.0268 58.0804 69.9598 59.2669C71.4311 60.1929 72.3542 61.4662 72.0946 63.2605C71.8349 65.0547 70.5943 66.0386 68.9499 66.5016C65.9496 67.3698 63.2666 66.6753 60.8144 64.7363C59.8046 63.955 59.4874 62.1029 58.1603 62.2187C56.9198 62.3344 55.7947 63.4341 54.6119 64.0997C54.1214 64.3601 53.6887 64.7074 53.1694 64.91C51.9577 65.4309 51.9 66.0386 52.6501 67.1383C56.0255 72.0579 60.8433 73.9968 67.0171 74.0547V74.1415ZM47.4571 50.1801C47.4571 44.5949 47.4571 39.9936 47.4571 35.3633C47.4571 34.3794 47.2553 33.9164 46.159 33.9743C44.3127 34.0611 42.4662 34.0611 40.6198 33.9743C39.5812 33.9454 39.264 34.2637 39.264 35.3055C39.3217 39.1254 39.264 42.9454 39.264 46.7653C39.264 51.8296 39.264 56.865 39.264 61.9293C39.264 65.0257 38.1965 66.4148 35.802 66.791C33.3498 67.1672 31.5901 66.0675 30.4649 63.9839C29.8303 62.8264 29.2243 62.7396 28.1857 63.4341C26.9741 64.2733 25.7047 65.0836 24.4065 65.7203C23.0505 66.3859 23.0218 67.0515 23.8007 68.238C26.9165 72.8971 31.3881 74.4019 36.7541 74.0257C42.7836 73.6206 46.6493 70.1479 47.284 64.1576C47.8033 59.1801 47.3417 54.1736 47.486 50.1511L47.4571 50.1801Z" fill="#E9E9E9"/>
</svg>
