<svg width="133" height="78" viewBox="0 0 133 78" fill="none" xmlns="http://www.w3.org/2000/svg">
<path d="M92.6784 62.1606C92.6784 64.2099 92.6784 66.2591 92.6784 68.3084C92.6784 68.6402 92.6198 68.7768 92.249 68.7768C91.3707 68.7377 90.4925 68.7572 89.6142 68.7768C89.2824 68.7768 89.1849 68.6792 89.1653 68.3474C89.1263 67.7619 89.0287 67.1959 88.9507 66.6299C88.9507 66.5324 88.9702 66.3957 88.8336 66.3762C88.736 66.3567 88.6774 66.4543 88.6189 66.5128C86.7063 68.5426 84.3252 69.3623 81.5929 69.2257C78.9776 69.089 77.1041 67.2154 76.9674 64.6002C76.7918 61.497 78.3531 59.2526 81.5148 58.0816C83.1933 57.4571 84.9498 57.2619 86.7258 57.2229C86.999 57.2229 87.2527 57.2229 87.526 57.2229C88.1765 57.2229 88.4562 56.8911 88.3652 56.2276C88.1895 54.9785 87.5845 54.2564 86.3354 53.9832C84.013 53.4757 81.7685 53.7489 79.6022 54.7833C79.0947 55.037 79.0948 55.037 78.9581 54.4906C78.763 53.7099 78.5873 52.9292 78.3531 52.1681C78.2555 51.8558 78.3531 51.7192 78.6068 51.5826C79.8949 50.919 81.2611 50.5287 82.6858 50.3726C84.5984 50.1579 86.5111 50.1969 88.3847 50.7629C91.1755 51.6216 92.6784 53.6904 92.6784 56.6179C92.6784 58.472 92.6784 60.3261 92.6784 62.1801V62.1606ZM88.3847 61.8093C88.3847 61.3214 88.3847 60.8335 88.3847 60.3456C88.3847 60.1309 88.3456 60.0138 88.0919 60.0138C86.8233 60.0138 85.5743 60.0138 84.3252 60.3261C82.1979 60.8335 81.2611 62.1411 81.5734 64.0537C81.7295 64.9515 82.2174 65.5175 83.1152 65.6736C84.9888 65.9859 86.5501 65.3223 87.9163 64.0733C88.2481 63.7805 88.4237 63.4487 88.3652 62.9803C88.3261 62.59 88.3652 62.2192 88.3652 61.8288L88.3847 61.8093Z" fill="#E9E9E9"/>
<path d="M132.492 62.0629C132.492 64.1512 132.492 66.259 132.492 68.3473C132.492 68.6791 132.394 68.7766 132.062 68.7766C131.184 68.7571 130.306 68.7571 129.428 68.7766C129.076 68.7766 128.998 68.64 128.979 68.3473C128.94 67.8008 128.842 67.2543 128.784 66.7079C128.784 66.5908 128.784 66.4347 128.686 66.3761C128.53 66.3176 128.471 66.4932 128.374 66.5713C126.168 68.7767 123.514 69.6159 120.469 69.0499C118.245 68.64 116.82 66.7079 116.761 64.3659C116.683 61.6336 117.913 59.7014 120.313 58.4914C122.011 57.6327 123.807 57.3009 125.7 57.2228C126.422 57.2033 127.125 57.1838 127.847 57.1838C128.12 57.1838 128.198 57.0862 128.198 56.8325C128.237 54.9198 127.3 53.944 125.153 53.7684C123.085 53.5927 121.094 53.8659 119.24 54.8418C118.967 54.9979 118.889 54.9003 118.83 54.6466C118.615 53.7879 118.42 52.9096 118.167 52.0509C118.088 51.7972 118.167 51.6801 118.401 51.563C119.767 50.8409 121.211 50.4505 122.733 50.2944C124.509 50.1187 126.266 50.1578 128.003 50.6457C130.403 51.3288 131.945 52.812 132.433 55.3102C132.492 55.6419 132.511 55.9933 132.511 56.325C132.511 58.2182 132.511 60.1308 132.511 62.0239L132.492 62.0629ZM128.198 61.8483C128.198 61.3408 128.198 60.8334 128.198 60.326C128.198 60.1503 128.198 60.0137 127.944 60.0137C126.461 60.0137 124.997 60.0137 123.573 60.5016C122.011 61.0286 121.328 62.0044 121.367 63.6438C121.406 64.9124 122.128 65.6735 123.377 65.732C125.036 65.8101 126.461 65.2246 127.671 64.1122C128.042 63.7804 128.237 63.4096 128.179 62.9021C128.14 62.5508 128.179 62.1995 128.179 61.8287L128.198 61.8483Z" fill="#E9E9E9"/>
<path d="M105.325 65.1466C105.637 64.3464 105.93 63.6438 106.203 62.9217C107.725 59.0184 109.267 55.1346 110.789 51.2313C110.906 50.919 111.063 50.8214 111.394 50.8214C112.507 50.8409 113.619 50.8409 114.732 50.8214C115.122 50.8214 115.161 50.8995 115.024 51.2508C113.112 55.8762 111.199 60.5017 109.287 65.1271C108.838 66.2201 108.389 67.2935 107.94 68.3864C107.842 68.6596 107.706 68.7767 107.393 68.7767C105.91 68.7767 104.427 68.7767 102.944 68.7767C102.67 68.7767 102.514 68.6987 102.417 68.4254C100.133 62.6875 97.8303 56.9497 95.5273 51.2313C95.4102 50.919 95.4297 50.8214 95.781 50.8409C97.0106 50.8409 98.2401 50.8605 99.4892 50.8409C99.821 50.8409 99.9576 50.958 100.055 51.2508C101.753 55.7591 103.451 60.248 105.149 64.7563C105.188 64.8539 105.227 64.971 105.305 65.1662L105.325 65.1466Z" fill="#E9E9E9"/>
<path d="M72.5961 54.7637C72.5961 58.4133 72.6351 62.0629 72.5961 65.732C72.5766 67.6056 72.1862 69.4207 71.2885 71.0796C70.0394 73.3825 68.1463 74.7097 65.492 74.8268C65.1798 74.8268 65.0236 74.7682 64.9456 74.4364C64.7504 73.5582 64.5162 72.6799 64.282 71.8017C64.2234 71.548 64.2234 71.4309 64.5357 71.4114C66.1361 71.3333 67.1119 70.416 67.6389 68.9523C68.0292 67.8593 68.0877 66.7078 68.1072 65.5759C68.2048 58.2376 68.1073 50.8993 68.1463 43.5611C68.1463 42.9951 68.1463 42.9951 68.7123 42.9951C69.8638 42.9951 71.0348 42.9951 72.1862 42.9951C72.5375 42.9951 72.6351 43.0927 72.6351 43.444C72.6351 47.2107 72.6351 50.9969 72.6351 54.7637H72.5961Z" fill="#E9E9E9"/>
<path d="M36.0606 0C38.2075 3.76671 38.5002 7.57244 36.2948 11.4172C34.9482 13.7592 33.0551 15.6523 31.0839 17.4869C29.1127 19.302 27.0049 20.9804 25.1118 22.9125C24.2921 23.7322 23.57 24.63 22.965 25.6253C21.3841 28.2796 21.4232 30.9729 22.7698 33.7052C23.4529 35.0909 24.2921 36.3595 25.1508 37.6281C25.8729 38.682 26.5951 39.7359 27.1415 40.8874C27.2196 41.0435 27.3367 41.1801 27.3172 41.4338C26.7317 41.1996 26.1657 40.985 25.6973 40.6142C25.1508 40.1848 24.6434 39.7164 24.1945 39.1504C22.7893 37.3354 21.306 35.5593 20.0375 33.6467C19.1982 32.3586 18.4566 31.0315 18.0468 29.5287C17.4418 27.3038 17.8126 25.2741 19.1007 23.3809C20.1351 21.8977 21.4817 20.7462 22.9455 19.7118C25.912 17.604 28.6443 15.1839 31.4547 12.881C34.2456 10.578 35.6118 7.53343 35.924 3.96188C36.0411 2.65426 36.0216 1.32713 36.0606 0Z" fill="#E9E9E9"/>
<path d="M31.4543 44.4004C31.9227 43.6197 32.4107 42.839 32.762 41.9803C33.2499 40.7508 33.1718 39.5798 32.4887 38.4283C31.9227 37.4915 31.2397 36.6523 30.5956 35.7935C29.4636 34.2908 28.5854 32.6709 28.2731 30.7973C27.8828 28.4553 28.5073 26.3475 29.8345 24.4348C30.9664 22.7759 32.4497 21.4488 34.1086 20.2973C37.3093 18.0919 40.8419 16.6282 44.6671 15.8085C44.6671 15.9646 44.55 15.9646 44.472 16.0037C44.3939 16.0427 44.3158 16.0817 44.2377 16.1403C40.9589 17.9943 37.8948 20.1217 35.3186 22.893C34.4404 23.8493 33.6597 24.8837 33.1328 26.0743C32.5473 27.4209 32.5863 28.748 33.2499 30.0752C33.8159 31.1876 34.538 32.1634 35.2406 33.1978C35.787 34.0175 36.314 34.8372 36.6848 35.7545C37.3484 37.4134 37.1727 38.9943 36.1579 40.458C34.9869 42.1755 33.3475 43.327 31.63 44.4199C31.591 44.4394 31.5129 44.4199 31.4739 44.4199L31.4543 44.4004Z" fill="#E9E9E9"/>
<path d="M12.191 66.6104C11.508 66.7275 10.8249 66.8251 10.1418 66.9617C8.89272 67.2154 7.64366 67.5081 6.47266 68.0546C6.12136 68.2302 5.78958 68.4254 5.51635 68.7182C5.06747 69.2061 5.10649 69.655 5.69199 69.9868C6.45314 70.4356 7.33139 70.6308 8.19012 70.8065C11.6836 71.5091 15.2356 71.8799 18.8072 71.997C24.7207 72.1921 30.6343 71.9774 36.5283 71.5871C40.3341 71.3334 44.1398 71.0211 47.8675 70.1039C48.7067 69.9087 49.5264 69.655 50.3071 69.2451C51.1853 68.7767 51.361 68.3669 51.0877 67.4301C50.9901 67.1178 51.1268 67.1373 51.3414 67.1568C52.0831 67.2544 52.4344 68.2302 51.9465 68.9328C51.6927 69.3037 51.3219 69.5769 50.9511 69.8111C49.5069 70.7869 47.887 71.3724 46.2281 71.8603C43.3201 72.6996 40.3341 73.1485 37.3285 73.4607C32.3517 73.9682 27.375 74.1243 22.3787 74.0852C17.8899 74.0462 13.4011 73.9291 8.93177 73.4412C6.64832 73.207 4.38438 72.9142 2.21803 72.1336C1.8277 71.997 1.43737 71.8213 1.10558 71.5676C0.461534 71.0797 0.363943 70.4942 0.79331 69.8306C1.08606 69.4013 1.47639 69.089 1.90576 68.8157C3.21337 67.996 4.67713 67.5472 6.17991 67.1764C7.93641 66.747 9.71243 66.4738 11.508 66.4738C11.7226 66.4738 11.9568 66.4933 12.1715 66.5128C12.1715 66.5518 12.1715 66.5713 12.1715 66.6104H12.191Z" fill="#E9E9E9"/>
<path d="M17.8306 61.0092C17.2451 62.1411 17.4208 62.6095 18.6113 62.9413C19.6652 63.2536 20.7777 63.2926 21.8706 63.3316C24.5444 63.4292 27.2182 63.4097 29.8919 63.2341C31.6875 63.117 33.4635 62.9218 35.22 62.4729C35.4152 62.4144 35.6298 62.3753 35.825 62.4924C37.0546 63.234 38.2841 63.9757 39.6893 64.5027C39.2014 64.7954 38.733 64.9125 38.2646 65.0491C35.864 65.7127 33.444 66.3958 30.9654 66.6495C26.7107 67.0984 22.4561 67.0593 18.26 65.9859C17.2061 65.7127 16.1913 65.3419 15.3325 64.6393C14.4348 63.8976 14.4152 63.0194 15.2544 62.2387C15.9766 61.5751 16.8353 61.2238 17.8502 61.0092H17.8306Z" fill="#E9E9E9"/>
<path d="M16.0946 52.9487C16.036 53.2415 15.8214 53.3586 15.7043 53.5147C15.2359 54.1588 15.353 54.7247 16.036 55.1151C16.8362 55.5639 17.7145 55.7006 18.5927 55.8177C21.4422 56.1494 24.2916 56.0323 27.141 55.8762C29.8343 55.7201 32.5081 55.4664 35.1624 55.1151C35.8845 55.0175 36.6066 54.9004 37.3092 54.7638C37.6605 54.7052 37.9337 54.7247 38.207 54.9785C38.9291 55.642 39.7683 56.1494 40.7441 56.4617C40.549 56.6569 40.3148 56.7154 40.0806 56.774C36.9579 57.6717 33.7962 58.3548 30.5564 58.5695C28.4681 58.7061 26.3799 58.7647 24.2721 58.7061C21.208 58.6086 18.1243 58.4329 15.1383 57.6718C14.4357 57.4961 13.7331 57.2814 13.1281 56.8325C12.3084 56.247 12.1717 55.4273 12.8158 54.6271C13.6355 53.5928 14.787 53.1634 16.0751 52.9292L16.0946 52.9487Z" fill="#E9E9E9"/>
<path d="M18.9441 44.4199C18.4366 44.5565 17.9292 44.7126 17.4218 44.8492C15.997 45.2396 14.5918 45.6299 13.2647 46.313C12.8744 46.5082 12.5036 46.7424 12.2108 47.0351C11.801 47.4449 11.84 47.7963 12.3865 48.05C13.2842 48.4598 14.2405 48.5964 15.1969 48.7135C18.6123 49.1234 22.0472 49.0453 25.4821 48.9282C31.0639 48.7331 36.6261 48.1476 42.1494 47.2888C42.5787 47.2303 43.0081 47.1522 43.4179 47.0741C43.4765 47.0741 43.535 47.0741 43.7302 47.0741C43.5155 47.2303 43.3789 47.3083 43.2618 47.4059C41.2321 48.9282 38.8706 49.5723 36.3919 49.865C33.3278 50.2359 30.2442 50.4115 27.141 50.5091C24.3697 50.5871 21.5788 50.6067 18.8074 50.5286C15.6848 50.4505 12.5621 50.392 9.47848 49.865C8.73685 49.7284 7.99521 49.5918 7.29261 49.2795C6.96083 49.1234 6.57049 48.9673 6.53146 48.5379C6.49243 48.1085 6.82421 47.8743 7.13647 47.6596C8.32699 46.879 9.65413 46.3911 11.0008 45.9422C13.1281 45.2201 15.2944 44.6541 17.5389 44.4004C17.7535 44.3809 17.9877 44.3613 18.2024 44.3613C18.4561 44.3613 18.6903 44.3613 18.9441 44.3613C18.9441 44.3808 18.9441 44.4199 18.9441 44.4394V44.4199Z" fill="#E9E9E9"/>
<path d="M55.4784 70.8456C55.3418 71.5677 54.9905 71.997 54.6002 72.4069C53.273 73.7535 51.6141 74.5342 49.8771 75.1783C46.8521 76.2907 43.6904 76.8567 40.4896 77.208C36.4887 77.6569 32.4683 77.9301 28.4283 77.9301C22.9637 77.9301 17.5576 77.4617 12.249 76.1541C11.8001 76.037 11.3708 75.9004 10.9609 75.6662C12.4247 75.7833 13.9079 75.9004 15.3717 76.037C17.9869 76.2712 20.6217 76.3883 23.2564 76.4859C26.262 76.603 29.2676 76.6225 32.2536 76.5054C37.6402 76.3102 42.9878 75.8614 48.1987 74.3781C50.3065 73.7731 52.3362 72.9924 54.1903 71.7824C54.6002 71.5091 54.9905 71.2164 55.4784 70.8651V70.8456Z" fill="#E9E9E9"/>
<path d="M44.0615 58.0815C44.2762 57.9449 44.4518 57.8278 44.647 57.7107C46.8719 56.364 48.9602 54.8417 50.6386 52.851C51.4583 51.8947 52.1219 50.8408 52.3756 49.5722C52.8635 47.0741 51.673 45.2395 49.1944 44.6736C48.121 44.4198 47.0476 44.4394 45.9741 44.6931C45.8961 44.7126 45.818 44.7712 45.7204 44.7126C45.7985 44.4979 45.9937 44.4003 46.1693 44.3222C48.6284 43.0927 52.2 43.2684 54.3663 45.8055C55.713 47.4059 55.8691 49.1819 55.0104 51.0555C54.3858 52.4022 53.41 53.4365 52.2585 54.3343C49.9555 56.1103 47.3403 57.2618 44.5689 58.062C44.4323 58.101 44.2957 58.1596 44.1006 58.062L44.0615 58.0815Z" fill="#E9E9E9"/>
<path d="M31.4541 44.4004C31.4541 44.4004 31.4541 44.4394 31.4541 44.4589C31.4541 44.4589 31.4541 44.4589 31.4736 44.4394L31.4541 44.4004Z" fill="#E9E9E9"/>
</svg>
