<svg width="190" height="51" viewBox="0 0 190 51" fill="none" xmlns="http://www.w3.org/2000/svg">
<path fill-rule="evenodd" clip-rule="evenodd" d="M86.7132 31.533C85.3875 31.8389 84.702 31.431 84.702 30.5529C84.702 29.3519 85.9427 28.8703 87.7215 28.8703C88.5034 28.8703 89.2398 28.9383 89.2398 28.9383C89.2398 29.4538 88.1238 31.2101 86.7132 31.533ZM88.0615 19.5C83.8239 19.5 80.7816 21.0579 80.7816 21.0579V25.6411C80.7816 25.6411 84.1411 23.7093 86.8661 23.7093C89.0415 23.7093 89.3078 24.882 89.2115 25.8564C89.2115 25.8564 88.5827 25.6921 86.6678 25.6921C82.1583 25.6921 79.8809 27.7429 79.8809 31.0288C79.8809 34.1447 82.4416 35.4477 84.5944 35.4477C87.7386 35.4477 89.1209 33.3345 89.5458 32.3318C89.8404 31.6349 89.897 31.1647 90.1576 31.1647C90.4635 31.1647 90.3616 31.499 90.3446 32.1958C90.3219 33.4082 90.3786 34.3259 90.5712 35.0964H94.7408V27.5956C94.7408 22.9105 93.0809 19.5 88.0615 19.5Z" fill="#E9E9E9"/>
<path fill-rule="evenodd" clip-rule="evenodd" d="M115.517 27.4815C115.517 26.1105 116.792 24.8641 119.132 24.8641C121.681 24.8641 123.732 26.0935 124.191 26.3711V21.0685C124.191 21.0685 122.57 19.5105 118.593 19.5105C114.401 19.5105 110.906 21.9636 110.906 27.2492C110.906 32.5349 114.078 35.4638 118.582 35.4638C122.1 35.4638 124.202 33.532 124.202 33.532V28.4956C123.539 28.8638 121.687 30.1498 119.16 30.1498C116.486 30.1498 115.523 28.9205 115.523 27.4872L115.517 27.4815ZM59.7655 19.8561C59.7655 19.8561 60.0318 21.0004 59.6805 22.4904C59.4992 23.2495 59.1763 23.8954 59.5672 23.8954C59.8391 23.8954 59.8392 23.6688 60.1961 22.8587C60.7173 21.669 61.8107 19.5105 64.3714 19.5105C66.9321 19.5105 67.9518 20.9891 68.3314 22.3715C68.6203 23.4252 68.3654 23.8954 68.7223 23.8954C68.9715 23.8954 69.0622 23.3516 69.3681 22.6604C69.9233 21.4254 71.1243 19.5105 73.5604 19.5105C77.2371 19.5105 78.6365 22.1618 78.6365 26.1445V35.1126H73.1808V26.847C73.1808 25.4703 72.9599 24.1333 71.7022 24.1333C70.5408 24.1333 69.997 26.1955 69.997 27.5268V35.1183H64.4393V26.847C64.4393 25.0851 64.1901 24.1333 62.9494 24.1333C61.8786 24.1333 61.2498 26.0312 61.2498 27.5268V35.1126H55.7148V19.8617H59.7712L59.7655 19.8561ZM96.5613 19.8787C96.5613 19.8787 97.5074 20.4226 99.3316 20.4226C101.156 20.4226 102.096 19.8787 102.096 19.8787V35.1126H96.5613V19.8787ZM142.263 19.8787C142.263 19.8787 143.209 20.4226 145.039 20.4226C146.869 20.4226 147.803 19.8787 147.803 19.8787V35.1126H142.269V19.8787H142.263ZM109.427 15.2389V35.1069H103.892V15.2389H109.427ZM130.768 15.2389C130.768 15.2389 130.995 15.8111 130.995 17.5107C130.995 20.0204 130.451 22.0599 130.19 22.836C130.054 23.2496 129.811 23.8841 130.162 23.8954C130.366 23.9011 130.485 23.6008 130.734 23.0683C130.978 22.5414 132.201 19.5048 135.402 19.5048C139.815 19.5048 140.467 23.1193 140.467 27.0339V35.1069H134.932V26.7054C134.932 24.9831 134.569 24.1277 133.414 24.1277C132.02 24.1277 131.527 26.2861 131.527 27.5212V35.1069H125.992V15.2389H130.774H130.768ZM153.724 19.8561C153.724 19.8561 153.99 21.0004 153.639 22.4904C153.457 23.2495 153.134 23.8954 153.525 23.8954C153.797 23.8954 153.797 23.6688 154.154 22.8587C154.675 21.669 155.769 19.5105 158.33 19.5105C160.89 19.5105 161.882 20.9948 162.29 22.3715C162.562 23.2949 162.324 23.8954 162.68 23.8954C162.93 23.8954 163.02 23.3516 163.326 22.6604C163.881 21.4254 165.083 19.5105 167.519 19.5105C171.19 19.5105 172.595 22.1618 172.595 26.1445V35.1126H167.139V26.847C167.139 25.4703 166.918 24.1333 165.66 24.1333C164.499 24.1333 163.955 26.1955 163.955 27.5268V35.1183H158.398V26.847C158.398 25.0851 158.148 24.1333 156.908 24.1333C155.837 24.1333 155.208 26.0312 155.208 27.5268V35.1126H149.673V19.8617H153.729L153.724 19.8561ZM99.309 15.0859C97.4394 15.0859 95.9211 16.0774 95.9211 17.2954C95.9211 18.5134 97.4394 19.5048 99.309 19.5048C101.178 19.5048 102.697 18.5134 102.697 17.2954C102.697 16.0774 101.178 15.0859 99.309 15.0859ZM145.011 15.0859C143.141 15.0859 141.623 16.0774 141.623 17.2954C141.623 18.5134 143.141 19.5048 145.011 19.5048C146.88 19.5048 148.398 18.5134 148.398 17.2954C148.398 16.0774 146.88 15.0859 145.011 15.0859Z" fill="#E9E9E9"/>
<path fill-rule="evenodd" clip-rule="evenodd" d="M182.022 31.8217C180.753 31.8217 179.818 30.2128 179.818 27.9694C179.818 25.7259 180.776 24.117 181.977 24.117C183.518 24.117 184.175 25.5276 184.175 27.9694C184.175 30.4111 183.569 31.8217 182.022 31.8217ZM183.54 19.4998C180.696 19.4998 179.393 21.6299 178.827 22.848C178.453 23.6524 178.47 23.8847 178.198 23.8847C177.801 23.8847 178.13 23.2389 178.311 22.4797C178.662 20.9898 178.396 19.8454 178.396 19.8454H174.34V39.2999H179.875V33.1304C180.526 34.2408 181.744 35.4305 183.614 35.4305C187.619 35.4305 189.63 32.0427 189.63 27.4708C189.63 22.2871 187.217 19.4941 183.546 19.4941" fill="#E9E9E9"/>
<path fill-rule="evenodd" clip-rule="evenodd" d="M36.1392 24.1046C36.5131 24.0593 36.87 24.0593 37.1986 24.1046C37.3912 23.6684 37.4196 22.9206 37.2496 22.1048C36.9947 20.8924 36.6547 20.156 35.9466 20.2693C35.2384 20.3826 35.2101 21.2607 35.4651 22.4787C35.6067 23.1642 35.8616 23.7477 36.1449 24.1046" fill="#E9E9E9"/>
<path fill-rule="evenodd" clip-rule="evenodd" d="M30.0539 25.0623C30.5637 25.2833 30.8753 25.4306 30.9943 25.3059C31.0736 25.2266 31.0509 25.0736 30.9263 24.8754C30.677 24.4675 30.1615 24.0539 29.612 23.8216C28.4959 23.3401 27.1646 23.4987 26.1335 24.2409C25.7936 24.4901 25.4707 24.8357 25.516 25.0453C25.533 25.1133 25.584 25.1643 25.703 25.1813C25.9805 25.2153 26.9606 24.7167 28.088 24.6487C28.8811 24.5978 29.544 24.847 30.0482 25.0736" fill="#E9E9E9"/>
<path fill-rule="evenodd" clip-rule="evenodd" d="M29.0318 25.646C28.369 25.748 28.0064 25.969 27.7741 26.1729C27.5758 26.3485 27.4512 26.5412 27.4512 26.6771C27.4512 26.7394 27.4795 26.7791 27.5022 26.7961C27.5305 26.8244 27.5702 26.8358 27.6098 26.8358C27.7571 26.8358 28.0913 26.6998 28.0913 26.6998C29.0091 26.3712 29.6153 26.4109 30.2215 26.4789C30.5557 26.5185 30.7087 26.5355 30.7823 26.4222C30.805 26.3882 30.8277 26.3202 30.7654 26.2126C30.6124 25.9633 29.9439 25.5384 29.0318 25.646Z" fill="#E9E9E9"/>
<path fill-rule="evenodd" clip-rule="evenodd" d="M34.0828 27.7814C34.5303 28.0024 35.0232 27.9174 35.1875 27.5888C35.3518 27.2602 35.1139 26.8183 34.6663 26.5974C34.2188 26.3764 33.7259 26.4614 33.5616 26.79C33.4029 27.1186 33.6352 27.5605 34.0828 27.7814Z" fill="#E9E9E9"/>
<path fill-rule="evenodd" clip-rule="evenodd" d="M36.9692 25.2598C36.6066 25.2542 36.3007 25.6564 36.295 26.1549C36.2893 26.6535 36.5726 27.067 36.9408 27.0727C37.3091 27.0784 37.6093 26.6761 37.615 26.1776C37.6206 25.6791 37.3374 25.2655 36.9692 25.2598Z" fill="#E9E9E9"/>
<path fill-rule="evenodd" clip-rule="evenodd" d="M12.4903 34.2742C12.3996 34.1609 12.2523 34.1949 12.105 34.2289C12.003 34.2515 11.8897 34.2798 11.7651 34.2798C11.4988 34.2798 11.2722 34.1609 11.1419 33.9626C10.9776 33.7076 10.9833 33.3281 11.1702 32.8919L11.2552 32.6992C11.5498 32.0421 12.037 30.943 11.4875 29.9006C11.0739 29.1131 10.3998 28.6203 9.58965 28.5183C8.81351 28.422 8.00904 28.7109 7.49917 29.2718C6.6947 30.1612 6.56441 31.3736 6.72303 31.7985C6.77968 31.9571 6.87033 31.9968 6.93264 32.0081C7.06861 32.0251 7.27256 31.9288 7.3972 31.5832L7.43119 31.4699C7.48784 31.2886 7.59546 30.9543 7.76542 30.6824C7.97503 30.3595 8.29798 30.1329 8.67755 30.0536C9.06279 29.9686 9.45934 30.0422 9.79359 30.2632C10.3601 30.6314 10.5754 31.3226 10.3375 31.9854C10.2128 32.3253 10.0089 32.9825 10.0542 33.515C10.1448 34.6028 10.8133 35.039 11.4138 35.0843C11.9974 35.107 12.4053 34.7784 12.5073 34.5404C12.5696 34.3988 12.5186 34.3139 12.4846 34.2742" fill="#E9E9E9"/>
<path fill-rule="evenodd" clip-rule="evenodd" d="M18.0352 14.3261C19.9387 12.128 22.2785 10.2131 24.3803 9.1424C24.4539 9.10274 24.5276 9.18204 24.4936 9.25569C24.3293 9.55595 24.0064 10.2018 23.9044 10.6947C23.8874 10.7683 23.9724 10.8306 24.0347 10.7853C25.3377 9.89587 27.6095 8.93844 29.6036 8.81947C29.6886 8.81947 29.7283 8.92145 29.6603 8.9781C29.3544 9.21038 29.0258 9.53329 28.7822 9.85621C28.7425 9.91286 28.7822 9.99219 28.8502 9.99219C30.2495 10.0035 32.221 10.4907 33.507 11.2102C33.592 11.2612 33.5296 11.4255 33.4333 11.4028C31.4901 10.9553 28.3063 10.621 24.9978 11.4255C22.0462 12.145 19.7914 13.2554 18.1485 14.4507C18.0635 14.5131 17.9672 14.3997 18.0352 14.3261ZM35.3595 36.5565C35.4162 36.5339 35.4559 36.4715 35.4502 36.4036C35.4445 36.3243 35.3709 36.2676 35.2915 36.2733C35.2915 36.2733 31.2296 36.8738 27.3942 35.4688C27.8134 34.1092 28.9238 34.602 30.6007 34.738C33.6259 34.9193 36.3396 34.4774 38.3451 33.8995C40.0844 33.401 42.3674 32.4153 44.1407 31.0159C44.7355 32.3303 44.9508 33.7749 44.9508 33.7749C44.9508 33.7749 45.4153 33.6899 45.8006 33.9279C46.1688 34.1545 46.4351 34.619 46.2482 35.8314C45.8742 38.0918 44.9168 39.9217 43.3022 41.6099C42.3221 42.6693 41.1268 43.5871 39.7614 44.2556C39.0363 44.6352 38.2658 44.9638 37.45 45.23C31.3655 47.2185 25.1394 45.0317 23.1339 40.3409C22.9753 39.9897 22.8393 39.6215 22.7317 39.2306C21.8762 36.1373 22.6014 32.4323 24.8731 30.0982C25.0148 29.9509 25.1564 29.7752 25.1564 29.5543C25.1564 29.373 25.0374 29.1747 24.9355 29.0387C24.1423 27.8887 21.389 25.9229 21.9442 22.1272C22.3408 19.3965 24.7259 17.476 26.9523 17.5893L27.5132 17.6233C28.4763 17.6799 29.3204 17.8046 30.1135 17.8386C31.4448 17.8952 32.6345 17.7026 34.0509 16.5242C34.5267 16.1277 34.912 15.7821 35.5578 15.6744C35.6258 15.6631 35.7957 15.6008 36.1357 15.6178C36.4812 15.6348 36.8098 15.7311 37.1044 15.9294C38.2375 16.6828 38.4018 18.5127 38.4584 19.8497C38.4924 20.6145 38.5831 22.4614 38.617 22.9883C38.6907 24.2006 39.008 24.3706 39.6538 24.5859C40.0164 24.7048 40.3506 24.7955 40.8492 24.9314C42.3504 25.3507 43.2399 25.7812 43.8008 26.3308C44.135 26.6763 44.2936 27.0389 44.3389 27.3845C44.5146 28.6762 43.3362 30.2738 40.2146 31.7184C36.7985 33.3047 32.6572 33.7069 29.7962 33.384L28.7935 33.2707C26.5048 32.9648 25.1961 35.922 26.5727 37.9502C27.4565 39.2589 29.8699 40.1087 32.2833 40.1087C37.8126 40.1087 42.0672 37.7462 43.6478 35.7067L43.7724 35.5255C43.8517 35.4065 43.7838 35.3442 43.6875 35.4121C42.3958 36.2959 36.6569 39.8084 30.5157 38.749C30.5157 38.749 29.7679 38.6244 29.0881 38.3638C28.5442 38.1541 27.4112 37.633 27.2752 36.4716C32.2323 38.0069 35.3482 36.5565 35.3482 36.5565H35.3595ZM8.14368 24.7785C6.42144 25.1127 4.90313 26.0928 3.97403 27.4412C3.41883 26.9766 2.38212 26.0815 2.20083 25.7302C0.716539 22.9146 3.82109 17.442 5.98522 14.3488C11.3389 6.70634 19.7234 0.927788 23.6041 1.97586C24.233 2.15715 26.3234 4.57621 26.3234 4.57621C26.3234 4.57621 22.4427 6.72899 18.8453 9.73157C13.9959 13.465 10.3361 18.8923 8.13801 24.7785H8.14368ZM11.0386 37.7009C10.778 37.7463 10.5117 37.7632 10.2455 37.7576C7.65078 37.6896 4.85217 35.3555 4.57458 32.5852C4.26865 29.526 5.83225 27.1692 8.59689 26.614C8.92547 26.546 9.3277 26.5064 9.75826 26.529C11.3105 26.614 13.5936 27.8037 14.1148 31.1859C14.5794 34.1771 13.8429 37.225 11.0386 37.7009ZM46.1632 32.285C46.1405 32.2056 45.9989 31.6788 45.7949 31.0386C45.5966 30.3984 45.3927 29.9509 45.3927 29.9509C46.1915 28.7555 46.2028 27.6904 46.0952 27.0843C45.9819 26.3364 45.6703 25.6963 45.0415 25.0334C44.4126 24.3763 43.1266 23.6964 41.3194 23.1866L40.3733 22.9259C40.3733 22.8863 40.3223 20.6882 40.2826 19.7477C40.2543 19.0679 40.192 18.0028 39.8634 16.9548C39.4668 15.5328 38.787 14.2921 37.9259 13.499C40.2883 11.0516 41.7613 8.35492 41.7613 6.03783C41.7556 1.59061 36.2886 0.242284 29.5526 3.02959L28.125 3.63577C28.125 3.63577 25.5473 1.10341 25.5076 1.06942C17.8312 -5.62691 -6.17807 21.0564 1.49268 27.5431L3.16957 28.9651C2.73335 30.0925 2.56338 31.3842 2.70502 32.7722C2.8863 34.5567 3.80408 36.2676 5.29404 37.5876C6.71035 38.8396 8.57424 39.6384 10.3758 39.6328C13.3614 46.516 20.188 50.7367 28.193 50.9746C36.7758 51.2295 43.982 47.2016 47.0016 39.967C47.1999 39.4572 48.0384 37.1741 48.0384 35.1516C48.0384 33.1291 46.8883 32.2793 46.1575 32.2793" fill="#E9E9E9"/>
</svg>
