<svg width="152" height="43" viewBox="0 0 152 43" fill="none" xmlns="http://www.w3.org/2000/svg">
<mask id="mask0_4371_14133" style="mask-type:luminance" maskUnits="userSpaceOnUse" x="0" y="0" width="152" height="43">
<path d="M151.138 0H0V42.6875H151.138V0Z" fill="white"/>
</mask>
<g mask="url('#mask0_4371_14133')">
<path d="M141.73 23.2926C138.884 23.2926 137.185 24.4913 137.185 26.4725C137.185 28.6202 138.867 29.2196 141.614 29.486C144.894 29.8023 145.143 30.2684 145.143 30.9011C145.143 31.9999 144.244 32.4661 142.147 32.4661C139.5 32.4661 138.917 31.8168 138.717 30.5182C138.7 30.385 138.584 30.2684 138.434 30.2684H137.135C136.936 30.2684 136.836 30.3683 136.836 30.5681C136.836 32.233 137.751 34.1809 142.13 34.1809C145.293 34.1809 147.125 32.9655 147.125 30.8178C147.125 28.6702 145.643 28.1207 142.58 27.7212C139.483 27.3216 139.183 27.1218 139.183 26.4059C139.183 25.8232 139.433 25.0241 141.73 25.0241C143.778 25.0241 144.544 25.4569 144.86 26.8221C144.894 26.9553 145.01 27.0552 145.143 27.0552H146.442C146.442 27.0552 146.592 27.0053 146.659 26.9553C146.709 26.8887 146.758 26.8221 146.742 26.7389C146.542 24.3914 144.944 23.2926 141.747 23.2926H141.73ZM139.05 15.168C138.684 15.168 138.318 15.2346 138.001 15.4177L127.979 21.1116C127.329 21.4779 126.93 22.1771 126.93 22.9097V34.2641C126.93 34.9967 127.329 35.6959 127.979 36.0622L130.592 37.544C131.858 38.16 132.341 38.1433 132.907 38.1433C134.788 38.1433 135.87 37.0279 135.87 35.0633V23.8586C135.87 23.6922 135.737 23.5923 135.57 23.5923H134.322C134.155 23.5923 134.022 23.7088 134.022 23.8586V35.0799C134.022 35.9457 133.106 36.8114 131.625 36.0789L128.911 34.5139C128.811 34.4639 128.744 34.364 128.744 34.2641V22.9097C128.744 22.8098 128.811 22.6932 128.911 22.6433L138.917 16.966C139.017 16.9161 139.117 16.9161 139.217 16.966L149.222 22.6433C149.322 22.6932 149.389 22.8098 149.389 22.9097V34.2641C149.389 34.3807 149.339 34.4806 149.239 34.5305L139.217 40.2078C139.133 40.2577 139.017 40.2577 138.917 40.2078L136.336 38.7094C136.336 38.7094 136.153 38.6761 136.087 38.7094C135.371 39.1089 135.237 39.1589 134.572 39.3753C134.405 39.4253 134.155 39.5252 134.655 39.7916L138.018 41.7395C138.334 41.9226 138.7 42.0058 139.067 42.0058C139.433 42.0058 139.783 41.9226 140.116 41.7395L150.138 36.0622C150.787 35.6959 151.187 34.9967 151.187 34.2641V22.9097C151.187 22.1771 150.787 21.4779 150.138 21.1116L140.116 15.4177C139.799 15.2346 139.45 15.168 139.067 15.168H139.05Z" fill="#E9E9E9"/>
<path d="M75.5012 24.4739C75.5012 24.4739 75.6179 24.4739 75.6678 24.5072L79.3139 26.5717C79.4138 26.6216 79.4803 26.7381 79.4803 26.838V30.9836C79.4803 31.1001 79.4138 31.2 79.3139 31.25L75.6678 33.3144C75.5679 33.3644 75.4514 33.3644 75.3515 33.3144L71.7054 31.25C71.6055 31.2 71.5389 31.0835 71.5389 30.9836V26.838C71.5389 26.7215 71.6055 26.6216 71.7054 26.5717L75.3515 24.5072C75.3515 24.5072 75.4513 24.4739 75.5012 24.4739ZM107.251 15.4836C107.017 15.4836 106.818 15.5335 106.618 15.65L95.9959 21.6769C95.5963 21.91 95.3634 22.3096 95.3634 22.7591V34.8128C95.3634 35.2623 95.6297 35.6786 96.0293 35.895L106.568 41.8053C106.951 42.0217 107.434 42.0384 107.817 41.822L114.193 38.3257C114.393 38.2092 114.526 38.0094 114.526 37.7763C114.526 37.5432 114.41 37.3434 114.21 37.2269L103.521 31.2C103.321 31.0835 103.188 30.867 103.188 30.634V26.8713C103.188 26.6382 103.338 26.4385 103.521 26.3219L106.834 24.4406C107.034 24.3241 107.267 24.3241 107.467 24.4406L110.797 26.3219C111.013 26.4385 111.113 26.6216 111.113 26.8713V29.8348C111.113 30.0846 111.213 30.251 111.429 30.3842C111.629 30.5008 111.862 30.5008 112.062 30.3842L118.422 26.7382C118.821 26.5051 119.055 26.1055 119.055 25.656V22.7424C119.055 22.2596 118.838 21.8933 118.422 21.6603L107.867 15.6334C107.667 15.5168 107.45 15.4669 107.234 15.4669L107.251 15.4836ZM11.8529 15.3337C11.6531 15.3337 11.4534 15.3837 11.2702 15.4836L0.648288 21.5104C0.215419 21.7435 0.015625 22.1098 0.015625 22.5926V38.7586C0.0322738 38.9917 0.148836 39.1914 0.348621 39.308C0.548407 39.4245 0.798147 39.4245 0.981284 39.308L7.27448 35.7451C7.67405 35.5121 7.94047 35.1125 7.94047 34.663V27.1044C7.94047 26.6549 8.17356 26.2387 8.57313 26.0223L11.2536 24.4906C11.4534 24.374 11.6698 24.3241 11.8862 24.3241C12.1193 24.3241 12.3191 24.374 12.5189 24.4906L15.1993 26.0223C15.5989 26.2387 15.832 26.6549 15.832 27.1044V34.663C15.832 35.1125 16.0983 35.5287 16.4979 35.7451L22.7912 39.308C22.991 39.4245 23.2407 39.4245 23.4238 39.308C23.6236 39.1914 23.7402 38.9917 23.7402 38.7586V22.5926C23.7568 22.1098 23.557 21.7435 23.1242 21.5104L12.5022 15.4836C12.3191 15.3837 12.1359 15.3504 11.9195 15.3337H11.7863H11.8529ZM80.1463 0.283203C80.0298 0.283203 79.9299 0.316493 79.83 0.36644C79.6136 0.482981 79.5137 0.666121 79.5137 0.915853V16.9154C79.5137 17.0652 79.4471 17.215 79.2972 17.2983C79.1474 17.3815 78.9975 17.3815 78.8477 17.2983L76.1839 15.7999C75.751 15.5502 75.3348 15.5502 74.9019 15.7999L64.28 21.8267C63.8804 22.0598 63.6473 22.4927 63.6473 22.9422V34.996C63.6473 35.4788 63.8637 35.845 64.28 36.0781L74.9019 42.105C75.3348 42.3547 75.751 42.3547 76.1839 42.105L86.8058 36.0781C87.2387 35.845 87.4385 35.4788 87.4385 34.996V4.96151C87.4385 4.512 87.1887 4.07913 86.7725 3.84605L80.446 0.36644C80.3461 0.316493 80.2296 0.299843 80.1297 0.299843L80.1463 0.283203Z" fill="#E9E9E9"/>
<path d="M107.215 26.1711C107.215 26.1711 107.132 26.1711 107.082 26.1878L105.034 27.3532C104.951 27.4032 104.901 27.4698 104.901 27.5696V29.8672C104.901 29.9504 104.951 30.0337 105.034 30.0836L107.082 31.2324C107.082 31.2324 107.232 31.2823 107.315 31.2324L109.363 30.0836C109.363 30.0836 109.496 29.9671 109.496 29.8672V27.5696C109.496 27.4864 109.446 27.4032 109.363 27.3532L107.315 26.1878C107.315 26.1878 107.248 26.1711 107.215 26.1711ZM43.733 15.416C43.4999 15.416 43.3001 15.466 43.1003 15.5825L32.4784 21.5927C32.0788 21.8258 31.8457 22.2587 31.8457 22.7082V34.7619C31.8457 35.2447 32.0621 35.611 32.4784 35.8441L43.1003 41.871C43.5332 42.1207 43.9493 42.1207 44.3822 41.871L55.0041 35.8441C55.437 35.5944 55.6368 35.2447 55.6368 34.7619V22.7082C55.6368 22.2587 55.4037 21.8258 55.0041 21.5927L44.3822 15.5825C44.1824 15.466 43.9661 15.416 43.7496 15.416H43.733Z" fill="#E9E9E9"/>
</g>
</svg>
