<svg width="162" height="40" viewBox="0 0 162 40" fill="none" xmlns="http://www.w3.org/2000/svg">
<path d="M156.668 30.2738C155.712 30.2738 154.822 30.1184 153.997 29.8077C153.185 29.485 152.473 29.0369 151.864 28.4633C151.266 27.8777 150.8 27.1905 150.466 26.4018C150.131 25.6131 149.964 24.7526 149.964 23.8205C149.964 22.8883 150.131 22.0279 150.466 21.2392C150.8 20.4504 151.272 19.7692 151.882 19.1956C152.491 18.61 153.202 18.1619 154.015 17.8512C154.828 17.5285 155.718 17.3672 156.686 17.3672C157.714 17.3672 158.652 17.5464 159.5 17.905C160.349 18.2515 161.066 18.7714 161.651 19.4645L160.146 20.8806C159.692 20.3907 159.184 20.0262 158.622 19.7872C158.06 19.5362 157.451 19.4107 156.794 19.4107C156.136 19.4107 155.533 19.5183 154.983 19.7334C154.445 19.9485 153.973 20.2532 153.567 20.6476C153.173 21.042 152.862 21.5081 152.635 22.0458C152.42 22.5836 152.312 23.1752 152.312 23.8205C152.312 24.4658 152.42 25.0574 152.635 25.5951C152.862 26.1329 153.173 26.599 153.567 26.9933C153.973 27.3877 154.445 27.6925 154.983 27.9076C155.533 28.1227 156.136 28.2302 156.794 28.2302C157.451 28.2302 158.06 28.1107 158.622 27.8717C159.184 27.6208 159.692 27.2443 160.146 26.7424L161.651 28.1765C161.066 28.8576 160.349 29.3775 159.5 29.736C158.652 30.0945 157.708 30.2738 156.668 30.2738Z" fill="#E9E9E9"/>
<path d="M138.31 26.043V24.1787H143.239V26.043H138.31Z" fill="#E9E9E9"/>
<path d="M127.188 30.2202C126.124 30.2202 125.192 30.0111 124.391 29.5928C123.602 29.1626 122.987 28.577 122.545 27.8361C122.115 27.0951 121.899 26.2526 121.899 25.3085C121.899 24.3525 122.109 23.51 122.527 22.781C122.957 22.0401 123.543 21.4605 124.284 21.0422C125.036 20.6239 125.891 20.4148 126.847 20.4148C127.779 20.4148 128.61 20.618 129.339 21.0243C130.068 21.4306 130.641 22.0042 131.06 22.7452C131.478 23.4861 131.687 24.3585 131.687 25.3623C131.687 25.4579 131.681 25.5655 131.669 25.685C131.669 25.8045 131.663 25.918 131.651 26.0256H123.674V24.5377H130.468L129.59 25.0038C129.602 24.4541 129.488 23.9701 129.249 23.5518C129.01 23.1335 128.681 22.8049 128.263 22.5659C127.857 22.3269 127.385 22.2074 126.847 22.2074C126.297 22.2074 125.813 22.3269 125.395 22.5659C124.989 22.8049 124.666 23.1395 124.427 23.5697C124.2 23.988 124.086 24.484 124.086 25.0576V25.4161C124.086 25.9897 124.218 26.4976 124.481 26.9398C124.744 27.382 125.114 27.7226 125.592 27.9616C126.07 28.2006 126.62 28.3201 127.241 28.3201C127.779 28.3201 128.263 28.2364 128.693 28.0691C129.124 27.9018 129.506 27.6389 129.841 27.2804L131.042 28.6607C130.611 29.1626 130.068 29.551 129.41 29.8258C128.765 30.0888 128.024 30.2202 127.188 30.2202Z" fill="#E9E9E9"/>
<path d="M115.132 30.0941L111.027 20.5217H113.358L116.889 28.9648H115.742L119.399 20.5217H121.55L117.445 30.0941H115.132Z" fill="#E9E9E9"/>
<path d="M107.405 30.0943V20.522H109.646V30.0943H107.405ZM108.535 18.9445C108.116 18.9445 107.77 18.813 107.495 18.5501C107.232 18.2872 107.101 17.9705 107.101 17.6001C107.101 17.2176 107.232 16.9009 107.495 16.65C107.77 16.3871 108.116 16.2556 108.535 16.2556C108.953 16.2556 109.294 16.3811 109.556 16.6321C109.831 16.8711 109.969 17.1758 109.969 17.5463C109.969 17.9406 109.837 18.2753 109.574 18.5501C109.311 18.813 108.965 18.9445 108.535 18.9445Z" fill="#E9E9E9"/>
<path d="M103.411 30.2198C102.359 30.2198 101.547 29.951 100.973 29.4132C100.399 28.8635 100.113 28.0568 100.113 26.9932V18.4067H102.353V26.9394C102.353 27.3935 102.467 27.7461 102.694 27.997C102.933 28.248 103.262 28.3735 103.68 28.3735C104.182 28.3735 104.6 28.242 104.935 27.9791L105.562 29.5745C105.299 29.7896 104.976 29.951 104.594 30.0585C104.212 30.1661 103.817 30.2198 103.411 30.2198ZM98.5352 22.3863V20.5937H104.917V22.3863H98.5352Z" fill="#E9E9E9"/>
<path d="M93.6601 30.2202C92.6562 30.2202 91.7599 30.0111 90.9712 29.5928C90.1944 29.1626 89.5849 28.577 89.1427 27.8361C88.7006 27.0951 88.4795 26.2526 88.4795 25.3085C88.4795 24.3525 88.7006 23.51 89.1427 22.781C89.5849 22.0401 90.1944 21.4605 90.9712 21.0422C91.7599 20.6239 92.6562 20.4148 93.6601 20.4148C94.5922 20.4148 95.4108 20.606 96.1159 20.9884C96.8329 21.3589 97.3767 21.9086 97.7471 22.6376L96.0263 23.6414C95.7394 23.1873 95.3869 22.8527 94.9686 22.6376C94.5623 22.4225 94.1201 22.3149 93.6421 22.3149C93.0924 22.3149 92.5965 22.4344 92.1543 22.6734C91.7121 22.9125 91.3655 23.259 91.1146 23.7131C90.8636 24.1553 90.7381 24.6871 90.7381 25.3085C90.7381 25.93 90.8636 26.4677 91.1146 26.9219C91.3655 27.364 91.7121 27.7046 92.1543 27.9436C92.5965 28.1826 93.0924 28.3022 93.6421 28.3022C94.1201 28.3022 94.5623 28.1946 94.9686 27.9795C95.3869 27.7644 95.7394 27.4298 96.0263 26.9756L97.7471 27.9795C97.3767 28.6965 96.8329 29.2522 96.1159 29.6466C95.4108 30.029 94.5922 30.2202 93.6601 30.2202Z" fill="#E9E9E9"/>
<path d="M82.6182 30.2202C81.5546 30.2202 80.6225 30.0111 79.8218 29.5928C79.033 29.1626 78.4176 28.577 77.9754 27.8361C77.5452 27.0951 77.3301 26.2526 77.3301 25.3085C77.3301 24.3525 77.5392 23.51 77.9575 22.781C78.3877 22.0401 78.9733 21.4605 79.7142 21.0422C80.4671 20.6239 81.3216 20.4148 82.2776 20.4148C83.2097 20.4148 84.0403 20.618 84.7693 21.0243C85.4983 21.4306 86.0719 22.0042 86.4902 22.7452C86.9084 23.4861 87.1176 24.3585 87.1176 25.3623C87.1176 25.4579 87.1116 25.5655 87.0996 25.685C87.0996 25.8045 87.0937 25.918 87.0817 26.0256H79.1047V24.5377H85.8986L85.0203 25.0038C85.0322 24.4541 84.9187 23.9701 84.6797 23.5518C84.4407 23.1335 84.112 22.8049 83.6937 22.5659C83.2874 22.3269 82.8154 22.2074 82.2776 22.2074C81.7279 22.2074 81.2439 22.3269 80.8256 22.5659C80.4193 22.8049 80.0966 23.1395 79.8576 23.5697C79.6306 23.988 79.517 24.484 79.517 25.0576V25.4161C79.517 25.9897 79.6485 26.4976 79.9114 26.9398C80.1743 27.382 80.5448 27.7226 81.0228 27.9616C81.5008 28.2006 82.0505 28.3201 82.672 28.3201C83.2097 28.3201 83.6937 28.2364 84.124 28.0691C84.5542 27.9018 84.9366 27.6389 85.2712 27.2804L86.4722 28.6607C86.042 29.1626 85.4983 29.551 84.841 29.8258C84.1957 30.0888 83.4547 30.2202 82.6182 30.2202Z" fill="#E9E9E9"/>
<path d="M71.8464 33.6974C71.4281 33.6974 71.0338 33.6496 70.6633 33.554C70.2809 33.4704 69.9582 33.3329 69.6953 33.1417L70.3406 31.4746C70.6872 31.7256 71.1234 31.8511 71.6492 31.8511C72.0555 31.8511 72.3722 31.7196 72.5993 31.4567C72.8264 31.2057 72.9399 30.8293 72.9399 30.3274V20.522H75.1806V30.2736C75.1806 31.3252 74.8878 32.1558 74.3022 32.7653C73.7286 33.3867 72.91 33.6974 71.8464 33.6974ZM74.0513 18.9445C73.633 18.9445 73.2865 18.813 73.0116 18.5501C72.7487 18.2872 72.6172 17.9705 72.6172 17.6001C72.6172 17.2176 72.7487 16.9009 73.0116 16.65C73.2865 16.3871 73.633 16.2556 74.0513 16.2556C74.4696 16.2556 74.8101 16.3811 75.0731 16.6321C75.3479 16.8711 75.4854 17.1758 75.4854 17.5463C75.4854 17.9406 75.3539 18.2753 75.091 18.5501C74.8281 18.813 74.4815 18.9445 74.0513 18.9445Z" fill="#E9E9E9"/>
<path d="M65.848 30.2199C65.0354 30.2199 64.3124 30.0406 63.679 29.6821C63.0456 29.3236 62.5437 28.7858 62.1732 28.0688C61.8147 27.3398 61.6355 26.4196 61.6355 25.3082C61.6355 24.1849 61.8207 23.2647 62.1912 22.5476C62.5736 21.8306 63.0815 21.2988 63.7149 20.9522C64.3602 20.5937 65.0712 20.4145 65.848 20.4145C66.7921 20.4145 67.6227 20.6176 68.3397 21.0239C69.0687 21.4303 69.6423 21.9979 70.0606 22.7269C70.4908 23.4559 70.7059 24.3163 70.7059 25.3082C70.7059 26.3001 70.4908 27.1606 70.0606 27.8895C69.6423 28.6185 69.0687 29.1921 68.3397 29.6104C67.6227 30.0167 66.7921 30.2199 65.848 30.2199ZM60.542 30.0944V16.7935H62.7827V22.7448L62.6035 25.2903L62.6752 27.8358V30.0944H60.542ZM65.5971 28.3018C66.1348 28.3018 66.6129 28.1823 67.0311 27.9433C67.4614 27.7043 67.8019 27.3577 68.0529 26.9036C68.3039 26.4495 68.4293 25.9177 68.4293 25.3082C68.4293 24.6868 68.3039 24.155 68.0529 23.7128C67.8019 23.2587 67.4614 22.9121 67.0311 22.6731C66.6129 22.4341 66.1348 22.3146 65.5971 22.3146C65.0593 22.3146 64.5753 22.4341 64.1451 22.6731C63.7149 22.9121 63.3743 23.2587 63.1233 23.7128C62.8723 24.155 62.7469 24.6868 62.7469 25.3082C62.7469 25.9177 62.8723 26.4495 63.1233 26.9036C63.3743 27.3577 63.7149 27.7043 64.1451 27.9433C64.5753 28.1823 65.0593 28.3018 65.5971 28.3018Z" fill="#E9E9E9"/>
<path d="M51.5474 30.2738C50.5675 30.2738 49.6652 30.1124 48.8406 29.7898C48.0161 29.4671 47.299 29.019 46.6895 28.4453C46.0801 27.8598 45.608 27.1786 45.2734 26.4018C44.9388 25.6131 44.7715 24.7526 44.7715 23.8205C44.7715 22.8883 44.9388 22.0339 45.2734 21.2571C45.608 20.4684 46.0801 19.7872 46.6895 19.2135C47.299 18.628 48.0161 18.1738 48.8406 17.8512C49.6652 17.5285 50.5615 17.3672 51.5295 17.3672C52.5095 17.3672 53.4058 17.5285 54.2184 17.8512C55.043 18.1738 55.76 18.628 56.3695 19.2135C56.979 19.7872 57.451 20.4684 57.7856 21.2571C58.1202 22.0339 58.2875 22.8883 58.2875 23.8205C58.2875 24.7526 58.1202 25.6131 57.7856 26.4018C57.451 27.1905 56.979 27.8717 56.3695 28.4453C55.76 29.019 55.043 29.4671 54.2184 29.7898C53.4058 30.1124 52.5154 30.2738 51.5474 30.2738ZM51.5295 28.2302C52.1629 28.2302 52.7485 28.1227 53.2862 27.9076C53.824 27.6925 54.2901 27.3877 54.6845 26.9933C55.0788 26.587 55.3836 26.121 55.5987 25.5951C55.8257 25.0574 55.9393 24.4658 55.9393 23.8205C55.9393 23.1752 55.8257 22.5896 55.5987 22.0638C55.3836 21.526 55.0788 21.0599 54.6845 20.6655C54.2901 20.2592 53.824 19.9485 53.2862 19.7334C52.7485 19.5183 52.1629 19.4107 51.5295 19.4107C50.8961 19.4107 50.3106 19.5183 49.7728 19.7334C49.247 19.9485 48.7809 20.2592 48.3746 20.6655C47.9802 21.0599 47.6695 21.526 47.4424 22.0638C47.2273 22.5896 47.1198 23.1752 47.1198 23.8205C47.1198 24.4539 47.2273 25.0394 47.4424 25.5772C47.6695 26.115 47.9802 26.587 48.3746 26.9933C48.7689 27.3877 49.235 27.6925 49.7728 27.9076C50.3106 28.1227 50.8961 28.2302 51.5295 28.2302Z" fill="#E9E9E9"/>
<path d="M32.7264 13.4442C26.3834 17.1673 26.8661 26.113 33.864 29.3707C33.3469 30.5083 32.8988 31.6631 32.33 32.7662C31.2441 34.8346 29.8997 36.7478 28.1933 38.3853C26.5213 39.9882 24.5736 40.3502 22.3846 39.5746C21.4021 39.2298 20.4197 38.8334 19.4027 38.5921C17.6274 38.1785 15.8865 38.4714 14.1973 39.1437C13.7492 39.316 13.301 39.4884 12.8357 39.6435C10.5432 40.4709 8.61274 39.8159 6.99253 38.1095C3.39013 34.3348 1.13216 29.8878 0.287582 24.7341C-0.229508 21.6315 -0.126085 18.5807 1.23559 15.685C2.8041 12.3067 5.44126 10.2728 9.12984 9.65227C11.0431 9.32478 12.8357 9.85908 14.5248 10.6002C16.3002 11.3759 17.9376 11.4104 19.6957 10.6175C22.7293 9.27307 25.8491 9.01453 28.9861 10.4107C30.4857 11.0829 31.7267 12.0481 32.7092 13.4615L32.7264 13.4442Z" fill="#E9E9E9"/>
<path d="M25.2454 0C26.1417 4.34356 21.0915 10.066 17.0237 9.37658C15.9723 5.55011 20.3503 0.517091 25.2454 0Z" fill="#E9E9E9"/>
</svg>
