<svg width="64" height="62" viewBox="0 0 64 62" fill="none" xmlns="http://www.w3.org/2000/svg">
<path fill-rule="evenodd" clip-rule="evenodd" d="M11.2608 0H52.3286C58.5556 0 63.5895 5.0339 63.5895 11.2608V50.7392C63.5895 56.9661 58.5556 62 52.3286 62H11.2608C5.0339 62 0 56.9661 0 50.7392V11.2608C0 5.0339 5.0339 0 11.2608 0ZM14.3084 43.48V16.2162C14.3084 16.0292 14.387 15.9245 14.574 15.9245C15.0227 15.9245 15.4491 15.9245 16.0587 15.8983C16.386 15.8848 16.7202 15.8783 17.065 15.8715H17.065L17.0651 15.8715C17.39 15.8652 17.7242 15.8586 18.0708 15.8459C18.44 15.8324 18.8242 15.8259 19.2224 15.8191L19.2226 15.8191H19.2227C19.5947 15.8128 19.979 15.8062 20.3745 15.7936C21.1973 15.7674 21.9902 15.7674 22.7868 15.7674C24.9597 15.7674 26.7623 16.0329 28.2433 16.5902C29.5672 17.039 30.7864 17.7832 31.7924 18.7631C32.6414 19.612 33.3034 20.6442 33.726 21.7849C34.1224 22.8994 34.3356 24.0363 34.3356 25.2293C34.3356 27.5069 33.8045 29.3881 32.7461 30.8728C31.6877 32.3576 30.203 33.4683 28.4789 34.1041C26.6763 34.7661 24.6904 35.0054 22.5175 35.0054H22.5167C21.8813 35.0054 21.459 35.0054 21.1936 34.9793C20.928 34.9531 20.5578 34.9531 20.0529 34.9531V43.4576C20.0791 43.6446 19.9482 43.8017 19.7612 43.8279H14.6226C14.4094 43.8279 14.3047 43.7231 14.3047 43.4838L14.3084 43.48ZM20.0828 21.0369V29.9379L20.1611 29.9434C20.5017 29.9676 20.8197 29.9902 21.115 29.9902H22.5175C24.3463 29.9902 26.4594 29.5601 27.7384 28.1091C28.8379 26.8599 28.8417 24.3841 27.9516 23.0228C26.8932 21.4072 24.7801 20.9397 22.97 20.9808C22.2819 20.9808 21.6723 20.9808 21.1674 21.007C20.6363 20.9808 20.2661 21.007 20.0828 21.0332V21.0369ZM48.3277 27.424C49.2291 27.611 50.0743 27.9027 50.8709 28.3253H50.8784C50.9831 28.3777 51.114 28.3777 51.3533 28.3253C51.4319 28.2729 51.4842 28.1645 51.4842 28.0598V23.7402C51.4842 23.6355 51.458 23.527 51.4319 23.4223C51.3795 23.3138 51.271 23.2091 51.1663 23.1829C50.452 22.8912 49.6853 22.6781 48.8887 22.5733C47.8042 22.4125 46.6897 22.334 45.6051 22.334C43.7239 22.334 42.1607 22.6257 40.9153 23.2615C39.7746 23.7925 38.7947 24.6415 38.1328 25.6999C37.5494 26.6797 37.2315 27.7643 37.2315 28.905C37.2053 29.8325 37.4185 30.76 37.8411 31.6089C38.3422 32.5103 39.0304 33.2769 39.8531 33.8603C41.02 34.6532 42.2654 35.289 43.6155 35.7677C44.9132 36.2726 45.7884 36.669 46.211 37.0131C46.6336 37.3572 46.8467 37.7012 46.8467 38.0715C46.8467 38.5502 46.555 38.999 46.1324 39.186C45.6575 39.4253 44.9918 39.5562 43.9334 39.5562C42.875 39.5562 41.8128 39.4253 40.8068 39.1598C39.6437 38.8942 38.5554 38.4716 37.5232 37.862C37.4446 37.8097 37.3624 37.7835 37.2838 37.8359C37.2053 37.8882 37.1791 37.9967 37.1791 38.0752V42.6865C37.1529 42.8997 37.2838 43.0867 37.4708 43.1914C38.3198 43.5916 39.2473 43.8795 40.1748 44.0404C41.3641 44.2797 42.5571 44.3844 43.7763 44.3844C45.6836 44.3844 47.2731 44.0927 48.5708 43.5355C49.7601 43.0568 50.7961 42.234 51.5366 41.1756C52.2247 40.1434 52.595 38.898 52.5688 37.6526C52.595 36.6989 52.3818 35.7714 51.9592 34.9225C51.4543 34.0212 50.74 33.2807 49.8648 32.7234C48.5933 31.9306 47.217 31.2686 45.7846 30.7899C45.1488 30.5244 44.5131 30.2327 43.9034 29.9148C43.5594 29.7315 43.2415 29.4922 43.0021 29.2004C42.8413 28.991 42.7366 28.7479 42.7366 28.5123C42.7366 28.2767 42.8189 28.0112 42.9498 27.798C43.1368 27.5324 43.4285 27.3454 43.7726 27.2669C44.2774 27.1323 44.8309 27.0537 45.362 27.0799C46.368 27.0799 47.3479 27.2108 48.3277 27.424Z" fill="#E9E9E9"/>
</svg>
