<svg width="94" height="95" viewBox="0 0 94 95" fill="none" xmlns="http://www.w3.org/2000/svg">
<path d="M46.1231 0.000772045C42.2736 0.0186593 38.5973 0.34697 35.3626 0.919349C25.8336 2.60282 24.1035 6.12645 24.1035 12.6246V21.2068H46.6218V24.0675H24.1035H15.6526C9.10815 24.0675 3.37766 28.0011 1.58523 35.4841C-0.482308 44.0614 -0.574015 49.4137 1.58523 58.3698C3.18591 65.0363 7.00855 69.7864 13.553 69.7864H21.2953V59.4983C21.2953 52.0658 27.7261 45.5097 35.3626 45.5097H57.8547C64.1156 45.5097 69.1138 40.3546 69.1138 34.0669V12.6246C69.1138 6.52207 63.9656 1.93784 57.8547 0.919349C53.9863 0.275421 49.9727 -0.0171152 46.1231 0.000772045ZM33.9454 6.90322C36.2714 6.90322 38.1709 8.83372 38.1709 11.2074C38.1708 13.5727 36.2714 15.4854 33.9454 15.4854C31.6111 15.4854 29.7199 13.5727 29.7199 11.2074C29.7199 8.83372 31.6111 6.90322 33.9454 6.90322Z" fill="#E9E9E9"/>
<path d="M71.922 24.0676V34.067C71.922 41.8194 65.3495 48.3443 57.8547 48.3443H35.3626C29.2017 48.3443 24.1035 53.6172 24.1035 59.7872V81.2294C24.1035 87.332 29.4101 90.9214 35.3626 92.6722C42.4907 94.7681 49.3261 95.1469 57.8547 92.6722C63.5237 91.0308 69.1138 87.7276 69.1138 81.2294V72.6472H46.6218V69.7865H69.1138H80.3729C86.9174 69.7865 89.3561 65.2216 91.6321 58.3699C93.9831 51.3162 93.883 44.5329 91.6321 35.4842C90.0147 28.9692 86.9257 24.0676 80.3729 24.0676H71.922ZM59.2719 78.3687C61.6062 78.3687 63.4974 80.2813 63.4974 82.6466C63.4974 85.0203 61.6062 86.9508 59.2719 86.9508C56.9459 86.9508 55.0464 85.0203 55.0464 82.6466C55.0464 80.2813 56.9459 78.3687 59.2719 78.3687Z" fill="#E9E9E9"/>
</svg>
