<svg width="152" height="52" viewBox="0 0 152 52" fill="none" xmlns="http://www.w3.org/2000/svg">
<path d="M34.4822 25.5034C34.4822 26.186 34.349 26.8353 34.0993 27.4513C33.8496 28.0673 33.4667 28.6334 32.9838 29.0996C32.501 29.5824 31.9516 29.9487 31.319 30.1984C30.6863 30.4648 30.037 30.5813 29.3544 30.5813C28.6718 30.5813 28.0225 30.4481 27.3898 30.1984C26.7572 29.932 26.2078 29.5657 25.725 29.0996C25.2421 28.6167 24.8759 28.0673 24.6095 27.4513C24.3431 26.8187 24.2266 26.1694 24.2266 25.5034C24.2266 24.8375 24.3598 24.1715 24.6095 23.5555C24.8759 22.9229 25.2421 22.3734 25.725 21.9073C26.2078 21.4245 26.7572 21.0582 27.3898 20.8085C28.0225 20.5421 28.6718 20.4255 29.3544 20.4255C30.037 20.4255 30.6863 20.5587 31.319 20.8085C31.9516 21.0748 32.501 21.4411 32.9838 21.9073C33.4667 22.3901 33.8329 22.9395 34.0993 23.5555C34.3657 24.1715 34.4822 24.8375 34.4822 25.5034Z" fill="#E9E9E9"/>
<path d="M29.3698 15.1309C36.2458 15.1309 42.6222 16.1131 47.4504 17.7614C53.2442 19.7592 56.8237 22.7727 56.8237 25.5031C56.8237 28.2335 53.0444 31.5466 46.8177 33.611C42.1061 35.1594 35.9128 35.9752 29.3865 35.9752C22.8601 35.9752 16.3671 35.2093 11.6055 33.5944C5.57866 31.5466 1.94922 28.3001 1.94922 25.5031C1.94922 22.7061 5.36222 19.8092 11.0728 17.8113C15.9009 16.1298 22.4439 15.1309 29.3865 15.1309H29.3698Z" stroke="#E9E9E9" stroke-width="2.7637"/>
<path d="M20.2966 20.3591C23.7262 14.4321 27.7719 9.40415 31.6178 6.07439C36.2461 2.06202 40.6414 0.497036 43.0222 1.86224C45.5029 3.27739 46.4019 8.13883 45.07 14.5486C44.0711 19.3934 41.6736 25.1373 38.4271 30.7812C35.0807 36.5583 31.2515 41.6362 27.4722 44.9327C22.6774 49.1115 18.049 50.6266 15.6183 49.2281C13.2708 47.8795 12.3551 43.4343 13.4872 37.5073C14.4362 32.496 16.8336 26.3526 20.2966 20.3591Z" stroke="#E9E9E9" stroke-width="2.7637"/>
<path d="M20.3135 30.7821C16.8672 24.8551 14.5197 18.8616 13.5541 13.8836C12.372 7.89 13.2045 3.29493 15.5853 1.92973C18.0493 0.49793 22.7276 2.16281 27.639 6.4915C31.3517 9.77132 35.1643 14.716 38.4274 20.3267C41.7738 26.0871 44.2878 31.9309 45.2701 36.8589C46.5021 43.0856 45.5032 47.8305 43.0891 49.229C40.7416 50.5942 36.4296 49.1457 31.8345 45.2166C27.9553 41.8869 23.8098 36.759 20.3302 30.7655L20.3135 30.7821Z" stroke="#E9E9E9" stroke-width="2.7637"/>
<path fill-rule="evenodd" clip-rule="evenodd" d="M148.843 38.9558C150.374 38.9558 151.323 38.5063 151.973 37.8736L151.207 35.9257C150.857 36.3087 150.175 36.625 149.426 36.625C148.277 36.625 147.711 35.7259 147.711 34.4773V24.0551H151.124V21.7576H147.711V17.1792H145.097V21.7576H142.316V24.0551H145.097V35.0267C145.097 37.524 146.345 38.9558 148.826 38.9558H148.843ZM134.758 38.9558C137.821 38.9558 139.636 37.7072 140.918 36.0423L139.17 34.444C138.054 35.9424 136.623 36.625 134.891 36.625C131.295 36.625 129.081 33.8446 129.081 30.1319C129.081 26.4193 131.312 23.6722 134.891 23.6722C136.639 23.6722 138.054 24.3382 139.17 25.8532L140.918 24.2549C139.636 22.59 137.821 21.3414 134.758 21.3414C129.747 21.3414 126.367 25.154 126.367 30.1319C126.367 35.1099 129.747 38.9392 134.758 38.9392V38.9558ZM114.879 37.0745C112.449 37.0745 110.734 35.5428 110.734 33.4284C110.734 31.314 112.449 29.749 114.879 29.749C116.727 29.749 118.509 30.4483 119.508 31.8301V34.9934C118.492 36.3752 116.727 37.0745 114.879 37.0745ZM122.121 38.5396V27.0186C122.121 22.9563 119.158 21.358 115.612 21.358C112.865 21.358 110.7 22.2571 108.886 24.1384L110.101 25.9364C111.599 24.3382 113.231 23.6056 115.262 23.6056C117.693 23.6056 119.508 24.8876 119.508 27.1518V30.1652C118.142 28.6003 116.228 27.8677 113.93 27.8677C111.067 27.8677 108.037 29.6325 108.037 33.3951C108.037 37.1577 111.067 38.9558 113.93 38.9558C116.195 38.9558 118.109 38.1567 119.508 36.625V38.5396H122.121ZM102.193 29.0997H91.1381C91.2713 26.5358 93.0527 23.5057 96.6488 23.5057C100.478 23.5057 102.16 26.6024 102.193 29.0997ZM96.9651 38.9558C99.7122 38.9558 101.976 38.0568 103.658 36.3919L102.409 34.6937C101.077 36.0423 99.1295 36.8081 97.2149 36.8081C93.5854 36.8081 91.3545 34.1776 91.1547 31.0143H104.773V30.3484C104.773 25.3204 101.777 21.358 96.6821 21.358C91.8706 21.358 88.391 25.2871 88.391 30.1486C88.391 35.393 91.9872 38.9558 96.9651 38.9558ZM78.3185 26.8022H72.225V17.945H78.3185C81.0655 17.945 82.9469 19.7431 82.9469 22.357C82.9469 24.9708 81.0655 26.8022 78.3185 26.8022ZM86.1934 38.5396L79.9168 29.0997C83.08 28.8167 85.9436 26.5358 85.9436 22.357C85.9436 18.1781 82.9136 15.3811 78.6681 15.3811H69.3281V38.5396H72.225V29.3328H76.8534L82.7804 38.5396H86.1934Z" fill="#E9E9E9"/>
</svg>
