<svg width="72" height="72" viewBox="0 0 72 72" fill="none" xmlns="http://www.w3.org/2000/svg">
<path fill-rule="evenodd" clip-rule="evenodd" d="M71.694 17.6893C71.7219 18.4136 71.7219 19.1379 71.7219 19.8622V19.89V22.4529V49.3071V51.87C71.6941 52.5943 71.694 53.3186 71.694 54.0428C71.6383 55.6028 71.5548 57.1907 71.2762 58.7507C70.9976 60.3386 70.5241 61.815 69.7998 63.2357C69.1033 64.6564 68.1562 65.9379 67.0419 67.0522C65.9276 68.1943 64.6462 69.1136 63.2254 69.8379C61.7769 70.5622 60.3283 71.0357 58.7405 71.3143C57.1805 71.5929 55.5926 71.6764 54.0326 71.7322C53.3087 71.76 52.5849 71.76 51.861 71.76H51.8598H49.2969H22.4426H19.8797C19.1558 71.7322 18.432 71.7322 17.7081 71.7322H17.7069C16.1469 71.6764 14.559 71.5929 12.999 71.3143C11.4112 71.0357 9.93477 70.5622 8.51406 69.8379C7.09334 69.1136 5.81184 68.1665 4.69756 67.0522C3.58327 65.9379 2.66401 64.6564 1.93973 63.2357C1.21544 61.7871 0.741874 60.3386 0.463303 58.7507C0.184731 57.1907 0.101177 55.6028 0.0454625 54.0428C0.0176053 53.3186 0.0175781 52.5943 0.0175781 51.87V49.3071V22.4529V19.89C0.0175781 19.5279 0.0245492 19.1657 0.0315203 18.8036C0.0384914 18.4414 0.0454625 18.0793 0.0454625 17.7171C0.101177 16.1571 0.184731 14.5693 0.463303 13.0093C0.741874 11.4214 1.21544 9.94499 1.93973 8.52428C2.63616 7.10357 3.58327 5.82215 4.69756 4.70786C4.97613 4.42929 5.25478 4.1507 5.56121 3.89998C6.48049 3.11998 7.45549 2.45144 8.51406 1.92215C8.8762 1.72715 9.2383 1.55998 9.60044 1.4207C10.6869 0.974985 11.829 0.668582 12.999 0.445725C14.169 0.250725 15.3668 0.139282 16.5368 0.083568C16.9268 0.0278537 17.3169 0.0278418 17.7069 0.0278418C18.4308 0 19.1547 0 19.8785 0H19.8797H22.4426H49.2969H51.8598C52.5837 0.0278419 53.3075 0.0278419 54.0314 0.0278418H54.0326C55.5926 0.0835561 57.1805 0.167153 58.7405 0.445725C60.3283 0.724296 61.8047 1.19786 63.2254 1.92215C64.6462 2.61858 65.9276 3.56569 67.0419 4.67998C68.1562 5.79427 69.0755 7.07572 69.7998 8.49644C70.5241 9.94501 70.9976 11.3936 71.2762 12.9814C71.5548 14.5414 71.6383 16.1293 71.694 17.6893ZM56.8671 44.1374C56.8515 44.1885 56.8357 44.2402 56.8199 44.2929L56.792 44.2651C62.9763 51.8422 61.277 59.9765 60.497 58.4444C57.2934 52.1765 51.2763 53.7644 48.2398 55.3522C48.0542 55.476 47.8532 55.5845 47.6597 55.689C47.5918 55.7257 47.5249 55.7618 47.4598 55.7979C47.432 55.8258 47.3763 55.8537 47.3763 55.8537C41.0248 59.2244 32.5563 59.4751 24.0042 55.7979C16.8449 52.7337 10.967 47.4408 7.15053 41.3401C9.10053 42.7608 11.1898 44.0144 13.4184 45.0729C22.4441 49.3072 31.5256 49.0008 37.9327 45.0729C28.7956 38.0529 21.1905 28.9158 15.3405 21.5058C14.2263 20.1687 13.1956 18.7758 12.332 17.3551C19.3242 23.7622 30.3834 31.813 34.3391 34.0415C25.9263 25.1551 18.5163 14.1794 18.8506 14.5415C32.1106 27.913 44.3398 35.4622 44.3398 35.4622C44.6876 35.6464 44.9603 35.8155 45.191 35.9585C45.2744 36.0103 45.3523 36.0586 45.4263 36.103C45.677 35.4622 45.8999 34.7937 46.0949 34.0972C48.212 26.353 45.8163 17.4944 40.4399 10.1958C52.7527 17.6058 60.0234 31.6179 57.0427 43.4851C56.9975 43.7109 56.9341 43.9184 56.8671 44.1374Z" fill="#E9E9E9"/>
</svg>
